<?xml version="1.0" encoding="utf-8"?>
<!-- Generator: Adobe Illustrator 22.0.0, SVG Export Plug-In . SVG Version: 6.00 Build 0)  -->
<svg version="1.1" id="Layer_1" xmlns="http://www.w3.org/2000/svg" xmlns:xlink="http://www.w3.org/1999/xlink" x="0px" y="0px"
	 viewBox="0 0 672 294" style="enable-background:new 0 0 672 294;" xml:space="preserve">
<style type="text/css">
	.st0{fill:#FFFFFF;}
</style>
<g>
	<path class="st0" d="M-42.6,314.5c0-120,0-240,0-360c258.2,0,516.5,0,774.7,0c0,120,0,240,0,360
		C473.8,314.5,215.6,314.5-42.6,314.5z M349.1,186.4L349.1,186.4c0,0.4,0.1,0.9,0.2,1.8c1.5-1.5,2.4-0.9,3.3,0.3
		c0.4,0.5,1.1,0.7,1.9,1.3c0.4-2.7,2.6-1.6,3.8-2.3c0.1-0.3,0.2-0.5,0.2-0.7c0.1-2.4,0.1-2.4,2.6-2.4c1.9,0,3.7-0.5,5.2-1.6
		c0.6-0.4,0.9-1,1.9-1.1c1-0.1,1.8-0.9,2.1-2.1c0.2-1,0.3-2,0.5-3.3c-1.3-0.3-2.5-0.8-3.7-0.7c-2.9,0.2-4.4-0.4-5.3-2.8
		c-1.5-0.2-3-0.4-4.5-0.7c-0.2,0.2-0.4,0.3-0.5,0.5c-1.1,1.4-1.4,1.3-2.2-0.1c-0.9-1.5-2-2.9-2.8-4.1c-1.2,0.3-2.1,0.9-3,0.8
		c-2.6-0.2-5.3,0.3-7.8-0.8c-0.1,0-0.2,0.2-0.4,0.3c1.3,1.1,1.3,1.1,0.7,2.2c-1.3-1.1-2.6-1.8-2.8-4c-0.1-1.6,0.1-4.1-2.5-4.6
		c0-2.7,0-5.2,0-7.8c0.7-0.6,1.5-1.3,2.3-2c0.8,0.3,1.5,0.5,2.4,0.8c0-0.8,0-1.5,0-2.3c0.6,0.5,1.1,0.8,1.5,1.1
		c0.4-0.3,0.7-0.5,0.9-0.9c1.2-1.8,3-2.3,5-2.2c1.3,0.1,2.7,0.7,3.5-1c0.1-0.2,0.7-0.3,1.1-0.3c0.9,0.2,1.8,0.4,2.9,0.7
		c0.6-0.4,1.4-1,2.5-1.7c-0.1,0.8-0.2,1.4-0.2,2.2c1.2-0.7,2.2-1.3,3.1-1.9c0.2-0.1,0.2-0.4,0.4-0.7c-0.4-0.4-0.8-0.8-1.4-1.3
		c0.8-0.3,1.4-0.4,1.8-0.6c0.2,0.2,0.4,0.3,0.5,0.4c0.8,1.5,1.5,2.8,3.6,2c0.9-0.3,2.1-0.3,3,0c1.8,0.6,4.4-0.3,5.3-2
		c0.4-0.8,0.9-1.7,1.6-2.3c0.9-0.7,2-1.2,3.1-1.5c0.9-0.3,1.3-0.9,1.5-1.7c0.2-0.7,0.2-1.4,0.4-2.2c-0.8-0.5-1.6-0.9-2.4-1.4
		c-0.8-0.5-1.6-0.9-2.3-1.5c-0.6-0.5-1-1.3-1.7-1.6c-1.4-0.6-2.3-1.6-2.4-3.2c-0.5,0-0.8-0.1-1.1,0c-2.1,0.6-3.3-0.6-4.4-2
		c-0.2-0.3-0.3-0.5-0.5-0.8c-1.4-2.1-3.3-2.4-5.2-0.7c-0.7,0.6-1.4,1-2.1,0.7c-1.6-0.7-3-0.1-4.4,0.6c-1-0.9-2-1.8-3.4-0.9
		c-1,0.7-2,1.5-3.2,2.6c-0.9-0.4-2.2-0.9-3.4-1.5c-0.3,0.2-0.8,0.4-1.5,0.8c0.4-1.8,0.5-3.4,1.7-4.4c1.8-1.4,3.8-2.6,5.7-3.8
		c0.2-0.2,0.6-0.2,0.9-0.2c1.2,0.1,2.1-0.5,2.6-1.5c0.8-1.3,2-1.5,3.3-1.6c0.5,0,1,0,1.7,0c-0.1-1-0.1-1.7-0.2-2.7
		c0.7,0.1,1.2,0.3,1.8,0.3c0.5,0,1.1,0,1.3-0.3c0.8-0.9,1.7-1.9,2.2-3c0.9-1.7,1.9-2.5,3.6-1.7c2.3,1.1,4.5,0.2,6.4-0.4
		c2.1-0.6,3.7-1.4,5.4,0.3c0.1,0.1,0.3,0.1,0.5,0.1c2.3-0.1,4.6,0.8,6.8-0.3c0.2-0.1,0.6,0,0.9,0.1c1.4,0.3,1.8,1.4,1.9,2.5
		c2.3,0.9,2.8-1,3.7-2.1c0.7,0.2,1.3,0.5,1.7,0.3c1.8-0.6,2.7-3.9,1.6-5.5c-0.9-1.5-1.8-2.9-3.3-4c-0.5-0.4-1.5-0.5-1.7-1
		c-0.8-1.8-2.3-2.4-4.1-2.8c0.5-1,0.8-1.8,1.3-2.8c-3-0.8-5.7-1.6-8.5-2.4c-0.1-0.6-0.3-1.4-0.6-2.3c-1.4-0.1-2.6-0.1-3.4,1.3
		c0.3,0.6,0.6,1.2,0.8,1.9c-1,0.5-1.7,0.4-1.6-0.6c0.1-1.8-0.9-2.7-2.2-3.3c-1.5-0.7-2.7,0.1-3.8,1.2c-1.8,1.7-3.9,2.7-6.5,2.2
		c-0.2,0-0.4,0.1-0.7,0.2c0.2,0.7,0.3,1.3,0.5,2c-1.6,0.3-3,0.3-4.4-0.4c-0.3-0.1-0.7,0.1-1.2,0.3c0.2,0.8,0.4,1.4,0.6,2.2
		c-0.6-0.1-1-0.1-1.2-0.3c-0.9-0.9-1.7-1.8-2.6-2.9c-0.4,0.2-0.7,0.5-1,0.6c-0.4,0.2-0.9,0.5-1.3,0.4c-1-0.1-1.6,0.3-2.2,1.1
		c-0.6,0.8-2.9,1.8-3.9,1.7c-1.4-0.1-2.5,0.4-3.3,1.5c-0.4,0.6-1,1-1.6,1.5c-1.5,1.2-1.7,1.9-1,3.7c0.2,0.5,0.3,0.9,0.6,1.8
		c-2.5-0.7-4.4,0-6.2,1c-1.9,1.1-3.5,2.6-5.8,2.9c-0.2,0-0.4,0.3-0.4,0.3c-0.1,2.5,1.3,4.9-0.8,7.3c0.9,0.8,1.6,1.6,2.5,2.4
		c0,0.5-0.1,1.1-0.1,1.7c0.1,2.1-0.5,4.2,1.3,6c1,1,1.2,2.2,0.6,3.6c-0.1,0.3,0.2,0.8,0.5,1.4c0.4-0.6,0.6-0.9,1.1-1.6
		c0.3,1.3,0.9,2.4,0.6,3c-0.8,1.3-2,0.1-3,0.1c-1.1,0.9-2.2,1.9-3.4,2.6c-1.2,0.7-2.1,1.9-3.8,1.7c-0.4,0-1,0.9-1.3,1.5
		c-0.5,0.9-0.7,1.9-1.2,2.8c-0.8,1.1-1.1,2.1,0.1,3.2c-1.5,1.2-1.5,2.7-1.4,4.4c0.1,2,0,3.9,0.8,5.7c0.3,0.6-0.1,1.5-0.3,2.3
		c-0.1,0.4-0.3,0.8-0.5,1.5c0.7,0.6,1.6,1,2,1.8c1.1,2.4,3.2,3.5,5.6,4.6c-0.3,0.5-0.5,1-0.8,1.4c-0.8,0.8-1.1,1.6-0.2,2.5
		c0.2,0.2,0.4,0.6,0.4,0.8c0.1,2.5,1.9,3.5,3.6,4.4c0,1.8,0,3.5,0,5.3c1.2,0.1,1.8,0.9,2.4,1.9c1,1.6,2.5,3,4,4.7
		c0.4-0.8,0.6-1.3,0.8-1.7c2,0.2,3.8,0.4,5.8,0.6c-0.6,0.7-0.9,1.2-1.6,2.1c1.3,0.2,2.4,0.7,2.9,0.4
		C345.6,186.1,347.4,186.6,349.1,186.4z M257.4,215.3c-1.6,0.3-3,0.6-4.5,0.7c-0.8,0.1-1.5-0.3-2.3-0.4c-3.4-0.5-4.8,0.8-4.3,4.3
		c0.1,0.6,0.3,1.1,0.2,1.7c0,0.4-0.3,0.8-0.6,1.4c-0.8-2.9-2-3.8-4.9-3.9c0.6-0.5,1.2-0.9,1.5-1.4c0.2-0.4,0.2-1.3-0.1-1.4
		c-0.9-0.6-2.1-1.4-3-1.2c-1.2,0.2-2.1,0-2.7-0.7c-1.8,0.6-3.5,0.9-4.9,1.6c-1.5,0.8-2.7,2-4.4,3.2c0-1.1,0.1-1.8,0.1-2.6
		c-2.3-0.6-4.4,0-6.5,0.8c-0.7,0.3-1.6,0.5-2.2,0.3c-2.8-1-5.6-0.7-8.6-0.7c0.2,1.8-1.1,2-2.3,2.2c-1.7,0.2-3.5,0.2-4.8,1.6
		c0,0-0.3-0.1-0.4-0.2c1-2,1-2.3,0.1-3c-1.3-1.1-2.3-1.1-3.4,0c0,0.1,0,0.4,0.1,0.4c0.9,0.7,1,1.5,0.1,2.1c-0.9,0.6-1.5,0.3-2.2-0.6
		c-1-1.5-3.9-1.6-5.1-0.2c-0.6,0.7-1.2,1.3-2.2,0.9c-1.4-0.5-2.7-0.5-3.9,0.8c-0.5,0.6-1.3,0.5-1.5-0.6c-0.1-0.4-0.1-0.7-0.1-1
		c-4-1.1-7.7,0.5-11.3,0.7c-0.9,1.6-1.6,3-2.6,4.9c-0.5-1-1-1.5-1.1-2c-0.2-1.2-1-1.6-2-1.7c-1.2-0.1-2.3-0.1-3.6-0.2
		c-0.3,0.4-0.6,0.8-1.1,1.5c-0.3-0.5-0.4-0.7-0.6-1c-0.8-1.4-1.3-1.6-2.5-0.5c-0.5,0.5-0.9,1.2-1.5,1.5c-0.9,0.4-1.9,0.5-2.8,0.8
		c-0.5-0.8-0.8-1.3-0.9-1.6c-1.5-0.4-2.6-0.8-3.7-1.1c-1.4-0.4-2.6-1-3.7,0.8c-0.5,0.9-1.9,1.6-3,1.6c-2.3,0.1-4.8,0-7.1-1.4
		c0.1,1.3-0.6,2-1.9,2.3c0-1.7-1.3-1.9-2.6-2c-0.4,0-0.8,0-1.2,0c-1.2-0.2-2.4-0.2-3.5-0.5c-1.8-0.5-3.6-0.6-5.4,0
		c-1.5,0.6-3,1.1-4.7,1.6c0,0.5,0.1,1.2-0.2,1.7c-0.2,0.5-0.9,0.7-1.4,1.1c-0.3-0.4-0.7-0.8-0.8-1.3c-0.2-0.5-0.2-1-0.2-1.7
		c-1.2,0.1-2.3-0.1-3.2,0.3c-1.9,0.8-3.2-0.1-4.6-1.1c-1.5-1.2-2.3-1.2-4-0.2c-0.8,0.5-1.7,1.1-2.6,1.1c-1.9,0.1-3.6,0.6-4.9,1.9
		c-1.1-0.3-1.6-1-1.4-2c0.2-0.8,0.4-1.7,0.8-2.5c0.5-1,0.3-1.6-0.7-2.2c-1.7,0.9-3.5,1.5-5.3-0.1c-0.3-0.2-0.8-0.4-1.1-0.2
		c-1.2,0.4-2.3,0.4-3.5-0.1c-0.7-0.2-1.3,0-1.5,0.8c-0.1,0.4-0.3,0.9-0.4,1.5c-2,0-3.9,0.1-5.8,0c-0.6,0-1.5-0.3-1.6-0.7
		c-0.5-1.3-1.5-1.2-2.5-1.2c-1,0-2.1,0-3.1,0.2c-0.7,0.1-1.3,0.3-2.1,0.5c0.3,0.8,0.5,1.3,0.9,2.3c-1.9-0.9-3-0.4-3.7,1.1
		c-0.3,0.6-0.8,1-1.1,1.5c-0.6,0.9-1.3,1.4-2.6,1.1c-0.3-2.2-2.6-1.5-4-2.7c-0.4,1-0.9,1.8-1,2.6c-0.2,1.1-0.2,2.2-0.3,3.3
		c-0.3,2.4,0,2.7,2.4,3.1c0.3,0,0.6,0.1,1,0.2c0,0.8,0,1.5,0,2c2.2,2,4.6,2.7,7.4,1.8c0.3-0.1,0.7-0.2,0.9,0
		c0.6,0.3,1.4,0.6,1.6,1.1c0.7,1.5,1.8,2.4,3.5,2.6c0.7,0.1,1.6,0.4,2.1,1c1.2,1.3,2.5,1,3.7,0.3c0.9-0.6,1.7-1.5,2.5-2.3
		c1.3,0.8,0.1,1.7-0.1,2.7c0.6,0.4,1.1,0.8,1.4,1.1c1.1-0.4,2.3-1.2,2.8-1c1.4,0.7,2.9,0.3,4.2,0.7c2.5,0.7,4.7,0.2,6.7-1.4
		c0.1-0.1,0.3,0.1,0.6,0.1c0,0.3-0.1,0.6-0.1,0.8c0,0.4-0.1,0.7-0.2,1.3c0.9,0.3,1.8,0.8,2.6,0.9c0.9,0.1,1.9-0.2,2.8-0.1
		c1.1,0.1,1.9-0.2,2.3-1.3c0.2-0.4,0.5-0.8,0.8-1.1c0.1-0.1,0.4-0.1,0.8-0.2c0,0.6-0.1,1.1-0.1,1.7c2.5,0.7,4.3-0.7,6.4-2
		c0.6,0.9,1.1,1.6,1.7,2.5c1.4,0.4,2.8,1.1,4.3,1.2c1.4,0.1,3.1,0.7,4.2-0.8c0.9,0.4,1.6,0.9,2.3,1c1.4,0.3,2.7,0.4,4.4,0.6
		c0.4-0.5,1-1.2,1.6-2.1c1,0.8,1.6,1.9,3,1.5c1.1-0.3,2.2-0.4,3.2-0.8c1.1-0.4,1.9-0.1,2.4,0.9c0.5,1.1,1.3,1.4,2.5,1.5
		c2.1,0.2,3.7-0.7,5.1-2.2c1.1,1,2.2,1.5,3.5,0.6c0.2-0.1,0.5-0.1,0.7-0.1c2.2,0.3,4.6-0.7,6.8,0.6c0.2,0.1,0.5,0.1,0.7,0.1
		c2.1-0.3,4.2-0.5,6.3-0.8c1.4-0.2,2.6-1,4.1-0.4c0.5,0.2,1.3,0,1.9-0.2c0.6-0.3,1.2-1.2,1.6-1.1c0.7,0.1,1.2,0.9,1.8,1.3
		c0.1,0,0.2,0.1,0.2,0.1c2.3-0.2,4.9,1,6.7-1.5c0.9,1.6,1.4,1.8,2.5,0.9c0.6-0.5,1.3-1.5,1.8-1.4c1.8,0.3,3.1-0.9,4.7-1.1
		c0.2,0.2,0.3,0.3,0.4,0.4c0.3,0.8,0,1.9,1.2,2.1c0.9,0.1,1.9,0.3,2.8,0.1c1.3-0.2,2.6-0.7,3.9-1.1c0.6-0.9,1.3-1.9,2.2-2.3
		c0.9-0.4,2-0.3,3-0.4c0.3,0.7,0.6,1.2,0.9,1.7c1.9,0.3,3.7,0.5,4.6-1.7c0.1-0.3,1-0.4,1.5-0.4c0.5,0,1.1,0.2,1.6,0.1
		c1.4-0.3,2.7,0.3,3.4,1.3c1.3,1.7,3,1.5,4.8,1.3c0-1.5,0-2.9,0-4.3c0.9-0.4,1.7-0.8,2.6-1.2c0,0.3,0.1,0.5,0.1,0.7
		c-0.7,2.7,0.1,3.6,2.9,3.5c0.9,0,1.9,0.1,2.9,0.2c1.9,0.2,3.7,0.3,5.6,0.5c0.2-0.8,0.3-1.3,0.4-2.3c1.8,2.7,4,1.8,6.2,1.3
		c0-0.8,0-1.5,0-2.1c0.9-0.4,1.7-0.8,2.5-1.1c0.8-0.3,0.9-1.9,2.4-1.1c-1.3,1.4-1.5,2.8-0.5,4.4c0.8,0,1.5,0,2.3,0
		c0.7-1.2,1.4-2.3,2.1-3.4c1.5-0.2,2.9-0.3,4.2-0.4c0.2,3.8,0.2,3.8,2.5,3.6c0.2-0.9,0.5-1.9,0.7-2.8c0.9,0,1.6,0,2.3,0
		c0.5-0.7,1-1.5,1.4-2.1c1.3,0,2.5,0,3.8,0c-0.1,1.8,0.8,2.9,2.5,3.8c1.3-1.8,3.9-1.8,5.3-3.8c0.1,0.1,0.2,0.2,0.4,0.3
		c-0.2,0.8-0.5,1.5-0.8,2.5c3.5-0.2,6.8-0.4,9.6-0.6c1.5,1,2.6,2,3.9,2.5c1.8,0.6,2.5-1,3.4-2.4c1.7,1.4,3.4,2.7,5.6,1.4
		c0.4,0.5,0.7,0.8,0.9,1.1c0.6,0.7,1.3,0.8,1.9,0.2c0.9-1.1,1.8-1,3-0.7c1.2,0.3,2.2,0,2.9-1.2c0.5-0.7,1.3-1.3,2.2-2.3
		c1.1,3.4,3.7,3,6.1,3.3c-0.3-4.2,0.1-5,2.3-5c1.4,1.5,2.5,2.7,3.8,4c1.1,0.1,2.3,0.2,3.4,0.2c2.1,0,4.3,0.4,6.4-0.1
		c1.4-0.3,2.4-0.1,3.2,0.4c0.9-0.7,1.6-1.6,2.3-1.7c1-0.1,2.3,0.1,2.9,0.7c1.1,0.9,2,0.6,3.1,0.5c1.3-0.1,1.9-0.9,2.2-2.2
		c0.2-0.7,0.7-1.2,1.1-1.8c0.4-0.9,1.1-0.9,1.8-0.5c1.3,0.8,2.4,1.8,2.1,3.6c-0.3,1.4,0.4,2.1,1.6,2.6c1.2,0.5,1.9-0.5,2.7-1.1
		c0.3-0.3,0.4-0.9,0.7-1.2c1.4-1.7,3.1-1.5,4.2,0.4c0.2,0.3,0.5,0.6,0.5,0.6c1.6,0,2.9-0.1,4.1,0c2,0.2,4.1,0.5,6.1,0.9
		c1.5,0.3,2.7-0.1,3.3-1.5c0.1-0.2,0.4-0.2,0.7-0.3c0.3,0.6,0.6,1.1,0.9,1.5c1.4-0.1,2.7-0.1,3.8-0.2c1.1-1.1,2.1-2,3.1-3
		c0.6,0.6,1,1,1.7,1.6c0.6-1.1,1.1-2,1.7-2.8c0.2-0.4,0.6-0.8,1-0.9c0.7-0.2,2.7,1.2,3,2c0.9,1.9,0.9,1.9,3,1.3
		c0.6-0.8,0.1-2.3,1.6-2.6c0.8,2.7,1.2,3.1,2.5,3.3c2.5,0.3,2-2.1,3-3.4c1.2,1.8,2.3,3.4,3.5,5c1-0.3,2.1-0.4,3.1-0.9
		c1-0.5,2-1.3,3.2-2.2c-0.1,1-0.1,1.7-0.1,2.6c1.2-0.1,2.4-0.2,3.6-0.3c0.7,0.5,1.5,0.9,2,1.6c1.2,1.4,2.5,1.4,4.1,0.7
		c0.7-0.3,1.6-0.5,2.3-0.4c2.1,0.1,4.1,0.4,6.2,0.5c0.7,0,1.5-0.1,2-0.4c2.4-1.6,2.3-1.7,4.3,0c0.1,0.1,0.3,0.1,0.4,0.1
		c1-0.6,2.1-1.1,3.2-1.8c0.9,1.9,2.2,2.1,3.8,1.4c0.3-0.1,0.8-0.1,1.2-0.1c2-0.2,4.1-0.5,6.1-0.8c1-0.1,1.6-0.6,1.7-1.7
		c0.1-0.8,0.4-1.4,1.3-1.4c0.5,0.7,0.9,1.3,1.5,2.2c0.7-1,1.2-1.6,1.7-2.2c1.3-0.1,2.2,0.1,3,1.1c1.1,1.3,2.3,1.2,3.4-0.1
		c0.6-0.7,1.2-1.5,1.8-2.4c1.5,1.6,3.2,2.5,5.3,1.9c2,1.4,4,0,5.9,0c0.2,0.2,0.3,0.3,0.4,0.5c1,2,1.5,2.1,3.1,0.7
		c0.7-0.6,1.4-1.1,2-0.4c1.1,1.2,2.4,1,3.7,0.8c0.4-0.7-1-1.9,0.8-2.2c0.4,0.6,0.8,1.3,1.2,2c1.1,1.7,1.7,1.6,3.1,0.2
		c1.8-1.7,4.9-2.8,7-1.3c0.3,0.2,0.7,0.3,0.9,0.4c1.2-1.1,2.2-2.1,3.1-3c0.9,0.9,1.5,2.1,2.1,2.1c2.5,0,5.2,0.1,7-2
		c0.7-0.8,1.6-1.1,2.5-1c0.4,0,0.8,0.5,1.3,0.9c-0.9,0.5-1.4,0.9-2,1.2c1.4,2,3.2,1.9,5.4,0c1.6,1.8,1.8,1.8,3.4,0.1
		c0.2-0.2,0.5-0.4,0.6-0.7c0.5-1.2,1.4-1.4,2.5-1.4c0.5,0,1.1-0.2,1.6-0.3c1.1-0.1,2.1-0.2,3.2-0.3c0.3,1,0.5,1.6,0.6,2.2
		c2.8,1.3,4.8-0.8,7.2-1.6c0.2,1.1,0.3,1.8,0.4,2.8c1.3-0.4,2.7-0.1,3.2-1.8c0.1-0.4,1.2-0.8,1.8-0.8c0.4,0,0.7,0.9,1,1.3
		c0.2,0.3,0.3,0.5,0.4,0.8c0.6,0.1,1,0.2,1.5,0.3c1.6,0.3,3.2,1,4.7,0.7c1.5-0.3,2.9-0.8,4.5-0.9c0.4,0,0.7-0.3,1-0.5
		c0-0.8,0-1.4,0-2.3c1.3,0.6,2.5,1.7,3.6,1.5c1.9-0.2,2.4,0.6,2.7,2.1c0.1,0.5,0.8,1.1,1.2,1.1c1.5,0,3-0.3,4.5-0.4
		c1-0.1,2-0.2,3-0.1c1.3,0.1,1.9-0.3,1.6-1.5c-0.2-0.8-0.8-1.5-1.3-2.2c-1.2-1.4-0.9-2.2,0.9-2.7c0.4-0.1,0.8-0.2,1.2-0.2
		c1.7,0.1,2.4,1.1,1.9,2.7c-0.2,0.6-0.3,1.3-0.4,2.1c1.2,0.2,2,0.3,2.9,0.4c2.9,0.3,3.8-0.2,4.9-3c0.3-0.6,0.6-1.2,0.9-1.9
		c2,2.5,2.2,2.1,5.2,0.9c1.2,0.8,2.2,1.9,3.5,2.4c1.4,0.5,2.9,0.1,3.6-1.6c1,0.7,1.9,1.3,2.8,1.9c0.1,1,0,2.2,1.5,2.6
		c0.5-0.3,1-0.5,1.3-0.7c1.1,0.5,1.9,1.1,2.7,1.3c1.1,0.3,2.3,0.4,3.8,0.7c0.5-0.4,1.2-1.3,2.4-0.8c0.2,0.1,0.8-0.2,0.8-0.4
		c0.3-1.7,2.6-2.8,0.9-4.8c2.1-0.5,2.1-0.5,2.7,2.4c2.3,1.2,2.3,1.2,2,3.1c-0.3,1.9,0.1,2.4,2.1,2.3c2-0.1,3.2-1.1,3.5-3.2
		c0.3-1.9,1.9-2.7,3.7-1.8c0.3,0.2,0.6,0.5,1,0.7c1.6,1.1,2.3,1,3.6-0.6c0.5-0.6,1-1.3,1.4-1.9c0.2-0.3,0.4-0.9,0.3-1.1
		c-1-1.3-0.8-3.2-1.7-4.4c-1.2-1.6-1.4-3.1-1.2-4.7c-0.8-0.8-2.3-0.8-2-2.2c0.3-1.9-0.4-3.5-0.8-5.2c-1.9-0.4-3.3,0.3-4.7,2.1
		c0.2-1.4,0.3-2.2,0.4-3.3c-1.4,0.8-2.5,1.4-3.9,2.2c-0.3-0.8-0.6-1.6-1-2.5c-1.5,0.1-3.1,0.3-4.7,0.4c-1.2,0.1-2.4,0.4-3.1-1.1
		c-0.1-0.3-0.7-0.6-1-0.5c-1.9,0.7-3.8,0.3-5.8,0.2c-0.6,0-1.3,0.5-2,0.8c-0.4,0.2-0.8,0.4-1.6,0.9c0.1-1.2,0.2-2,0.3-2.6
		c-0.8,0.2-1.5,0.4-2.3,0.5c-0.9,0.1-1.8,0-2.6,0.1c-1.8,0.4-3.8-0.5-5.4,1.3c-0.2-0.7-0.3-1.2-0.4-1.6c-1.8-0.7-4.2,2.1-5.4-0.9
		c-1.4,0.1-2.7,0-3.9,0.2c-1.8,0.3-3.6,0.3-5.3,1.2c-0.5,0.3-1.3,0-2.1,0c0.2-0.9,0.4-1.4,0.7-2.4c-1.5,0.3-2.7,0.7-3.9,0.9
		c-1.6,0.2-2.3-1.1-3.1-1.9c-1.9,0.4-1,1.7-1,2.2c-1.8,1.1-3.2,1.9-5.2,3c0.5-1.3,0.7-2.1,1.1-3.3c-1.1,0.3-1.8,0.7-2.5,0.7
		c-2.3,0-4.9,1.5-6.7-1.3c-1.4,0.8-2.7,1.6-4.1,2.4c-0.4-1.4-1.2-1.4-2.3-1.2c-2.6,0.4-2.6,0.4-4.5-1.5c-0.4,0.9-0.8,1.8-1.1,2.7
		c-0.3,1.1-0.9,1.5-2.1,1.4c-1.6-0.1-2.9-0.7-4.3-1.4c-0.7-0.4-1.5-0.3-1.9,0.4c-0.4,0.9,0.1,1.3,1,1.5c0.2,0,0.4,0.2,0.9,0.5
		c-0.3,0.7-0.5,1.6-1,1.9c-0.8,0.4-1.4-0.3-1.8-1.1c-0.4-0.7-0.8-1.4-1.4-1.9c-0.5-0.4-1.4-0.7-1.9-0.5c-1.4,0.6-2.8,0.5-4.2-0.1
		c-0.3-0.2-0.8-0.1-1.2-0.1c-2,0-4,0-6.1,0c0.3,0.4,0.6,0.8,1.1,1.4c-1.6,0.4-3,0.5-4.2-0.3c-1-0.7-2-0.9-3.2-0.5
		c-1.1,0.4-2,0.4-3.2-0.1c-1.3-0.5-2.7-0.7-4.2,0.1c-1.8,1-3.6-0.3-5.3-0.4c0,0-0.1-0.1-0.1-0.2c0-0.6-0.1-1.3-0.1-1.9
		c-2.6,0.6-3.4,3.3-5.4,4.7c-0.7-3.8-2.7-5-5.4-2.7c-2-1.5-3.3-1.8-4.8,0.4c-1.1-0.3-2.3-0.5-3.4-0.8c-0.7,1.1-1.4,2-2,3
		c-1.9-0.7-0.4-2-0.7-3c-1.9-0.5-2.9,1.5-4.7,1.6c-0.4-1.1-1.2-1.3-2.4-1.1c-1.1,0.2-2.3,0.3-3.3,0c-1.6-0.5-2.9-0.3-3.8,0.6
		c-0.8-0.5-1.4-1.1-1.9-1.1c-2.3,0-4.6,0.2-6.9,0.3c-0.2,0.5-0.5,1.1-1,2.1c-1.7-1.9-2.7,1.1-4.6,0.4c-0.1-1,0.2-2.5-1.6-2.6
		c-0.7,2,2.6,3.3,0.9,5.4c-0.2,0-0.3,0-0.3-0.1c-0.5-1-1-2-1.4-3c-0.9-2-2-2.8-4-2.5c-1.5,0.2-2.9,0.3-4.1-0.6
		c-0.7,0.7-1.3,1.3-1.8,1.9c-0.7-0.5-1.3-0.9-1.8-1.2c-0.5,0.4-0.9,0.7-1.3,1.1c-1.4-0.8-2.6-2-4-2.3c-1.4-0.3-3,0.4-4.5,0.5
		c-1,0-1.9,0.3-2.6,1c-1.2,1.3-2.6,2-4.3,1.9c-0.2,0-0.5,0-0.7-0.1c-0.2-0.3-0.4-0.5-0.6-0.8c-1.1-1.6-1.5-1.8-3.3-0.9
		c-0.4,0.2-0.9,0.5-1.3,0.4c-1.6-0.3-3.4-0.4-4.8-1.2c-3.7-1.9-7-0.6-10.7,0.4c-1.6-1.4-3.5-1.5-5.7-0.7c-1.6,0.6-3.6,0.1-5.3,0.9
		c-0.3,0.1-0.9-0.2-1.3-0.5c-0.9-0.5-1.7-0.4-2.4,0.3c-0.8,0.9-1.7,0.8-2.8,0.6c-1.7-0.3-3.4-0.4-5.2-0.5c-0.3,1.1-0.6,2-0.9,3.1
		c-1.3-1.3-3.3-1.5-3.2-3.3c-1.7-0.2-3.3-0.2-4.8-0.7c-1-0.3-1.9-0.5-3-0.4c-1.6,0.2-3.2,0-4.8,0c-0.4,0-0.9-0.2-1-0.5
		c-0.4-0.9-1.1-0.6-1.8-0.6c-1.6,0-2.9,0.8-3.9,1.8c-1-0.4-1.9-1-2.8-1c-3.1,0-6.3-0.2-9.3,0.5c-1.7,0.4-3.1,0.7-4.7,0.2
		c-0.7,1.1-1.4,2-2.3,3.2c-4-3.8-8.5-4.4-13.4-2.2c-0.4-0.3-0.9-0.9-1.3-0.9c-1.5,0.2-3.1-1.1-4.5,0.6c-0.3,0.3-1,0.2-1.6,0.3
		c-1.2,0.1-2.4,0.2-4,0.3c0.1,0.1-0.2-0.1-0.4-0.3c-1.2-1.1-2.4-1.5-3.8-0.2c-0.3,0.3-0.9,0.4-1.3,0.4c-3.1-0.1-6.3-0.3-9.4-0.5
		c-1.3,1.8-1.3,1.8-3.5,1.3c-0.8-0.2-1.5-0.3-2.3-0.5c-0.4,0.7-0.7,1.3-1.1,1.9c-1.9-2.5-1.9-2.5-4.8-1.8c-1,0.2-1.9,0.6-2.7-0.3
		c-1.3-1.5-2.9-1.1-4.4-0.6c-1.1,0.4-2.2,1-3.2,1.6C258.5,216.7,258.6,216.8,257.4,215.3z M509.5,76.7c-0.5,0-0.8,0-1.1,0
		c-2-0.1-4,0.1-5.8-1c-1.1-0.6-2-1.6-3.5-1c-0.2,0.1-0.6-0.1-0.6-0.2c-0.6-1.5-1.8-1-2.8-0.9c-1.3,0.1-2.7,0-4.2,0
		c-0.2-0.5-0.5-1-0.8-1.5c-1.9-0.1-3.4-0.2-4.4,1.9c-0.7,1.4-3.6,1.6-4.4,0.5c-0.9-1.4-1.9-1-2.9-0.4c-0.9,0.5-1.7,1.2-2.5,1.8
		c0.4,1.2,0.8,2.2,1.2,3.3c-2.3,0.8-2.1-1.4-3.2-2.2c-0.4,0.3-0.7,0.5-1,0.7c-1.4,1.5-1.3,1.5-3.1,0.8c-0.7-0.3-1.6-0.3-2.4-0.4
		c0.1,1.4,0.3,2.4,0.3,3.4c-0.1,1,1.2,2,0.2,3.2c-0.8-0.5-1.5-0.9-2.4-1.5c-0.8,3.4-4.9,4.5-4.5,8.4c-1,0.1-1.8,0.2-2.6,0.1
		c-0.5-0.1-1.1-0.4-1.3-0.7c-0.5-0.9-1.1-1.1-2-0.8c-1,0.3-0.9,1.2-1.1,2c-0.1,0.8-0.1,1.6-0.5,2.3c-0.6,1.1-1.3,2-1,3.5
		c0.2,1.2-0.6,2.6,0.7,3.5c-1.2,1.6-2.4,0.1-3.7,0.1c0.1,0.9,0.1,1.6,0.2,2.6c-1-0.3-1.7-0.6-2.9-1c0.2,0.9,0.2,1.5,0.5,2
		c0.7,1.5,1.5,3,2.2,4.5c0.3,0.7,0.3,1.4,1.2,1.6c0.8,0.2,1.3,0.9,0.9,1.6c-0.4,0.7-1.1,1.4-1.8,1.7c-0.7,0.3-1.3-0.3-1.5-1.1
		c0-0.2-0.3-0.3-0.6-0.7c-1.2,2,0.7,2.9,1.2,4.4c-1.1,0.9-1.7,1.9-1.1,3.5c0.1,0.4-0.3,1-0.5,1.4c-1.1,2-1.6,4.2-3,6.1
		c-0.3,0.4-0.1,1.2,0,1.9c0.3,3.1-0.7,4.6-3.7,5.4c0.1,0.8,0.5,1.9,0.1,2.2c-1,0.9-0.7,2.1-0.9,3.1c-0.2,0.9-0.3,1.8-0.8,2.5
		c-0.5,0.7-1.2,1.4-0.9,2.3c0.3,0.8,0.8,1.4,1.2,2.3c-0.8,0.7-1.7,1.4-2.4,2.2c-0.5,0.6-0.9,1.5-0.7,2.1c0.4,1.1,0.2,1.9-0.1,3
		c-0.4,1.5-0.6,3-0.8,4.6c0.8,0.1,1.6,0.1,2.7,0.2c-0.2,1.4-0.3,2.6-0.5,3.8c-0.1,0.4-0.4,0.9-0.3,1c0.9,0.9,0.4,2,0.7,2.9
		c0.3,0.8,0.8,1.8,1.5,2.3c1.1,0.8,1.9,1.6,2.4,2.8c-1.9,2.6-1.8,4.4,0.8,6.1c1.3,0.9,2.4,1.9,3.4,3c0.1,0.1,0.3,0.1,0.4,0.2
		c1.6-0.8,4.5-0.5,3-3.7c1.1-1,2.2-1.5,3.7-0.6c0-1.8,0-3.5,0-5.3c0.2-0.1,0.7-0.3,1-0.7c1.3-1.2,2.9-2.3,2.3-4.3
		c-0.7-2.2,1.3-3.8,1.2-5.8c1.9-2.2,1.4-5,1.9-7.5c0.3-1.6,0.6-3.1,1.8-4.3c0.8-0.7,1-1.5,0.7-2.6c-0.5-1.6-0.5-3.3,0.6-4.8
		c0.3-0.4,0.4-1.1,0.3-1.6c-0.3-0.9,0-1.5,0.7-2.1c0.9-0.9,1.4-1.9,0.9-3.2c-0.1-0.3,0.1-0.9,0.3-1.3c1.1-1.9,2.8-2.8,5-2.3
		c0.2,0,0.4,0.2,0.6,0.3c0,0.6,0,1.2,0,2.1c0.9-0.2,1.5-0.4,2.2-0.4c0.8,0,1.9-0.1,2.2,0.3c0.9,1.2,1.8,1.3,3.1,0.8
		c0.2-0.1,0.7,0,0.9,0.2c1.6,1.1,3,0.5,4.5-0.3c2.7-1.4,4.6-1.1,6.6,1c0.9,0,1.9-0.1,2.8-0.2c0.4,0,0.9-0.1,1.1-0.4
		c1.4-2.2,3.7-2.6,6.1-2.8c0.5-0.8,0.9-1.6,1.4-2.4c0-0.1,0.1-0.1,0.3-0.2c0.5,0.3,1,0.7,1.4,1.1c1-0.5,2-1,2.7-1.4
		c0.4-1.3,0.5-3,1.2-3.4c1.6-1,1.8-2,1.1-3.4c2.2-2.5,4.7-4.4,7.4-5.8c0.4-1.1,1.1-2,1.2-2.9c0.3-2.6,1.1-5.1,2-7.5
		c0.5-1.4,0.9-2.6,2.3-3.2c0.3-2.2-1.3-4.3,0-6.1c-0.7-0.9-1.6-1.7-1.6-2.5c-0.1-1.6-0.2-2.9-1.8-3.8c-0.3-0.1-0.2-0.9-0.3-1.4
		c0-0.7,0-1.4,0-2.2c-1.8,0-2.5-0.9-3-2.4c-0.4-1.2-1.2-2.4-2.2-3.3c-1.1-1-2.6-1.7-3.8-2.5C509.2,78.3,509.3,77.6,509.5,76.7z
		 M227.9,174.2c0.7-0.3,1.5-0.4,1.7-0.8c1.1-1.9,1.4-4,1.2-6.1c0-0.8,0-1.7,0.3-2.3c0.6-1,1-2.1,1.3-3.3c0.6-2.6,1.7-5.1,1-7.9
		c-0.2-0.7,0.2-1.7,0.6-2.5c1-1.8,2.3-3.4,2.4-5.7c0.1-1.4,0.1-3.2,1.7-4.3c0.3-0.2,0.2-1.1,0.2-1.7c-0.3-2.4-0.5-4.6,0.6-7
		c0.8-1.7,1.9-3.6,0.7-5.3c0.5-1.2,1.1-2.1,1.2-3.1c0.4-2.3,0.6-4.7,0.9-7c0.1-0.5,0.3-1.1,0-1.4c-0.7-1-0.4-2-0.3-3
		c0.2-1.9,0.4-3.7,0.7-5.6c0.1-0.8,0.6-1.3,1.5-0.9c0.7,0.5-0.2,1.9,1.3,2.1c-0.3-1.2-0.5-2.3-0.7-3.3c-0.2-1.3,0.6-2,1.8-2.6
		c0.2,0.6,0.3,1,0.4,1.5c0.3,0.8,0.5,1.7,0.9,2.4c0.5,0.8,1.2,0.9,2,0.2c0.8-0.8,1.6-1.5,2.4-2.3c-0.1,1.2-0.9,2.2,0,3.2
		c1.6-0.1,3.1-0.5,4.5-0.2c1.7,0.4,2.9,0.1,4.1-1.1c0.2-0.2,0.6-0.1,1-0.2c0.2,0.7,0.4,1.3,0.6,2c2.8-0.1,5.7,0.6,8-2.2
		c0.3,0.8,0.3,1.4,0.6,1.6c1.5,1.1,3,2,4.5,3c0.2,0.1,0.6,0,0.9,0c2.5-0.1,4.9-0.2,7.4-0.2c0.5,0,1.3,0,1.6,0.3
		c1.2,1.3,2.8,1.1,4.2,1.6c1.3,0.4,2.9,0.1,4.1,1.2c0.2,0.2,1,0,1.2-0.3c0.2-0.3,0.3-0.9,0.1-1.3c-0.2-0.5-0.6-1-1.1-1.6
		c0.6-0.2,1-0.3,1.4-0.4c1.4-0.3,2.7-1.1,3.1-2.4c0.6-1.8,0.8-3.8,1.2-5.8c0.1-0.6,0.2-1.2,0.3-1.9c0.1-1.1-0.3-1.8-1.5-2
		c-0.9-0.1-1.7-0.3-2.5-0.5c-0.9-2.6-1-2.7-3.7-2.4c-1.8,0.2-3.6,0.3-5.4,0.5c-0.8,0.1-1.7-0.9-1.7-2c0-1.3,0.9-1,1.7-0.9
		c0.1,0,0.2-0.2,0.3-0.3c0.2-2.2-0.9-3.5-3-3.5c-1.3,0-2.6,0.1-3.7-0.2c-0.7-0.2-1.3-0.7-2.2-0.5c-0.3,0.1-0.9-0.1-1.1-0.3
		c-0.9-1-1.9-1.2-3.2-0.9c-0.6,0.1-1.3-0.4-2-0.6c-0.4-0.1-0.9-0.1-1.3-0.1c-0.1,0-0.2,0.4-0.3,0.6c0.5,0.4,1,0.7,1.5,1.1
		c-0.3,1-0.7,1.7-1.2,1.8c-2.1-1.4-1.1-4.4-3.8-5.1c-1.6,2.2-2.9,0.5-4.3-0.6c-0.7,0.8-1.3,1.5-1.9,2.3c-0.9-0.9-1.7-1.1-2.8-0.7
		c-1.4,0.4-2.6,1-3.7,1.9c-0.8,0.7-1.6,1.3-2.4,1.9c-0.6,0.5-1.1,0.5-1.5-0.5c0.4-0.6,0.9-1.2,1.4-1.7c-0.6-1-1.3-1.4-2.3-0.9
		c-1.9,1.1-3.9,0.4-5.9,0.5c-0.6,0-1.4-0.3-1.7-0.7c-1.1-1.4-2.5-1.1-3.9-0.9c-0.8,0.1-1.8,0.2-2.5-0.2c-2-1.1-3.5-0.3-4.9,1
		c-0.3,0.3-0.7,0.3-1.5,0.7c0.6-0.9,0.9-1.4,1.2-1.9c-1.7-1.2-2.6,0-3.4,0.8c-0.9-0.2-1.6-0.3-2.3-0.4c-2.5-0.2-5.1-0.2-7.6-0.7
		c-2.3-0.6-4-0.7-5.5,1.6c-0.6,1-1.6,0.7-2.2-0.5c-0.3-0.6-0.4-1.3-0.7-2.1c-1,0.2-2,0.4-2.9,0.7c-1.3,0.4-1.5,0.9-1.2,2.3
		c0.1,0.5,0.1,1.1,0.1,1.6c0.2,2.8,0.2,5.6,0.8,8.3c0.3,1.4,1.4,3.1,2.6,3.7c1.9,0.9,2.9,3,5.1,3.2c0.6,1.3,1.9,1.3,3,1.4
		c0.3,0.7,0.6,1.2,0.9,1.8c0.6-0.1,1-0.2,1.5-0.2c2.5-0.2,5.1-0.5,7.5,0.8c0.4,0.2,0.6,0.6,0.9,0.9c-0.4,0.2-0.8,0.5-1.4,0.9
		c0.6,0.6,1.2,1,1.7,1.6c0.4,0.5,1.1,1.3,1,1.8c-0.4,1.7-1.1,3.4-1.8,5.5c-1-1.5-2.1-1.8-3.2-0.9c-0.4,0.3-0.6,1.2-0.5,1.7
		c0.4,1.6,1.8,0.7,3,1c-0.6,1.5,1.4,2.7,0.3,4.3c-0.7,0-1.4,0-2.1,0c-0.8,1.4-1.6,2.7-2.5,4.1c-0.5,0.1-1.2,0.3-2,0.5
		c0.2,0.6,0.3,1,0.4,1.4c0.1,0.4,0.4,0.8,0.3,1.3c-0.1,1.5-0.3,3-0.4,4.5c-0.1,1.3,0,2.7,0,3.9c-0.7-0.5-1.2-0.9-1.7-1.3
		c-0.5,1.2-1,2.1-1.5,3.2c0.2,1.5,0.4,3.3,0.6,5.4c-0.6,0.9-1.4,2.1-2.3,3.6c0.3,0.8,0.8,1.8,1.1,2.7c-0.5,1-2.1,1.2-1.1,2.6
		c0.6-0.1,1.3-0.2,2.5-0.5c-0.6,1-0.8,1.9-1.3,2.1c-1.1,0.5-2.3,0.7-3.4,1c-2,1.7-1.9,4.1-2.3,5.8c0.1,2.7,2.3,1.7,3.4,2.8
		c-0.9,0.6-1.8,1-2.5,1.5c-0.9,0.7-0.8,1.6-0.5,2.5c1,0.1,1.8,0.2,2.4,0.3c0.4,1.1,0.6,2.1,1.2,2.7c0.5,0.6,0.5,1.2,0.7,1.8
		c0.6,2,1.5,3.9,2.3,5.9c0.1,0.2,0.5,0.4,0.8,0.4c1.3,0.2,1.7,1,1.6,2.2c-0.1,1.1,0.8,1.5,1.6,1.4c1.1-0.1,2.7-0.2,3.3-0.9
		c1.5-1.8,4-3.2,3.4-6.2c-0.1-0.3,0-0.9,0.3-1.1C228.6,176.4,228.1,175.4,227.9,174.2z M78.2,191c0.6,2.2,0.6,2.2,3,2.2
		c0.2,0,0.3,0,0.5,0.1c1.2,0.7,1.9,0,2.5-0.8c0.5,0.3,0.9,0.5,1.5,0.8c1.4-3.2,3.4-0.6,5.1-0.7c1.5-1.1,3.1-2.2,4.6-3.3
		c0.4-0.3,0.9-1.1,1.2-1c1.7,0.2,2.6-1.3,3.8-1.8c0-2.6,0-2.6,1.7-4.8c0.8,0,1.1,1.5,2.3,0.7c-0.1-0.7-0.1-1.4-0.2-2.1
		c1-0.6,2.3,0.4,2.9-1.2c-0.4-0.3-0.9-0.7-1.2-0.9c0-1.6,0.7-2.7,1.7-3.7c0.4-0.5,1-1.3,0.8-1.8c-0.3-1-0.2-1.6,0.6-2.3
		c0.3-0.3,0.5-0.8,0.5-1.3c0.1-1.9,0.2-3.8,0.1-5.7c-0.1-1,0-1.7,0.6-2.4c1.6-1.9,1.4-3.7,0.1-5.7c-0.4-0.5-0.4-1.3-0.5-2
		c-0.1-0.6,0-1.2,0-1.8c-1-0.2-1.7-0.4-2.5-0.5c-0.2-1-0.3-2-0.5-2.9c-0.9-2.7-3.9-3.9-4.5-6.8c-0.1-0.2-0.5-0.3-0.7-0.6
		c-0.3-0.3-0.6-0.6-0.7-0.9c-0.6-2.2-2.3-3.1-4.2-3.8c-0.2-0.1-0.4-0.2-0.6-0.3c0.3-0.8,0.5-1.3,0.6-1.4c-0.9-1.7-1.5-3-2.2-4.3
		c-0.3-0.5-0.8-1-1.3-1.3c-1.1-0.5-1.9-1.1-2-2.4c0-0.4-0.4-0.9-0.7-1.2c-0.7-0.6-1.1-1.3-0.9-2.3c0.1-0.4-0.1-1-0.3-1.4
		c-1.7-2.6-1.6-5.6-1.4-8.5c0.1-1.5,0.6-3.2,1.3-4.5c0.7-1.3,1.9-2.2,3-3.4c1.3,0.3,2.5,0.2,3.6-0.9c0.6-0.6,1.6-1.1,2.4-0.9
		c2.3,0.4,3.5-0.9,4.5-2.6c3.5,1.2,4.1,1,6.1-2c0.9,0,1.9,0.3,2.6-0.1c1.2-0.7,2.7-1.2,3.1-2.9c0.1-0.5,0.6-0.9,0.8-1.1
		c2.2,0.4,4.2,0.7,6.3,1c0.2-2.6,0.5-2.7,2.7-2.3c0.9,0.2,1.9,0.1,2.8,0c1.1-0.1,2.2-0.3,3.3-0.5c0.5-0.1,1-0.3,1.5-0.6
		c1.5-0.9,2.6-0.6,3.3,1.1c0.4,0.9,0.6,1.9,0.8,2.7c2.4-0.3,4.6-0.7,6.9-0.7c1.5,0,2.5-0.6,3.6-1.4c1.3-1,1.2-2.4,1.2-3.7
		c-0.1-1.2-1.2-1.5-2.3-1.6c-0.5-0.1-1.1-0.7-1.2-1.2c-0.3-1.5-1.2-2.6-2.4-3.5c-0.4-0.3-0.6-0.7-0.9-1.1c-0.5-0.8-1-1.6-1.5-2.3
		c-0.7-1-1.6-1.9-1.9-2.9c-0.4-1.2-1.2-1.6-2.2-1.6c-0.1-0.7-0.2-1.3-0.3-2.3c-1.5,0.7-2.8,0.5-4-0.2c-0.3-0.2-0.8-0.1-1.2,0.1
		c-2.1,1-4.1,1.5-6.3,0.1c-0.5,0.8-0.8,1.4-1.4,2.3c-0.9-0.3-2.1-0.4-2.5-1c-0.9-1.4-1.6-1.3-2.7-0.4c-0.5,0.4-1.1,0.7-1.5,0.9
		c-0.3,1,0.3,2.3-1.3,2.7c-2.2-2.6-3.7-0.2-5.2,0.9c-1.1-0.4-2.1-0.8-2.6-1c-1,0.8-1.5,1.5-2.1,1.6c-3.4,0.4-5.7,2.2-6.8,5.5
		c0,0.1-0.2,0.3-0.2,0.4c-1.1,1.9-1.3,1.9-3.5,1.3c1.5-0.8,1.5-0.8,1-2.4c-0.2-0.5-0.2-1.1-0.2-1.6c-0.1-1.4-0.7-2.2-1.7-2.2
		c-1.1,0-2,0.9-2,2.2c0,0.3,0,0.6,0.1,0.9c0.4,1.6-0.6,2.8-1.4,3.9c-0.3,0.4-1.4,0.6-1.6,0.4c-1.1-1.2-2.4-0.4-3.6-0.5
		c-0.6-0.6-1.1-1.2-1.9-2c-0.4,0.9-0.5,1.5-0.9,1.9c-0.4,0.4-1.1,0.6-1.7,0.9c-0.2,0.1-0.5,0.3-0.5,0.5c-0.6,1.9-2.4,2.4-4.1,3.3
		c-0.2,2.4-0.9,4.9-0.6,7.3c0.4,2.7-0.2,4.9-1.8,6.7c0.5,1,1.2,1.8,1.3,2.6c0.2,1.7,0.1,3.4,0.1,5.2c1.1,0.3,2.1,0.6,1.8,2
		c-0.1,0.3,0,0.7,0.2,0.9c1.3,1.5,2,3.6,4.2,4.3c0.9,0.3,1.3,1,1.1,2.1c-0.8,3.5,0.6,6.2,3.2,8.5c0.5,0.4,0.9,1.2,0.9,1.8
		c-0.2,2.3,1,4.1,2.5,5.5c2.3,2.3,4,5,5.8,7.7c0.5,0.8,1.1,1,1.9,1.2c0.1,0,0.2,0.2,0.3,0.3c-0.2,0.7-0.4,1.3-0.5,2.1
		c0.5,0.3,1,0.5,1.3,0.8c0.3,0.3,0.5,1.1,0.4,1.2c-1.1,0.8-1,2.3-1.9,3.1c-0.9,0.8-1.2,1.7-1.2,2.7c-0.1,1.6-1,2.8-1.8,4.1
		c-0.8,1.2-1.5,2.5-2.4,3.9c-0.2,0.1-1,0-1.3,0.3c-1.9,1.7-3.7,3.6-5.6,5.3c-1.3,1.2-1.8,1.2-3.3,0.1c-0.7-0.5-1.3-0.5-1.9-0.1
		c-0.4,0.2-0.8,0.5-1.2,0.8c-1.1-1.3-2.1-1.2-3.3-0.2c-1.1,0.9-2.7,1.1-3.7,0.1c-1-1-1.8-0.8-3-0.6c-2.2,0.4-4.3,0.4-5.7-1.8
		c-0.5-0.8-1.2-1-2.1-0.8c-0.8,0.2-1.4,0.3-2-0.3c-1.8-1.8-3.7-3.6-5.1-5c-1.9-0.8-3.3-1.4-4.7-2c-2.4-1-2.5-1-2-3.6
		c0.3-1.7-0.3-2.5-2.1-2.6c-0.3,0-0.6-0.1-1.2-0.2c0.6-1.3,1.2-2.3,1.8-3.5c-2.2-1.6-3.8,0.3-5.5,1.1c-0.4-0.6-0.7-1.1-1-1.7
		c-1.8,1.3-1.2,2.9-1.3,4.5c0.8,0.2,1.5,0.3,2.2,0.5c0.4,2.1,0.7,4.1,1.1,6.1c0.6,0,1.2,0.1,1.8,0.1c0.2,0.7,0.5,1.4,0.6,2.1
		c0.2,0.8,0.3,1.5,0.4,2.3c1.1,0.6,2.4,1,3,1.9c0.6,0.9,0.4,2.3,0.5,3.5c1.1,0.2,2.1-0.9,2.9,0.4c-0.4,0.7-0.8,1.5-1.3,2.2
		c0.1,0.1,0.3,0.3,0.4,0.4c0.5-0.2,1.1-0.5,1.6-0.6c1.2-0.2,2.3-0.5,3.4,0.4c1,0.9,1.1,1.7,0.6,2.9c-0.4,0.8,0.6,1.6,1.6,1.4
		c0.6-0.1,1.2-0.4,1.9-0.6c0.8,3.1,3.1,3.8,6.2,3.5c-1.9,2.5,0.3,3.2,1,4.2c0.9-0.7,1.7-1.4,2.6-2c0.4-0.3,1-0.2,1.5-0.3
		c0,0.5,0.3,1.1,0.1,1.5c-0.4,0.8-1.2,1.6-0.3,2.3c0.5,0.4,1.6,0,2.4-0.2c1.8-0.6,1.8-0.6,3.1,1c0.2,0.3,0.6,0.5,0.9,0.7
		c0.7-0.3,1.2-0.5,2.1-0.9c0.2,1.2,0.3,2.1,0.5,3.2C76.8,191.5,77.4,191.3,78.2,191z M602.5,87.7c-0.7-0.7-1.3-1.2-2.3-0.4
		c-0.3,0.3-1.5,0.1-1.7-0.3c-0.7-1.1-1.4-0.9-2.5-0.8c-1,0.1-2-0.1-3-0.2c0,1.4,1.1,3.1-1.1,4.4c0-0.7,0-1.2-0.1-1.6
		c-0.2-0.5-0.5-1-0.9-1.2c-0.2-0.1-0.9,0.2-1.2,0.5c-0.6,0.6-1.1,1.3-1.6,1.9c0.2,0.7,0.4,1.3,0.6,2c-0.8,0.3-1.5,0.6-2.5,1
		c-0.1-1.1-0.1-1.9-0.2-2.8c-1.9,0.7-3.4,1.5-2.9,4c-1.9,0-3.5,0-4.8,0c-0.9,0.7-1.7,1.1-2.3,1.6c-0.4,0.3-1,0.9-0.9,1.2
		c0.6,1.6-0.5,2.3-1.5,3.2c-1,0.9-1.1,1.7-0.4,3c0.2,0.4,0.4,0.8,0.6,1.2c-1.3,1.4-1.6,2.9-1.4,4.6c0.2,1.6,0.2,3.2,0.2,4.7
		c0,0.7,0.1,1.4,0.2,2.2c0.9-0.2,1.4-0.3,2.2-0.5c0,0.6,0.1,1.1-0.1,1.5c-0.7,1.5-0.5,2.9,0,4.6c0.7,2.3,0.8,4.8,1.1,7.1
		c0.7,0.2,1.2,0.3,1.7,0.5c-0.1,1-0.2,1.9-0.2,2.7c0,0.8,0.2,1.5,1.1,1.7c1.5,0.2,1.6,1.2,1.8,2.4c0.3,1.8,0.4,3.7,1.8,5.1
		c0.1,0.1,0,0.3-0.1,0.5c-0.6-0.2-1.3-0.3-1.9-0.5c-0.2,0.3-0.5,0.5-0.5,0.7c0.5,2.2-0.1,4-1.5,5.7c-0.5,0.7-0.7,1.6-0.9,2.5
		c-0.3,1.8-1.4,3-2.5,4.3c-0.9,1-1.9,1.6-3.3,0.8c-0.8-0.4-1.8-0.6-2.4,0.6c2.3,0.2,2.3,0.2,2.6,1.9c-1.3,0.1-2.4,0.5-3.1,1.8
		c-0.4,0.7-1.3,1.1-2,1.6c-1.8-1.3-3.5-2.3-5.6-1.6c-0.3,0.1-0.9-0.2-1.3-0.5c-0.6-0.3-1.2-0.7-1.8-1.2c-1-0.8-2-1.6-3.2-2.6
		c-1.1,0.3-2.2,0.1-3.3-1.3c-1.3-1.6-2.8-3.4-5.3-3.4c-0.1,0.2-0.3,0.5-0.4,0.7c-1.1,1.5-1.9,3.1-1.4,5.1c0.1,0.5-0.2,1.1-0.2,1.6
		c-0.1,1.8-0.4,3.6,0.9,5.2c0.9,1.1,1.1,2.4,1,3.8c-0.1,1.7,0,3.4,0,5.2c0.9-0.3,1.7-0.5,2.5-0.7c1.5,2,1.8,5.1,5.2,4.9
		c1.1-0.7,0.5-2.4,2.3-2.8c-0.7,2.1,1.5,3.4,0.9,5.5c-0.1,0.3,1.1,1.3,1.9,1.5c0.4,0.1,1.4-0.4,1.7-0.9c0.7-1.3,1.2-2.7,2-4.4
		c0.3,0.7,0.6,1,0.5,1.3c-0.1,1-0.4,2-0.6,3c-0.1,0.4-0.3,1.1-0.1,1.3c0.9,1,1.5,2.5,3.4,2.3c0.6-0.1,1.3,0.4,1.8,0.8
		c1.4,1.2,2,1.1,2.8-0.6c0.4-0.8,0.7-1.5,1-2.4c1.2,0.9,2.3,1.5,3.5,0.1c-0.4-0.6-0.7-1.2-1.2-1.9c0.5-0.2,0.8-0.4,1.5-0.7
		c-0.3,2.1,1.2,2.6,2.2,3.6c0.9,0.9,1.9,1,2.8,0.3c1.8-1.5,5.2-1.8,4.6-5.4c0-0.1,0-0.2,0.1-0.2c1-0.9,0.7-1.9-0.3-3
		c1,0.2,1.7,0.3,2.6,0.5c1.3-2.3,2.5-4.5,3.9-7c0.3-0.1,1-0.2,1.7-0.3c0.1-0.8,0-1.6,0.4-2.2c0.7-1.1,1.7-2,2.6-2.9
		c-0.4-0.6-0.7-1.1-1.1-1.6c0.8-0.6,1.5-1.1,2.2-1.7c-0.4-0.6-0.6-1.2-1-1.6c-1.5-1.5-1.4-3.2-0.5-4.9c0.9-1.7,0.8-3.3,0.7-5.1
		c-0.1-2.1-0.6-4.2-0.4-6.4c0.2-1.8,0.8-4.1-1.2-5.3c0.1-1.1,0.2-2.1,0.3-3.1c-0.6,0-0.9,0-1,0.1c-0.6,0.4-1.2,0.6-1.7-0.1
		c-0.5-0.7,0-1.1,0.4-1.7c0.4-0.6,0.8-1.5,0.6-2.2c-0.5-2.3-1.4-4.5-2-6.8c-0.4-1.5-0.8-2.9-0.8-4.4c0-1.3,0.1-2.6,1.5-3.5
		c1-0.7,1.9-1.7,2.7-2.7c1.8-2.2,1.8-2.2,4.3-0.9c0.1,0.1,0.3,0,0.4,0c1.1-0.5,2.2-1,3.3-1.6c-0.3-2.3,2.1-2.6,3.1-4.2
		c0.7,1.8-0.3,3.6,0.3,5.3c1.9,1.2,3.9,0.2,5.8,0.1c0.5,0,0.9-1,1.3-1.5c0.2-0.4,0.3-0.8,0.5-1.4c0.9,0.7,1.6,1.2,2.6,1.9
		c0.9-1.5,1.7-2.9,2.5-4.2c0.1,0,0.3,0.1,0.4,0.1c-0.1,1.1-0.1,2.2-0.2,3.4c2,1,3.6,0.3,4.7-0.4c1.7,0.3,3,0.9,4.1,0.8
		c1.2-0.1,2.2,0,3.3,0.4c0.1,0,0.3-0.1,0.4-0.1c0.1-0.4,0.2-0.9,0.4-1.4c0.8,0.2,1.6,0.3,2.3,0.4c1.2-1.5,1.6-3.2,1.8-4.9
		c0.3-2.6-0.4-3.5-2.8-4.4c-1.5-0.5-2.1-1.6-2-3.6c0.1-1.6-0.8-2.2-2.2-1.5c-0.5,0.2-0.9,0.5-1.5,0.8c-0.2-0.5-0.5-0.9-0.6-1.2
		c-0.3-1.6-0.8-3-2.5-3.8c-0.3-0.1-0.3-1.1-0.4-1.7c-0.8-0.3-2-0.3-2.5-0.9c-1-1.1-1.6-2.1-2.8-0.3c-0.1,0.1-0.5,0.2-0.7,0.1
		c-1.2-0.5-2,0.4-2.8,0.9c-1.9,1.3-3.3,1.2-5.1-0.2c-0.8-0.6-1.7-0.9-2.8-1.5c0.4,2,0.4,2-0.3,3C604.3,86,604.3,86,602.5,87.7z
		 M65.3,219.2c-0.8-0.8-1.4-1.3-2.6-0.7C63.5,219.1,63.9,220.1,65.3,219.2z"/>
	<path d="M257.4,215.3c1.1,1.4,1.1,1.4,2.6,0.5c1-0.6,2.1-1.2,3.2-1.6c1.5-0.5,3.1-0.9,4.4,0.6c0.8,0.9,1.7,0.5,2.7,0.3
		c2.9-0.7,2.9-0.6,4.8,1.8c0.4-0.6,0.7-1.2,1.1-1.9c0.7,0.2,1.5,0.3,2.3,0.5c2.2,0.5,2.2,0.5,3.5-1.3c3.1,0.2,6.2,0.4,9.4,0.5
		c0.4,0,1-0.1,1.3-0.4c1.4-1.3,2.6-0.9,3.8,0.2c0.2,0.2,0.5,0.3,0.4,0.3c1.6-0.1,2.8-0.2,4-0.3c0.5,0,1.3,0,1.6-0.3
		c1.4-1.6,3-0.4,4.5-0.6c0.4-0.1,0.9,0.6,1.3,0.9c4.9-2.2,9.3-1.6,13.4,2.2c0.9-1.2,1.5-2.2,2.3-3.2c1.6,0.5,3.1,0.2,4.7-0.2
		c3-0.7,6.2-0.5,9.3-0.5c0.9,0,1.8,0.6,2.8,1c1-1.1,2.2-1.8,3.9-1.8c0.7,0,1.4-0.3,1.8,0.6c0.1,0.3,0.7,0.4,1,0.5
		c1.6,0.1,3.2,0.2,4.8,0c1.1-0.1,2,0.1,3,0.4c1.5,0.5,3,0.5,4.8,0.7c-0.1,1.8,1.9,2,3.2,3.3c0.3-1.1,0.6-1.9,0.9-3.1
		c1.8,0.2,3.5,0.2,5.2,0.5c1.1,0.2,2,0.3,2.8-0.6c0.7-0.7,1.5-0.8,2.4-0.3c0.4,0.2,1,0.6,1.3,0.5c1.7-0.8,3.7-0.3,5.3-0.9
		c2.3-0.9,4.2-0.7,5.7,0.7c3.7-1,7.1-2.2,10.7-0.4c1.4,0.7,3.2,0.9,4.8,1.2c0.4,0.1,0.9-0.2,1.3-0.4c1.7-0.8,2.2-0.7,3.3,0.9
		c0.2,0.3,0.4,0.5,0.6,0.8c0.2,0,0.5,0.1,0.7,0.1c1.7,0.1,3.1-0.6,4.3-1.9c0.7-0.7,1.5-1,2.6-1c1.5-0.1,3.1-0.7,4.5-0.5
		c1.4,0.3,2.6,1.4,4,2.3c0.4-0.3,0.8-0.7,1.3-1.1c0.5,0.3,1,0.7,1.8,1.2c0.6-0.6,1.1-1.2,1.8-1.9c1.1,0.9,2.5,0.8,4.1,0.6
		c2-0.3,3.2,0.5,4,2.5c0.4,1,0.9,2,1.4,3c0,0,0.1,0,0.3,0.1c1.7-2.1-1.6-3.4-0.9-5.4c1.8,0.1,1.5,1.6,1.6,2.6
		c1.8,0.7,2.8-2.3,4.6-0.4c0.5-1,0.7-1.6,1-2.1c2.4-0.1,4.7-0.3,6.9-0.3c0.5,0,1.1,0.6,1.9,1.1c0.9-1,2.2-1.1,3.8-0.6
		c1,0.3,2.2,0.2,3.3,0c1.2-0.2,2,0,2.4,1.1c1.8-0.1,2.8-2.1,4.7-1.6c0.3,1-1.3,2.3,0.7,3c0.6-0.9,1.3-1.9,2-3
		c1.1,0.3,2.3,0.5,3.4,0.8c1.5-2.2,2.7-1.9,4.8-0.4c2.7-2.3,4.7-1.1,5.4,2.7c2-1.4,2.7-4,5.4-4.7c0,0.7,0.1,1.3,0.1,1.9
		c0,0.1,0.1,0.2,0.1,0.2c1.8,0.1,3.5,1.4,5.3,0.4c1.4-0.8,2.9-0.6,4.2-0.1c1.2,0.5,2.1,0.4,3.2,0.1c1.1-0.4,2.2-0.2,3.2,0.5
		c1.2,0.9,2.6,0.8,4.2,0.3c-0.4-0.6-0.7-1-1.1-1.4c2.1,0,4.1,0,6.1,0c0.4,0,0.8,0,1.2,0.1c1.4,0.6,2.7,0.6,4.2,0.1
		c0.5-0.2,1.4,0.1,1.9,0.5c0.6,0.5,1,1.2,1.4,1.9c0.4,0.8,1,1.5,1.8,1.1c0.5-0.2,0.6-1.2,1-1.9c-0.5-0.3-0.7-0.5-0.9-0.5
		c-0.9-0.2-1.4-0.6-1-1.5c0.4-0.8,1.2-0.8,1.9-0.4c1.3,0.7,2.7,1.3,4.3,1.4c1.2,0.1,1.8-0.3,2.1-1.4c0.3-0.9,0.7-1.7,1.1-2.7
		c1.9,1.9,1.9,1.9,4.5,1.5c1.1-0.2,1.9-0.2,2.3,1.2c1.4-0.8,2.7-1.6,4.1-2.4c1.8,2.7,4.4,1.3,6.7,1.3c0.7,0,1.3-0.3,2.5-0.7
		c-0.4,1.2-0.7,2-1.1,3.3c1.9-1.1,3.4-2,5.2-3c0-0.5-0.9-1.8,1-2.2c0.8,0.9,1.6,2.2,3.1,1.9c1.2-0.2,2.3-0.5,3.9-0.9
		c-0.3,1-0.4,1.6-0.7,2.4c0.8,0,1.6,0.3,2.1,0c1.7-1,3.5-0.9,5.3-1.2c1.2-0.2,2.5-0.1,3.9-0.2c1.2,3,3.5,0.2,5.4,0.9
		c0.1,0.4,0.2,0.9,0.4,1.6c1.6-1.7,3.6-0.9,5.4-1.3c0.8-0.2,1.7-0.1,2.6-0.1c0.8-0.1,1.5-0.3,2.3-0.5c-0.1,0.7-0.1,1.4-0.3,2.6
		c0.9-0.5,1.2-0.7,1.6-0.9c0.6-0.3,1.3-0.8,2-0.8c1.9,0.1,3.9,0.5,5.8-0.2c0.2-0.1,0.8,0.2,1,0.5c0.6,1.5,1.9,1.2,3.1,1.1
		c1.6-0.1,3.2-0.3,4.7-0.4c0.4,0.9,0.6,1.6,1,2.5c1.4-0.8,2.5-1.4,3.9-2.2c-0.1,1.1-0.2,1.9-0.4,3.3c1.4-1.7,2.8-2.5,4.7-2.1
		c0.4,1.7,1.1,3.3,0.8,5.2c-0.3,1.4,1.2,1.5,2,2.2c-0.3,1.6,0,3.2,1.2,4.7c0.9,1.2,0.8,3,1.7,4.4c0.1,0.2-0.1,0.8-0.3,1.1
		c-0.4,0.7-0.9,1.3-1.4,1.9c-1.3,1.6-2,1.7-3.6,0.6c-0.3-0.2-0.6-0.5-1-0.7c-1.8-0.9-3.3-0.1-3.7,1.8c-0.3,2.1-1.5,3.1-3.5,3.2
		c-2,0.1-2.4-0.4-2.1-2.3c0.3-1.9,0.3-1.9-2-3.1c-0.6-2.9-0.6-2.9-2.7-2.4c1.7,2-0.7,3.2-0.9,4.8c0,0.2-0.6,0.4-0.8,0.4
		c-1.2-0.5-1.9,0.3-2.4,0.8c-1.4-0.2-2.6-0.3-3.8-0.7c-0.9-0.2-1.6-0.8-2.7-1.3c-0.3,0.1-0.8,0.4-1.3,0.7c-1.5-0.4-1.4-1.6-1.5-2.6
		c-1-0.6-1.8-1.2-2.8-1.9c-0.7,1.6-2.2,2.1-3.6,1.6c-1.3-0.5-2.3-1.6-3.5-2.4c-3,1.2-3.2,1.6-5.2-0.9c-0.3,0.7-0.6,1.3-0.9,1.9
		c-1.1,2.7-2.1,3.3-4.9,3c-0.9-0.1-1.7-0.3-2.9-0.4c0.2-0.8,0.3-1.5,0.4-2.1c0.4-1.7-0.2-2.6-1.9-2.7c-0.4,0-0.8,0.1-1.2,0.2
		c-1.8,0.5-2,1.3-0.9,2.7c0.5,0.6,1.1,1.4,1.3,2.2c0.3,1.2-0.3,1.6-1.6,1.5c-1-0.1-2,0-3,0.1c-1.5,0.1-3,0.4-4.5,0.4
		c-0.4,0-1.1-0.7-1.2-1.1c-0.3-1.5-0.8-2.4-2.7-2.1c-1.1,0.1-2.2-0.9-3.6-1.5c0,0.8,0,1.5,0,2.3c-0.3,0.2-0.7,0.5-1,0.5
		c-1.6,0.1-3,0.6-4.5,0.9c-1.4,0.3-3.1-0.4-4.7-0.7c-0.5-0.1-0.9-0.2-1.5-0.3c-0.1-0.2-0.2-0.5-0.4-0.8c-0.3-0.5-0.7-1.3-1-1.3
		c-0.6,0-1.7,0.4-1.8,0.8c-0.5,1.7-1.9,1.4-3.2,1.8c-0.1-1-0.2-1.7-0.4-2.8c-2.3,0.8-4.4,2.9-7.2,1.6c-0.2-0.6-0.4-1.2-0.6-2.2
		c-1,0.1-2.1,0.2-3.2,0.3c-0.5,0.1-1.1,0.3-1.6,0.3c-1.1,0-2,0.3-2.5,1.4c-0.1,0.3-0.4,0.5-0.6,0.7c-1.6,1.8-1.8,1.8-3.4-0.1
		c-2.2,1.9-4,2-5.4,0c0.6-0.3,1.1-0.7,2-1.2c-0.5-0.4-0.9-0.8-1.3-0.9c-1-0.1-1.8,0.2-2.5,1c-1.9,2.1-4.6,2-7,2
		c-0.6,0-1.2-1.2-2.1-2.1c-0.9,0.9-2,1.9-3.1,3c-0.2-0.1-0.6-0.2-0.9-0.4c-2.2-1.5-5.2-0.4-7,1.3c-1.4,1.3-2,1.4-3.1-0.2
		c-0.4-0.6-0.8-1.3-1.2-2c-1.8,0.3-0.4,1.5-0.8,2.2c-1.4,0.2-2.6,0.4-3.7-0.8c-0.6-0.7-1.4-0.2-2,0.4c-1.5,1.5-2.1,1.3-3.1-0.7
		c-0.1-0.1-0.2-0.2-0.4-0.5c-1.9,0-3.9,1.4-5.9,0c-2.1,0.6-3.8-0.2-5.3-1.9c-0.7,0.9-1.2,1.6-1.8,2.4c-1.1,1.3-2.3,1.4-3.4,0.1
		c-0.8-1-1.7-1.3-3-1.1c-0.5,0.6-1,1.3-1.7,2.2c-0.6-0.9-1-1.6-1.5-2.2c-0.9,0-1.3,0.6-1.3,1.4c-0.1,1.1-0.7,1.6-1.7,1.7
		c-2,0.3-4.1,0.5-6.1,0.8c-0.4,0-0.8,0-1.2,0.1c-1.6,0.7-2.9,0.5-3.8-1.4c-1.2,0.6-2.2,1.2-3.2,1.8c-0.1,0-0.3,0-0.4-0.1
		c-2-1.7-2-1.7-4.3,0c-0.5,0.4-1.3,0.5-2,0.4c-2.1-0.1-4.1-0.4-6.2-0.5c-0.8,0-1.6,0.1-2.3,0.4c-1.6,0.7-2.9,0.7-4.1-0.7
		c-0.5-0.7-1.4-1.1-2-1.6c-1.2,0.1-2.3,0.2-3.6,0.3c0.1-0.9,0.1-1.6,0.1-2.6c-1.3,0.9-2.2,1.7-3.2,2.2c-1,0.5-2.1,0.6-3.1,0.9
		c-1.2-1.7-2.3-3.3-3.5-5c-1,1.3-0.5,3.8-3,3.4c-1.4-0.2-1.7-0.6-2.5-3.3c-1.5,0.3-1,1.8-1.6,2.6c-2.1,0.6-2.1,0.6-3-1.3
		c-0.3-0.7-2.3-2.1-3-2c-0.4,0.1-0.7,0.5-1,0.9c-0.6,0.8-1,1.7-1.7,2.8c-0.7-0.6-1.1-1-1.7-1.6c-1,1-2,1.9-3.1,3
		c-1.1,0.1-2.4,0.1-3.8,0.2c-0.2-0.4-0.5-0.9-0.9-1.5c-0.3,0.1-0.6,0.2-0.7,0.3c-0.7,1.5-1.8,1.8-3.3,1.5c-2-0.4-4.1-0.7-6.1-0.9
		c-1.2-0.1-2.5,0-4.1,0c0,0-0.3-0.3-0.5-0.6c-1.1-1.9-2.8-2.1-4.2-0.4c-0.3,0.4-0.4,1-0.7,1.2c-0.8,0.6-1.4,1.6-2.7,1.1
		c-1.2-0.5-1.8-1.2-1.6-2.6c0.3-1.9-0.7-2.8-2.1-3.6c-0.7-0.4-1.4-0.3-1.8,0.5c-0.3,0.6-0.9,1.2-1.1,1.8c-0.3,1.2-0.8,2-2.2,2.2
		c-1.1,0.1-2,0.5-3.1-0.5c-0.7-0.6-2-0.8-2.9-0.7c-0.8,0.1-1.4,1-2.3,1.7c-0.9-0.5-1.8-0.7-3.2-0.4c-2,0.5-4.2,0.1-6.4,0.1
		c-1.2,0-2.4-0.1-3.4-0.2c-1.2-1.3-2.4-2.6-3.8-4c-2.2-0.1-2.7,0.7-2.3,5c-2.4-0.3-5,0.1-6.1-3.3c-1,1-1.8,1.5-2.2,2.3
		c-0.7,1.2-1.7,1.4-2.9,1.2c-1.2-0.3-2.1-0.4-3,0.7c-0.5,0.7-1.3,0.5-1.9-0.2c-0.3-0.3-0.5-0.6-0.9-1.1c-2.2,1.4-3.9,0-5.6-1.4
		c-0.9,1.3-1.6,3-3.4,2.4c-1.3-0.5-2.3-1.5-3.9-2.5c-2.8,0.2-6.1,0.4-9.6,0.6c0.3-1,0.6-1.8,0.8-2.5c-0.1-0.1-0.2-0.2-0.4-0.3
		c-1.3,2-3.9,2-5.3,3.8c-1.7-0.9-2.6-2-2.5-3.8c-1.3,0-2.5,0-3.8,0c-0.4,0.7-0.9,1.4-1.4,2.1c-0.7,0-1.4,0-2.3,0
		c-0.2,0.9-0.5,1.9-0.7,2.8c-2.4,0.2-2.4,0.2-2.5-3.6c-1.4,0.1-2.7,0.3-4.2,0.4c-0.6,1.1-1.3,2.2-2.1,3.4c-0.8,0-1.6,0-2.3,0
		c-1-1.6-0.8-3.1,0.5-4.4c-1.5-0.8-1.6,0.8-2.4,1.1c-0.8,0.3-1.6,0.7-2.5,1.1c0,0.6,0,1.3,0,2.1c-2.2,0.5-4.4,1.4-6.2-1.3
		c-0.2,1-0.3,1.5-0.4,2.3c-1.9-0.2-3.7-0.3-5.6-0.5c-1-0.1-1.9-0.2-2.9-0.2c-2.8,0.1-3.6-0.7-2.9-3.5c0.1-0.2,0-0.5-0.1-0.7
		c-0.8,0.4-1.6,0.8-2.6,1.2c0,1.3,0,2.8,0,4.3c-1.9,0.2-3.5,0.4-4.8-1.3c-0.8-1-2-1.5-3.4-1.3c-0.5,0.1-1.1-0.2-1.6-0.1
		c-0.5,0-1.4,0.1-1.5,0.4c-0.9,2.2-2.6,2-4.6,1.7c-0.2-0.5-0.5-1-0.9-1.7c-1,0.1-2.1,0-3,0.4c-0.9,0.4-1.6,1.3-2.2,2.3
		c-1.3,0.4-2.6,0.8-3.9,1.1c-0.9,0.1-1.9,0-2.8-0.1c-1.2-0.2-0.9-1.3-1.2-2.1c0-0.1-0.2-0.2-0.4-0.4c-1.5,0.2-2.9,1.4-4.7,1.1
		c-0.5-0.1-1.2,1-1.8,1.4c-1.2,0.9-1.6,0.7-2.5-0.9c-1.8,2.5-4.4,1.3-6.7,1.5c-0.1,0-0.2,0-0.2-0.1c-0.6-0.5-1.1-1.2-1.8-1.3
		c-0.5-0.1-1,0.8-1.6,1.1c-0.6,0.2-1.3,0.4-1.9,0.2c-1.5-0.6-2.8,0.2-4.1,0.4c-2.1,0.3-4.2,0.6-6.3,0.8c-0.2,0-0.5,0-0.7-0.1
		c-2.2-1.4-4.5-0.3-6.8-0.6c-0.2,0-0.5-0.1-0.7,0.1c-1.3,0.9-2.4,0.3-3.5-0.6c-1.5,1.5-3.1,2.4-5.1,2.2c-1.1-0.1-2-0.3-2.5-1.5
		c-0.4-1-1.2-1.3-2.4-0.9c-1,0.4-2.2,0.4-3.2,0.8c-1.4,0.4-2-0.7-3-1.5c-0.7,0.9-1.3,1.6-1.6,2.1c-1.7-0.2-3.1-0.3-4.4-0.6
		c-0.7-0.2-1.4-0.6-2.3-1c-1,1.5-2.7,0.9-4.2,0.8c-1.5-0.1-3-0.8-4.3-1.2c-0.6-0.9-1.1-1.7-1.7-2.5c-2,1.4-3.9,2.7-6.4,2
		c0-0.6,0.1-1.1,0.1-1.7c-0.3,0.1-0.6,0.1-0.8,0.2c-0.3,0.3-0.7,0.7-0.8,1.1c-0.4,1.1-1.2,1.3-2.3,1.3c-0.9-0.1-1.9,0.2-2.8,0.1
		c-0.9-0.1-1.7-0.6-2.6-0.9c0.1-0.6,0.1-1,0.2-1.3c0-0.3,0.1-0.6,0.1-0.8c-0.3-0.1-0.5-0.2-0.6-0.1c-2,1.6-4.1,2.2-6.7,1.4
		c-1.3-0.4-2.8,0-4.2-0.7c-0.6-0.3-1.7,0.5-2.8,1c-0.3-0.2-0.9-0.6-1.4-1.1c0.2-1,1.4-1.9,0.1-2.7c-0.9,0.8-1.6,1.7-2.5,2.3
		c-1.2,0.8-2.4,1.1-3.7-0.3c-0.5-0.5-1.4-0.9-2.1-1c-1.7-0.2-2.8-1.1-3.5-2.6c-0.2-0.5-1-0.8-1.6-1.1c-0.2-0.1-0.6,0-0.9,0
		c-2.8,0.9-5.2,0.2-7.4-1.8c0-0.6,0-1.3,0-2c-0.4-0.1-0.7-0.1-1-0.2c-2.4-0.4-2.7-0.7-2.4-3.1c0.1-1.1,0.1-2.2,0.3-3.3
		c0.2-0.8,0.6-1.6,1-2.6c1.4,1.3,3.7,0.5,4,2.7c1.3,0.3,2-0.2,2.6-1.1c0.4-0.5,0.9-1,1.1-1.5c0.7-1.5,1.8-2,3.7-1.1
		c-0.4-0.9-0.6-1.5-0.9-2.3c0.8-0.2,1.4-0.4,2.1-0.5c1-0.1,2.1-0.1,3.1-0.2c1,0,2-0.1,2.5,1.2c0.1,0.4,1,0.7,1.6,0.7
		c1.9,0.1,3.8,0,5.8,0c0.2-0.7,0.3-1.1,0.4-1.5c0.2-0.8,0.8-1.1,1.5-0.8c1.2,0.4,2.3,0.5,3.5,0.1c0.3-0.1,0.9,0,1.1,0.2
		c1.8,1.6,3.5,1,5.3,0.1c1,0.6,1.3,1.2,0.7,2.2c-0.4,0.8-0.6,1.6-0.8,2.5c-0.2,1,0.3,1.7,1.4,2c1.3-1.4,3-1.8,4.9-1.9
		c0.9,0,1.8-0.6,2.6-1.1c1.7-1,2.5-1,4,0.2c1.4,1,2.7,1.9,4.6,1.1c0.9-0.4,2-0.2,3.2-0.3c0.1,0.7,0.1,1.2,0.2,1.7
		c0.2,0.5,0.5,0.8,0.8,1.3c0.5-0.3,1.2-0.6,1.4-1.1c0.3-0.5,0.1-1.2,0.2-1.7c1.7-0.6,3.2-1.1,4.7-1.6c1.8-0.7,3.6-0.5,5.4,0
		c1.1,0.3,2.3,0.4,3.5,0.5c0.4,0.1,0.8,0,1.2,0c1.3,0.1,2.6,0.2,2.6,2c1.3-0.2,2-0.9,1.9-2.3c2.3,1.4,4.7,1.5,7.1,1.4
		c1-0.1,2.5-0.8,3-1.6c1.1-1.8,2.3-1.2,3.7-0.8c1.1,0.3,2.3,0.7,3.7,1.1c0.1,0.2,0.4,0.7,0.9,1.6c0.9-0.2,1.9-0.3,2.8-0.8
		c0.6-0.3,1-1,1.5-1.5c1.2-1.1,1.7-1,2.5,0.5c0.1,0.3,0.3,0.5,0.6,1c0.5-0.6,0.8-1.1,1.1-1.5c1.3,0.1,2.5,0.1,3.6,0.2
		c1,0.1,1.8,0.5,2,1.7c0.1,0.6,0.5,1,1.1,2c1-1.9,1.8-3.3,2.6-4.9c3.6-0.1,7.2-1.8,11.3-0.7c0,0.3,0.1,0.7,0.1,1
		c0.2,1.1,1,1.2,1.5,0.6c1.1-1.3,2.5-1.4,3.9-0.8c1.1,0.4,1.6-0.2,2.2-0.9c1.2-1.4,4.1-1.3,5.1,0.2c0.6,0.9,1.3,1.2,2.2,0.6
		c0.9-0.7,0.8-1.5-0.1-2.1c-0.1-0.1-0.1-0.3-0.1-0.4c1.2-1.1,2.1-1,3.4,0c0.9,0.7,0.9,1-0.1,3c0.1,0.1,0.4,0.2,0.4,0.2
		c1.3-1.4,3.1-1.4,4.8-1.6c1.2-0.2,2.5-0.4,2.3-2.2c3-0.1,5.8-0.4,8.6,0.7c0.6,0.2,1.5,0,2.2-0.3c2.1-0.8,4.2-1.4,6.5-0.8
		c0,0.8-0.1,1.5-0.1,2.6c1.7-1.3,2.9-2.5,4.4-3.2c1.4-0.8,3.1-1,4.9-1.6c0.6,0.7,1.4,0.9,2.7,0.7c0.9-0.2,2.1,0.7,3,1.2
		c0.2,0.1,0.3,1,0.1,1.4c-0.3,0.5-0.9,0.8-1.5,1.4c3,0.1,4.2,1.1,4.9,3.9c0.3-0.6,0.6-1,0.6-1.4c0-0.5-0.2-1.1-0.2-1.7
		c-0.5-3.5,0.9-4.8,4.3-4.3c0.8,0.1,1.6,0.5,2.3,0.4C254.4,215.9,255.8,215.6,257.4,215.3z M302.4,232.7c-0.5-0.7,0.3-2.3-1.1-2.3
		c-1.2,0-1.4,1.3-1.8,2.2c0,0.1,0,0.2-0.1,0.2c-0.5,1.6,0.4,2.8,2,2.4c0.8-0.1,1.4-0.8,2.1-1.3c0.1-0.1,0.1-0.4,0.1-0.8
		C303.3,233.1,302.8,232.9,302.4,232.7z M512.4,216.4c-0.6,0.4-1,0.5-1,0.7c-0.1,0.9-0.4,2.1,0,2.8c0.4,0.8,1.6,1.1,2.4,1.6
		c0.1,0.1,0.6-0.3,0.7-0.5c0.1-0.3,0.1-1,0-1.1C512.9,219.5,512.8,218,512.4,216.4z M286.5,235c0.2-0.8,0.4-1.5-1-1.3
		c-0.8,0.1-1.6,0-2.5,0c-0.8,0-1.4,0.2-1,1.4C283.5,235,284.9,235,286.5,235z M286.7,216.6c-1.3,2.1-1.3,2.1-0.5,3.6
		C287.1,219.2,287.4,218.2,286.7,216.6z M236,219.5c-0.6,0.5-1.7,0.1-1.6,1.3c0,0.2,0.4,0.5,0.6,0.5
		C236,221.2,236.4,220.7,236,219.5z M188,238c1.3,0.8,1.3,0.8,2.4-0.2C189.5,237.9,188.9,237.9,188,238z M324,237.2
		c0.4-0.6,0.7-1.1,1-1.7c0,0-0.5-0.5-0.7-0.4C323.5,235.5,323.2,236.1,324,237.2z M254.8,236.1c0,0.3,0,0.5,0,0.8
		c0.5,0,0.9-0.1,1.3-0.2c0,0,0-0.4,0-0.6C255.7,236.1,255.2,236.1,254.8,236.1z M382.9,214.1c-0.3,0.6-0.5,1-0.6,1.3
		c0,0.2,0.1,0.4,0.2,0.7C383.2,215.7,383.7,215.3,382.9,214.1z M499.4,232.3c-0.1,1.4,0.3,1.7,1.6,1.3
		C500.4,233.2,500,232.8,499.4,232.3z M572.3,231.3c-0.3-0.2-0.4-0.3-0.6-0.3c0,0-0.2,0.3-0.2,0.4c0.1,0.2,0.2,0.3,0.3,0.5
		C571.9,231.6,572.1,231.5,572.3,231.3z M125.7,223.7c-0.2-0.3-0.4-0.4-0.5-0.6c-0.2,0.2-0.5,0.5-0.7,0.7c0.1,0.1,0.3,0.4,0.4,0.4
		C125.1,224.1,125.4,223.9,125.7,223.7z M425,215.6c-0.2,0.4-0.4,0.7-0.3,0.8c0.1,0.2,0.3,0.4,0.6,0.6c0.1,0,0.5-0.3,0.5-0.4
		C425.6,216.4,425.4,216.2,425,215.6z M600.3,216.3c-0.1-0.2-0.1-0.5-0.2-0.5c-0.2,0-0.4,0.1-0.6,0.1c0,0.1,0.1,0.4,0.1,0.4
		C599.8,216.4,600,216.3,600.3,216.3z M110.9,237.9c-0.2,0.3-0.4,0.5-0.5,0.8c0,0.1,0.2,0.3,0.4,0.5c0.2-0.2,0.5-0.5,0.7-0.7
		C111.4,238.3,111.2,238.2,110.9,237.9z"/>
	<path d="M509.5,76.7c-0.2,0.9-0.3,1.7-0.5,2.7c1.2,0.8,2.7,1.5,3.8,2.5c0.9,0.9,1.8,2.1,2.2,3.3c0.5,1.5,1.2,2.4,3,2.4
		c0,0.8,0,1.5,0,2.2c0,0.5,0,1.2,0.3,1.4c1.6,0.9,1.7,2.2,1.8,3.8c0,0.8,1,1.5,1.6,2.5c-1.2,1.8,0.3,3.9,0,6.1
		c-1.4,0.6-1.8,1.7-2.3,3.2c-0.9,2.5-1.7,4.9-2,7.5c-0.1,1-0.7,1.8-1.2,2.9c-2.7,1.4-5.1,3.2-7.4,5.8c0.7,1.4,0.5,2.4-1.1,3.4
		c-0.7,0.4-0.8,2-1.2,3.4c-0.7,0.3-1.6,0.8-2.7,1.4c-0.5-0.3-1-0.7-1.4-1.1c-0.2,0.1-0.2,0.1-0.3,0.2c-0.5,0.8-1,1.6-1.4,2.4
		c-2.4,0.2-4.6,0.6-6.1,2.8c-0.2,0.3-0.7,0.4-1.1,0.4c-0.9,0.1-1.9,0.1-2.8,0.2c-1.9-2.2-3.9-2.5-6.6-1c-1.4,0.8-2.9,1.4-4.5,0.3
		c-0.2-0.2-0.7-0.3-0.9-0.2c-1.3,0.5-2.2,0.3-3.1-0.8c-0.3-0.4-1.5-0.3-2.2-0.3c-0.7,0-1.3,0.2-2.2,0.4c0-0.9,0-1.5,0-2.1
		c-0.2-0.1-0.4-0.3-0.6-0.3c-2.2-0.5-3.9,0.4-5,2.3c-0.2,0.4-0.4,1-0.3,1.3c0.5,1.3,0,2.3-0.9,3.2c-0.6,0.6-0.9,1.2-0.7,2.1
		c0.1,0.5,0,1.2-0.3,1.6c-1.1,1.5-1.1,3.2-0.6,4.8c0.3,1.1,0.1,1.8-0.7,2.6c-1.2,1.1-1.5,2.6-1.8,4.3c-0.5,2.5,0,5.3-1.9,7.5
		c0.2,2-1.8,3.6-1.2,5.8c0.6,2.1-1.1,3.2-2.3,4.3c-0.3,0.3-0.8,0.5-1,0.7c0,1.8,0,3.4,0,5.3c-1.5-0.8-2.6-0.3-3.7,0.6
		c1.5,3.2-1.4,2.9-3,3.7c-0.1,0-0.3-0.1-0.4-0.2c-1-1.1-2.1-2.2-3.4-3c-2.6-1.7-2.7-3.5-0.8-6.1c-0.5-1.1-1.3-2-2.4-2.8
		c-0.7-0.5-1.2-1.4-1.5-2.3c-0.3-0.9,0.2-2.1-0.7-2.9c-0.1-0.1,0.2-0.7,0.3-1c0.2-1.2,0.3-2.5,0.5-3.8c-1.1-0.1-1.9-0.1-2.7-0.2
		c0.3-1.6,0.4-3.1,0.8-4.6c0.3-1,0.4-1.9,0.1-3c-0.2-0.6,0.3-1.5,0.7-2.1c0.7-0.8,1.6-1.5,2.4-2.2c-0.5-0.8-1-1.5-1.2-2.3
		c-0.3-1,0.4-1.6,0.9-2.3c0.4-0.7,0.6-1.6,0.8-2.5c0.2-1-0.2-2.2,0.9-3.1c0.3-0.3-0.1-1.5-0.1-2.2c3-0.8,4-2.3,3.7-5.4
		c-0.1-0.6-0.3-1.5,0-1.9c1.4-1.8,1.9-4.1,3-6.1c0.3-0.4,0.7-1.1,0.5-1.4c-0.6-1.5,0.1-2.6,1.1-3.5c-0.5-1.5-2.4-2.4-1.2-4.4
		c0.3,0.4,0.6,0.5,0.6,0.7c0.2,0.9,0.8,1.4,1.5,1.1c0.7-0.3,1.4-1,1.8-1.7c0.4-0.7-0.2-1.4-0.9-1.6c-0.9-0.2-0.9-0.9-1.2-1.6
		c-0.7-1.5-1.5-3-2.2-4.5c-0.2-0.5-0.3-1.1-0.5-2c1.2,0.4,1.9,0.7,2.9,1c-0.1-1-0.1-1.7-0.2-2.6c1.3,0,2.5,1.5,3.7-0.1
		c-1.3-0.9-0.5-2.3-0.7-3.5c-0.3-1.5,0.4-2.4,1-3.5c0.3-0.7,0.3-1.5,0.5-2.3c0.1-0.8,0.1-1.7,1.1-2c0.8-0.2,1.5-0.1,2,0.8
		c0.2,0.4,0.9,0.7,1.3,0.7c0.8,0.1,1.6-0.1,2.6-0.1c-0.4-3.8,3.7-5,4.5-8.4c0.9,0.6,1.6,1,2.4,1.5c1-1.2-0.3-2.1-0.2-3.2
		c0.1-1-0.1-2.1-0.3-3.4c0.8,0.1,1.6,0.1,2.4,0.4c1.8,0.7,1.8,0.7,3.1-0.8c0.2-0.3,0.6-0.5,1-0.7c1,0.7,0.8,3,3.2,2.2
		c-0.4-1.1-0.8-2.1-1.2-3.3c0.8-0.6,1.6-1.3,2.5-1.8c1-0.6,1.9-1,2.9,0.4c0.8,1.1,3.7,0.9,4.4-0.5c1-2.1,2.6-2,4.4-1.9
		c0.3,0.5,0.5,1.1,0.8,1.5c1.5,0,2.8,0,4.2,0c1.1-0.1,2.3-0.6,2.8,0.9c0.1,0.1,0.5,0.3,0.6,0.2c1.4-0.6,2.4,0.3,3.5,1
		c1.8,1,3.8,0.9,5.8,1C508.7,76.7,509,76.7,509.5,76.7z M483.1,92.5c-1.1,0.5-2.2,1-3.3,1.5c-0.6,0.2-1.2,0.4-1.8,0.4
		c-1.1-0.1-1.6,0.5-1.9,1.4c-0.4,1.4-1.2,2.4-2.4,3.2c-1.5,1-1.4,1.2-0.9,3c0.5,1.8,0.7,3.7,1,5.5c0,0.3-0.2,0.6-0.3,0.9
		c-0.5,1.4,0,2.4,1.4,2.6c2.2,0.3,4.4,0.6,6.5,0.6c1.4,0,2.6-0.1,3.5,1.4c1.1-0.9,2-1.8,3-2.6c0.5-0.4,1.2-1,1.6-0.8
		c2.4,0.6,4-1.7,6.4-1.2c-0.6-1.9,0.4-2.9,1.2-4.1c1-1.3,1.8-2.8,2.8-4.1C501,99,502,97.9,503,97c0.6-0.5,1.4-0.9,1-1.9
		c-0.5-1-2-1.8-2.8-1.2c-1.3,1-2.5,1.1-4,0.4c-0.6-0.3-1.4-0.2-2.1-0.2c-1.6,0-3.2,0-4.1-1.6c-2.6,1.5-2.9,2.3-4.7-0.4
		c-0.7,0.6-1.3,1.2-2.1,2C483.8,93.5,483.5,93.1,483.1,92.5z M469.1,110.3c0.1,0.1,0.2,0.2,0.3,0.4c0.4-0.1,0.9-0.1,1.3-0.2
		c1.2,1.5,1.2,1.5,2.5,0.8c-0.7-0.9-1.4-1.8-2.4-2.9C470.2,109.1,469.6,109.7,469.1,110.3z M490.4,78.6c1-2.3,0.9-2.9-0.4-4.1
		C488.9,76.8,489,77.6,490.4,78.6z M472.9,83.1c1-1.1,1.6-1.9,2.4-2.9c-1.6-0.2-2.7,0.3-3,1.3C472.2,81.9,472.6,82.3,472.9,83.1z
		 M466.8,130.9c0.4-1,0.6-1.6,0.9-2.1c0.2-0.5,1.4-0.4,0.7-1.4C466.3,128.7,466.1,129,466.8,130.9z M485.9,132
		c0.6-0.4,0.8-0.9,0.3-1.5c-0.1-0.1-0.5-0.1-0.6,0C485.2,131,485.2,131.6,485.9,132z M467.2,86.5c0.1,0.1,0.2,0.3,0.3,0.4
		c0.2-0.2,0.5-0.3,0.7-0.5c0,0-0.2-0.3-0.2-0.3C467.7,86.2,467.4,86.3,467.2,86.5z"/>
	<path d="M349.1,186.4c-1.7,0.2-3.5-0.3-5.1,0.7c-0.5,0.3-1.6-0.2-2.9-0.4c0.7-0.9,1.1-1.4,1.6-2.1c-2-0.2-3.8-0.4-5.8-0.6
		c-0.2,0.4-0.4,0.8-0.8,1.7c-1.5-1.7-3-3-4-4.7c-0.6-1-1.2-1.8-2.4-1.9c0-1.8,0-3.5,0-5.3c-1.7-0.9-3.5-1.9-3.6-4.4
		c0-0.3-0.2-0.6-0.4-0.8c-0.8-0.9-0.5-1.7,0.2-2.5c0.4-0.4,0.6-0.9,0.8-1.4c-2.4-1.1-4.5-2.2-5.6-4.6c-0.3-0.7-1.3-1.2-2-1.8
		c0.2-0.6,0.5-1,0.5-1.5c0.2-0.8,0.5-1.7,0.3-2.3c-0.8-1.9-0.7-3.8-0.8-5.7c-0.1-1.7,0-3.1,1.4-4.4c-1.1-1.1-0.8-2.1-0.1-3.2
		c0.6-0.8,0.7-1.9,1.2-2.8c0.3-0.6,0.9-1.5,1.3-1.5c1.7,0.2,2.6-1,3.8-1.7c1.2-0.8,2.2-1.7,3.4-2.6c1,0,2.2,1.3,3-0.1
		c0.3-0.6-0.3-1.7-0.6-3c-0.5,0.7-0.7,1.1-1.1,1.6c-0.2-0.6-0.6-1.1-0.5-1.4c0.6-1.4,0.3-2.6-0.6-3.6c-1.7-1.8-1.2-3.9-1.3-6
		c0-0.6,0.1-1.3,0.1-1.7c-0.9-0.9-1.7-1.6-2.5-2.4c2-2.4,0.7-4.8,0.8-7.3c0,0,0.2-0.3,0.4-0.3c2.3-0.3,3.9-1.8,5.8-2.9
		c1.8-1,3.7-1.7,6.2-1c-0.3-0.8-0.4-1.3-0.6-1.8c-0.7-1.8-0.5-2.5,1-3.7c0.6-0.4,1.1-0.9,1.6-1.5c0.9-1.1,1.9-1.6,3.3-1.5
		c1,0.1,3.3-0.9,3.9-1.7c0.6-0.8,1.2-1.2,2.2-1.1c0.4,0,0.9-0.2,1.3-0.4c0.3-0.2,0.6-0.4,1-0.6c0.9,1,1.7,2,2.6,2.9
		c0.2,0.2,0.6,0.2,1.2,0.3c-0.2-0.8-0.4-1.4-0.6-2.2c0.5-0.1,0.9-0.4,1.2-0.3c1.4,0.6,2.8,0.6,4.4,0.4c-0.2-0.7-0.3-1.4-0.5-2
		c0.2-0.1,0.5-0.2,0.7-0.2c2.6,0.5,4.7-0.5,6.5-2.2c1.1-1.1,2.3-1.9,3.8-1.2c1.3,0.6,2.3,1.6,2.2,3.3c-0.1,1,0.6,1.1,1.6,0.6
		c-0.3-0.6-0.5-1.2-0.8-1.9c0.7-1.4,1.9-1.4,3.4-1.3c0.2,0.9,0.4,1.7,0.6,2.3c2.9,0.8,5.6,1.5,8.5,2.4c-0.5,1-0.8,1.8-1.3,2.8
		c1.8,0.4,3.3,1,4.1,2.8c0.2,0.5,1.2,0.6,1.7,1c1.4,1,2.3,2.5,3.3,4c1,1.6,0.2,4.9-1.6,5.5c-0.4,0.2-1-0.2-1.7-0.3
		c-0.9,1.1-1.4,3-3.7,2.1c-0.1-1.1-0.5-2.2-1.9-2.5c-0.3-0.1-0.6-0.2-0.9-0.1c-2.2,1.1-4.5,0.2-6.8,0.3c-0.2,0-0.4,0-0.5-0.1
		c-1.7-1.7-3.4-0.9-5.4-0.3c-1.9,0.6-4.1,1.5-6.4,0.4c-1.6-0.8-2.7,0-3.6,1.7c-0.6,1.1-1.4,2.1-2.2,3c-0.2,0.3-0.9,0.3-1.3,0.3
		c-0.5,0-1-0.1-1.8-0.3c0.1,1,0.1,1.7,0.2,2.7c-0.6,0-1.1,0-1.7,0c-1.3,0.1-2.5,0.3-3.3,1.6c-0.5,0.9-1.4,1.5-2.6,1.5
		c-0.3,0-0.7,0-0.9,0.2c-1.9,1.2-3.9,2.4-5.7,3.8c-1.2,1-1.3,2.6-1.7,4.4c0.7-0.4,1.1-0.6,1.5-0.8c1.3,0.5,2.5,1.1,3.4,1.5
		c1.3-1,2.2-1.8,3.2-2.6c1.3-0.9,2.4-0.1,3.4,0.9c1.4-0.8,2.8-1.3,4.4-0.6c0.8,0.3,1.5,0,2.1-0.7c1.9-1.7,3.8-1.4,5.2,0.7
		c0.2,0.3,0.3,0.6,0.5,0.8c1.1,1.4,2.4,2.6,4.4,2c0.3-0.1,0.6,0,1.1,0c0.1,1.6,1,2.6,2.4,3.2c0.7,0.3,1,1.2,1.7,1.6
		c0.7,0.6,1.5,1,2.3,1.5c0.8,0.5,1.6,1,2.4,1.4c-0.1,0.8-0.2,1.5-0.4,2.2c-0.2,0.8-0.6,1.4-1.5,1.7c-1.1,0.3-2.2,0.8-3.1,1.5
		c-0.7,0.6-1.2,1.4-1.6,2.3c-0.9,1.7-3.5,2.6-5.3,2c-0.9-0.3-2.1-0.4-3,0c-2.1,0.9-2.9-0.5-3.6-2c-0.1-0.1-0.2-0.2-0.5-0.4
		c-0.5,0.2-1,0.3-1.8,0.6c0.6,0.5,1,0.9,1.4,1.3c-0.2,0.3-0.2,0.6-0.4,0.7c-0.9,0.6-1.9,1.2-3.1,1.9c0.1-0.8,0.2-1.4,0.2-2.2
		c-1.1,0.7-1.9,1.3-2.5,1.7c-1.1-0.3-2-0.6-2.9-0.7c-0.4-0.1-1,0-1.1,0.3c-0.8,1.7-2.2,1.1-3.5,1c-2-0.1-3.8,0.4-5,2.2
		c-0.2,0.3-0.6,0.5-0.9,0.9c-0.5-0.3-0.9-0.6-1.5-1.1c0,0.9,0,1.5,0,2.3c-0.9-0.3-1.6-0.6-2.4-0.8c-0.8,0.7-1.6,1.4-2.3,2
		c0,2.6,0,5.1,0,7.8c2.7,0.6,2.4,3,2.5,4.6c0.2,2.2,1.5,2.9,2.8,4c0.6-1.1,0.6-1.1-0.7-2.2c0.1-0.1,0.3-0.3,0.4-0.3
		c2.5,1.1,5.2,0.6,7.8,0.8c0.9,0.1,1.8-0.5,3-0.8c0.8,1.2,2,2.6,2.8,4.1c0.8,1.4,1.1,1.5,2.2,0.1c0.1-0.2,0.3-0.3,0.5-0.5
		c1.5,0.2,3,0.4,4.5,0.7c1,2.4,2.4,3,5.3,2.8c1.2-0.1,2.4,0.5,3.7,0.7c-0.2,1.3-0.3,2.4-0.5,3.3c-0.2,1.1-1.1,2-2.1,2.1
		c-0.9,0.1-1.3,0.6-1.9,1.1c-1.5,1.1-3.3,1.6-5.2,1.6c-2.5,0-2.5,0-2.6,2.4c0,0.2-0.1,0.5-0.2,0.7c-1.2,0.8-3.4-0.3-3.8,2.3
		c-0.8-0.5-1.6-0.8-1.9-1.3c-0.9-1.2-1.8-1.8-3.3-0.3C349.1,187.3,349.1,186.8,349.1,186.4c1.1-0.3,1.7-0.8,1.2-2.2
		C349.3,184.7,349.2,185.6,349.1,186.4z M359.7,131c0-0.1-0.1-0.3-0.1-0.4c-0.4,0.1-0.9,0.2-1.3,0.3c0.1,0.2,0.1,0.3,0.2,0.5
		C358.9,131.3,359.3,131.2,359.7,131z M358.7,175c-0.1-0.1-0.2-0.3-0.2-0.4c-0.3-0.1-0.6-0.2-1-0.2c0,0-0.2,0.5-0.2,0.5
		c0.2,0.2,0.5,0.3,0.7,0.3C358.3,175.2,358.5,175,358.7,175z"/>
	<path d="M227.9,174.2c0.2,1.1,0.7,2.2-0.4,3c-0.2,0.2-0.3,0.7-0.3,1.1c0.5,3-1.9,4.4-3.4,6.2c-0.6,0.7-2.1,0.8-3.3,0.9
		c-0.8,0.1-1.6-0.3-1.6-1.4c0.1-1.2-0.3-2-1.6-2.2c-0.3-0.1-0.7-0.2-0.8-0.4c-0.8-1.9-1.8-3.8-2.3-5.9c-0.2-0.7-0.2-1.2-0.7-1.8
		c-0.6-0.7-0.7-1.6-1.2-2.7c-0.6-0.1-1.4-0.2-2.4-0.3c-0.3-0.9-0.4-1.9,0.5-2.5c0.7-0.6,1.6-1,2.5-1.5c-1.1-1.2-3.4-0.2-3.4-2.8
		c0.4-1.7,0.3-4.2,2.3-5.8c1.1-0.3,2.3-0.5,3.4-1c0.5-0.2,0.7-1.1,1.3-2.1c-1.2,0.2-1.8,0.3-2.5,0.5c-1-1.4,0.7-1.5,1.1-2.6
		c-0.4-0.9-0.8-2-1.1-2.7c0.9-1.4,1.8-2.7,2.3-3.6c-0.3-2.2-0.5-3.9-0.6-5.4c0.5-1.1,0.9-2,1.5-3.2c0.5,0.4,1.1,0.8,1.7,1.3
		c0-1.2-0.1-2.6,0-3.9c0.1-1.5,0.3-3,0.4-4.5c0-0.4-0.2-0.8-0.3-1.3c-0.1-0.4-0.3-0.8-0.4-1.4c0.8-0.2,1.5-0.3,2-0.5
		c0.9-1.5,1.6-2.8,2.5-4.1c0.7,0,1.4,0,2.1,0c1.1-1.6-0.9-2.8-0.3-4.3c-1.2-0.2-2.6,0.6-3-1c-0.1-0.5,0.1-1.4,0.5-1.7
		c1.1-0.9,2.2-0.6,3.2,0.9c0.7-2.1,1.4-3.8,1.8-5.5c0.1-0.5-0.5-1.2-1-1.8c-0.5-0.6-1.1-1.1-1.7-1.6c0.6-0.4,1-0.6,1.4-0.9
		c-0.3-0.3-0.6-0.7-0.9-0.9c-2.4-1.4-4.9-1-7.5-0.8c-0.5,0-0.9,0.1-1.5,0.2c-0.3-0.6-0.6-1.2-0.9-1.8c-1.1-0.1-2.4-0.1-3-1.4
		c-2.2-0.2-3.2-2.4-5.1-3.2c-1.2-0.5-2.3-2.3-2.6-3.7c-0.6-2.7-0.6-5.5-0.8-8.3c0-0.5,0-1.1-0.1-1.6c-0.3-1.4-0.1-1.9,1.2-2.3
		c0.9-0.3,1.8-0.4,2.9-0.7c0.3,0.8,0.4,1.5,0.7,2.1c0.6,1.2,1.6,1.5,2.2,0.5c1.4-2.3,3.2-2.1,5.5-1.6c2.4,0.6,5,0.5,7.6,0.7
		c0.7,0.1,1.4,0.2,2.3,0.4c0.8-0.8,1.7-2,3.4-0.8c-0.3,0.5-0.6,0.9-1.2,1.9c0.8-0.4,1.3-0.4,1.5-0.7c1.4-1.4,2.9-2.1,4.9-1
		c0.7,0.4,1.7,0.3,2.5,0.2c1.5-0.2,2.8-0.5,3.9,0.9c0.3,0.4,1.1,0.8,1.7,0.7c2-0.1,4,0.6,5.9-0.5c0.9-0.5,1.7-0.1,2.3,0.9
		c-0.5,0.6-0.9,1.2-1.4,1.7c0.3,1,0.8,1,1.5,0.5c0.8-0.6,1.7-1.2,2.4-1.9c1.1-1,2.3-1.5,3.7-1.9c1.2-0.3,2-0.2,2.8,0.7
		c0.7-0.8,1.3-1.5,1.9-2.3c1.4,1.1,2.6,2.8,4.3,0.6c2.7,0.8,1.7,3.7,3.8,5.1c0.5,0,0.9-0.7,1.2-1.8c-0.5-0.3-1-0.7-1.5-1.1
		c0.1-0.3,0.2-0.6,0.3-0.6c0.4,0,0.9,0,1.3,0.1c0.7,0.2,1.4,0.7,2,0.6c1.3-0.3,2.3-0.1,3.2,0.9c0.2,0.2,0.8,0.4,1.1,0.3
		c0.9-0.2,1.5,0.3,2.2,0.5c1.2,0.4,2.5,0.2,3.7,0.2c2.1,0,3.2,1.3,3,3.5c-0.1,0.1-0.2,0.3-0.3,0.3c-0.8-0.1-1.7-0.4-1.7,0.9
		c0,1.1,0.9,2,1.7,2c1.8-0.1,3.6-0.3,5.4-0.5c2.7-0.2,2.7-0.2,3.7,2.4c0.8,0.2,1.6,0.4,2.5,0.5c1.2,0.2,1.6,0.9,1.5,2
		c-0.1,0.6-0.2,1.3-0.3,1.9c-0.4,1.9-0.5,3.9-1.2,5.8c-0.4,1.3-1.7,2.1-3.1,2.4c-0.4,0.1-0.7,0.2-1.4,0.4c0.5,0.7,0.9,1.1,1.1,1.6
		c0.1,0.4,0.1,1-0.1,1.3c-0.2,0.3-1,0.5-1.2,0.3c-1.2-1.1-2.7-0.8-4.1-1.2c-1.4-0.4-3-0.3-4.2-1.6c-0.3-0.3-1.1-0.3-1.6-0.3
		c-2.5,0-4.9,0.2-7.4,0.2c-0.3,0-0.7,0.2-0.9,0c-1.5-0.9-3-1.9-4.5-3c-0.3-0.2-0.3-0.8-0.6-1.6c-2.3,2.8-5.2,2.1-8,2.2
		c-0.2-0.7-0.4-1.3-0.6-2c-0.4,0.1-0.8,0.1-1,0.2c-1.2,1.2-2.4,1.5-4.1,1.1c-1.4-0.3-3,0.1-4.5,0.2c-0.9-1-0.2-2,0-3.2
		c-0.8,0.8-1.7,1.5-2.4,2.3c-0.8,0.7-1.5,0.7-2-0.2c-0.4-0.7-0.6-1.6-0.9-2.4c-0.1-0.4-0.2-0.8-0.4-1.5c-1.2,0.7-2,1.3-1.8,2.6
		c0.2,1.1,0.4,2.1,0.7,3.3c-1.5-0.3-0.6-1.6-1.3-2.1c-0.9-0.4-1.3,0.1-1.5,0.9c-0.3,1.9-0.5,3.7-0.7,5.6c-0.1,1-0.4,2,0.3,3
		c0.2,0.3,0,0.9,0,1.4c-0.3,2.3-0.5,4.7-0.9,7c-0.2,1-0.8,1.9-1.2,3.1c1.2,1.7,0.1,3.6-0.7,5.3c-1.1,2.3-1,4.6-0.6,7
		c0.1,0.6,0.1,1.5-0.2,1.7c-1.6,1-1.7,2.8-1.7,4.3c-0.1,2.3-1.4,3.9-2.4,5.7c-0.4,0.7-0.8,1.7-0.6,2.5c0.7,2.8-0.3,5.3-1,7.9
		c-0.3,1.2-0.7,2.2-1.3,3.3c-0.4,0.6-0.4,1.5-0.3,2.3c0.1,2.2-0.2,4.2-1.2,6.1C229.4,173.8,228.6,173.9,227.9,174.2z M277.1,93.2
		c0.1-0.1,0.3-0.2,0.4-0.4c-0.3-0.3-0.5-0.7-0.8-1c0,0-0.3,0.2-0.5,0.4C276.5,92.5,276.8,92.9,277.1,93.2z"/>
	<path d="M78.2,191c-0.8,0.2-1.4,0.4-2.1,0.6c-0.2-1.1-0.3-2-0.5-3.2c-0.9,0.4-1.5,0.7-2.1,0.9c-0.3-0.2-0.6-0.4-0.9-0.7
		c-1.3-1.6-1.3-1.6-3.1-1c-0.8,0.2-1.9,0.6-2.4,0.2c-0.9-0.6-0.1-1.5,0.3-2.3c0.2-0.4,0-1-0.1-1.5c-0.5,0.1-1.1,0.1-1.5,0.3
		c-0.9,0.5-1.7,1.2-2.6,2c-0.7-1-2.9-1.7-1-4.2c-3.1,0.3-5.4-0.4-6.2-3.5c-0.8,0.3-1.3,0.5-1.9,0.6c-1,0.2-1.9-0.6-1.6-1.4
		c0.5-1.2,0.5-2-0.6-2.9c-1.1-1-2.2-0.7-3.4-0.4c-0.6,0.1-1.1,0.4-1.6,0.6c-0.1-0.1-0.3-0.3-0.4-0.4c0.4-0.7,0.8-1.5,1.3-2.2
		c-0.8-1.3-1.8-0.1-2.9-0.4c-0.1-1.1,0-2.5-0.5-3.5c-0.6-0.9-2-1.3-3-1.9c-0.1-0.7-0.3-1.5-0.4-2.3c-0.2-0.7-0.4-1.4-0.6-2.1
		c-0.6,0-1.1-0.1-1.8-0.1c-0.4-2-0.7-4-1.1-6.1c-0.7-0.1-1.4-0.3-2.2-0.5c0.1-1.6-0.6-3.2,1.3-4.5c0.3,0.6,0.6,1.1,1,1.7
		c1.7-0.8,3.3-2.7,5.5-1.1c-0.6,1.1-1.1,2.2-1.8,3.5c0.7,0.1,1,0.2,1.2,0.2c1.8,0.2,2.4,0.9,2.1,2.6c-0.4,2.7-0.4,2.7,2,3.6
		c1.4,0.6,2.8,1.2,4.7,2c1.4,1.4,3.3,3.2,5.1,5c0.6,0.6,1.2,0.6,2,0.3c0.8-0.3,1.6-0.1,2.1,0.8c1.4,2.2,3.5,2.3,5.7,1.8
		c1.2-0.2,2-0.4,3,0.6c1.1,1,2.6,0.8,3.7-0.1c1.2-1,2.2-1.1,3.3,0.2c0.5-0.3,0.8-0.6,1.2-0.8c0.7-0.4,1.2-0.4,1.9,0.1
		c1.5,1.1,2,1.1,3.3-0.1c1.9-1.8,3.7-3.6,5.6-5.3c0.4-0.3,1.1-0.3,1.3-0.3c0.8-1.4,1.6-2.7,2.4-3.9c0.8-1.3,1.7-2.5,1.8-4.1
		c0-1,0.3-2,1.2-2.7c0.9-0.8,0.7-2.3,1.9-3.1c0.1-0.1-0.1-0.9-0.4-1.2c-0.3-0.3-0.8-0.5-1.3-0.8c0.2-0.7,0.4-1.4,0.5-2.1
		c-0.1-0.1-0.2-0.3-0.3-0.3c-0.8-0.2-1.3-0.4-1.9-1.2c-1.8-2.7-3.5-5.4-5.8-7.7c-1.5-1.4-2.6-3.2-2.5-5.5c0-0.6-0.4-1.4-0.9-1.8
		c-2.6-2.3-4-5-3.2-8.5c0.2-1.1-0.2-1.8-1.1-2.1c-2.3-0.7-2.9-2.8-4.2-4.3c-0.2-0.2-0.3-0.6-0.2-0.9c0.3-1.5-0.7-1.7-1.8-2
		c0-1.7,0.1-3.5-0.1-5.2c-0.1-0.8-0.8-1.6-1.3-2.6c1.7-1.7,2.2-3.9,1.8-6.7c-0.3-2.4,0.4-4.9,0.6-7.3c1.7-0.8,3.5-1.4,4.1-3.3
		c0.1-0.2,0.3-0.4,0.5-0.5c0.6-0.3,1.2-0.4,1.7-0.9c0.4-0.4,0.5-1.1,0.9-1.9c0.7,0.8,1.3,1.3,1.9,2c1.2,0.1,2.5-0.6,3.6,0.5
		c0.2,0.2,1.4,0,1.6-0.4c0.8-1.1,1.8-2.3,1.4-3.9c-0.1-0.3-0.1-0.6-0.1-0.9c0-1.3,0.9-2.2,2-2.2c1,0,1.6,0.8,1.7,2.2
		c0,0.5,0,1.1,0.2,1.6c0.5,1.6,0.5,1.6-1,2.4c2.2,0.7,2.5,0.6,3.5-1.3c0.1-0.1,0.2-0.3,0.2-0.4c1-3.3,3.3-5.1,6.8-5.5
		c0.6-0.1,1.1-0.8,2.1-1.6c0.5,0.2,1.5,0.6,2.6,1c1.5-1.1,3-3.5,5.2-0.9c1.6-0.4,1-1.7,1.3-2.7c0.5-0.3,1-0.5,1.5-0.9
		c1.1-0.8,1.8-0.9,2.7,0.4c0.4,0.6,1.6,0.7,2.5,1c0.5-0.9,0.9-1.5,1.4-2.3c2.2,1.4,4.2,0.9,6.3-0.1c0.3-0.2,0.9-0.2,1.2-0.1
		c1.2,0.7,2.5,0.9,4,0.2c0.1,1,0.2,1.6,0.3,2.3c1,0.1,1.8,0.4,2.2,1.6c0.3,1.1,1.3,2,1.9,2.9c0.5,0.8,1,1.6,1.5,2.3
		c0.3,0.4,0.5,0.8,0.9,1.1c1.2,0.9,2.1,1.9,2.4,3.5c0.1,0.5,0.8,1.1,1.2,1.2c1.1,0.1,2.2,0.4,2.3,1.6c0.1,1.3,0.1,2.7-1.2,3.7
		c-1.1,0.9-2.1,1.4-3.6,1.4c-2.2,0-4.5,0.4-6.9,0.7c-0.2-0.8-0.4-1.7-0.8-2.7c-0.6-1.7-1.7-2-3.3-1.1c-0.5,0.3-1,0.5-1.5,0.6
		c-1.1,0.2-2.2,0.4-3.3,0.5c-0.9,0.1-1.9,0.1-2.8,0c-2.2-0.5-2.5-0.3-2.7,2.3c-2-0.3-4-0.6-6.3-1c-0.2,0.3-0.7,0.7-0.8,1.1
		c-0.3,1.7-1.9,2.2-3.1,2.9c-0.6,0.4-1.6,0.1-2.6,0.1c-2.1,3-2.7,3.2-6.1,2c-1,1.7-2.2,3-4.5,2.6c-0.7-0.1-1.8,0.4-2.4,0.9
		c-1.1,1.1-2.3,1.3-3.6,0.9c-1.1,1.2-2.3,2.2-3,3.4c-0.7,1.4-1.2,3-1.3,4.5c-0.2,2.9-0.3,5.9,1.4,8.5c0.2,0.4,0.4,0.9,0.3,1.4
		c-0.2,1,0.2,1.7,0.9,2.3c0.3,0.3,0.7,0.8,0.7,1.2c0.1,1.3,0.9,1.9,2,2.4c0.5,0.3,1,0.8,1.3,1.3c0.7,1.3,1.4,2.6,2.2,4.3
		c-0.1,0.1-0.3,0.7-0.6,1.4c0.2,0.1,0.4,0.3,0.6,0.3c1.9,0.7,3.6,1.7,4.2,3.8c0.1,0.3,0.5,0.6,0.7,0.9c0.2,0.2,0.7,0.3,0.7,0.6
		c0.6,2.8,3.6,4.1,4.5,6.8c0.3,0.9,0.4,1.8,0.5,2.9c0.7,0.2,1.5,0.3,2.5,0.5c0,0.6-0.1,1.2,0,1.8c0.1,0.7,0.2,1.5,0.5,2
		c1.3,2,1.5,3.8-0.1,5.7c-0.6,0.7-0.7,1.5-0.6,2.4c0.1,1.9,0,3.8-0.1,5.7c0,0.4-0.2,1-0.5,1.3c-0.8,0.7-0.9,1.3-0.6,2.3
		c0.2,0.5-0.4,1.3-0.8,1.8c-1,1-1.7,2.1-1.7,3.7c0.4,0.3,0.8,0.6,1.2,0.9c-0.5,1.6-1.9,0.6-2.9,1.2c0.1,0.7,0.1,1.4,0.2,2.1
		c-1.2,0.8-1.5-0.7-2.3-0.7c-1.6,2.2-1.6,2.2-1.7,4.8c-1.3,0.5-2.1,1.9-3.8,1.8c-0.4,0-0.8,0.7-1.2,1c-1.5,1.1-3,2.2-4.6,3.3
		c-1.7,0.1-3.7-2.5-5.1,0.7c-0.5-0.3-0.9-0.5-1.5-0.8c-0.6,0.9-1.4,1.5-2.5,0.8c-0.1-0.1-0.3-0.1-0.5-0.1
		C78.8,193.2,78.8,193.2,78.2,191z"/>
	<path d="M602.5,87.7c1.8-1.6,1.8-1.6,4,0.3c0.7-1,0.7-1,0.3-3c1.1,0.6,2.1,0.9,2.8,1.5c1.8,1.4,3.2,1.4,5.1,0.2
		c0.8-0.6,1.6-1.4,2.8-0.9c0.2,0.1,0.6,0,0.7-0.1c1.2-1.8,1.8-0.8,2.8,0.3c0.5,0.6,1.7,0.6,2.5,0.9c0.1,0.6,0.1,1.5,0.4,1.7
		c1.7,0.8,2.2,2.1,2.5,3.8c0.1,0.4,0.3,0.7,0.6,1.2c0.6-0.3,1-0.5,1.5-0.8c1.4-0.7,2.3-0.1,2.2,1.5c-0.1,2,0.4,3,2,3.6
		c2.4,0.8,3.1,1.8,2.8,4.4c-0.2,1.7-0.6,3.5-1.8,4.9c-0.7-0.1-1.5-0.3-2.3-0.4c-0.2,0.6-0.3,1-0.4,1.4c-0.1,0-0.3,0.1-0.4,0.1
		c-1.1-0.4-2.1-0.5-3.3-0.4c-1.2,0.1-2.4-0.4-4.1-0.8c-1.1,0.7-2.7,1.4-4.7,0.4c0.1-1.1,0.1-2.3,0.2-3.4c-0.1,0-0.3-0.1-0.4-0.1
		c-0.8,1.4-1.6,2.7-2.5,4.2c-1-0.7-1.7-1.3-2.6-1.9c-0.2,0.6-0.3,1.1-0.5,1.4c-0.4,0.6-0.8,1.5-1.3,1.5c-1.9,0.1-3.9,1.1-5.8-0.1
		c-0.6-1.7,0.4-3.6-0.3-5.3c-1,1.5-3.4,1.9-3.1,4.2c-1.2,0.6-2.2,1.1-3.3,1.6c-0.1,0-0.3,0-0.4,0c-2.5-1.3-2.5-1.3-4.3,0.9
		c-0.8,1-1.7,2-2.7,2.7c-1.4,0.9-1.5,2.3-1.5,3.5c0,1.5,0.4,3,0.8,4.4c0.6,2.3,1.5,4.5,2,6.8c0.2,0.7-0.3,1.5-0.6,2.2
		c-0.3,0.6-0.9,1-0.4,1.7c0.5,0.6,1.1,0.4,1.7,0.1c0.2-0.1,0.4,0,1-0.1c-0.1,1.1-0.2,2-0.3,3.1c2,1.2,1.4,3.5,1.2,5.3
		c-0.3,2.2,0.2,4.3,0.4,6.4c0.1,1.8,0.2,3.4-0.7,5.1c-0.9,1.6-0.9,3.4,0.5,4.9c0.4,0.4,0.6,0.9,1,1.6c-0.8,0.6-1.4,1.1-2.2,1.7
		c0.3,0.5,0.7,1,1.1,1.6c-0.9,1-1.8,1.9-2.6,2.9c-0.4,0.5-0.3,1.3-0.4,2.2c-0.6,0.1-1.3,0.3-1.7,0.3c-1.4,2.4-2.6,4.7-3.9,7
		c-0.9-0.2-1.5-0.3-2.6-0.5c1,1.1,1.3,2.1,0.3,3c-0.1,0-0.1,0.1-0.1,0.2c0.7,3.6-2.7,3.9-4.6,5.4c-0.9,0.7-1.9,0.7-2.8-0.3
		c-1-1-2.5-1.6-2.2-3.6c-0.7,0.3-1,0.5-1.5,0.7c0.4,0.7,0.8,1.3,1.2,1.9c-1.2,1.4-2.3,0.7-3.5-0.1c-0.4,0.8-0.7,1.6-1,2.4
		c-0.8,1.7-1.4,1.8-2.8,0.6c-0.5-0.4-1.2-0.8-1.8-0.8c-1.8,0.2-2.4-1.3-3.4-2.3c-0.2-0.2,0-0.9,0.1-1.3c0.2-1,0.5-2,0.6-3
		c0-0.3-0.2-0.6-0.5-1.3c-0.8,1.7-1.3,3.1-2,4.4c-0.3,0.5-1.2,1.1-1.7,0.9c-0.7-0.2-1.9-1.1-1.9-1.5c0.5-2-1.7-3.4-0.9-5.5
		c-1.8,0.4-1.2,2.1-2.3,2.8c-3.3,0.3-3.7-2.9-5.2-4.9c-0.7,0.2-1.5,0.4-2.5,0.7c0-1.8-0.1-3.5,0-5.2c0.1-1.4-0.1-2.7-1-3.8
		c-1.3-1.6-1-3.4-0.9-5.2c0-0.5,0.4-1.1,0.2-1.6c-0.6-2,0.2-3.6,1.4-5.1c0.2-0.2,0.3-0.5,0.4-0.7c2.6,0,4.1,1.8,5.3,3.4
		c1.1,1.4,2.2,1.6,3.3,1.3c1.2,1,2.2,1.8,3.2,2.6c0.6,0.4,1.1,0.8,1.8,1.2c0.4,0.2,0.9,0.6,1.3,0.5c2.2-0.7,3.9,0.2,5.6,1.6
		c0.7-0.5,1.7-0.9,2-1.6c0.7-1.3,1.7-1.8,3.1-1.8c-0.3-1.7-0.3-1.7-2.6-1.9c0.6-1.2,1.6-1,2.4-0.6c1.4,0.8,2.4,0.3,3.3-0.8
		c1.1-1.3,2.2-2.5,2.5-4.3c0.2-0.9,0.4-1.8,0.9-2.5c1.3-1.7,2-3.5,1.5-5.7c0-0.1,0.3-0.4,0.5-0.7c0.6,0.1,1.3,0.3,1.9,0.5
		c0.1-0.3,0.2-0.5,0.1-0.5c-1.4-1.4-1.6-3.3-1.8-5.1c-0.2-1.2-0.3-2.2-1.8-2.4c-0.9-0.1-1.1-0.9-1.1-1.7c0-0.9,0.1-1.7,0.2-2.7
		c-0.5-0.1-1-0.3-1.7-0.5c-0.3-2.3-0.4-4.8-1.1-7.1c-0.5-1.6-0.7-3,0-4.6c0.2-0.4,0.1-0.9,0.1-1.5c-0.8,0.2-1.3,0.3-2.2,0.5
		c-0.1-0.9-0.2-1.5-0.2-2.2c-0.1-1.6,0-3.2-0.2-4.7c-0.2-1.7,0.1-3.2,1.4-4.6c-0.2-0.4-0.4-0.8-0.6-1.2c-0.7-1.2-0.6-2.1,0.4-3
		c1-0.9,2.1-1.5,1.5-3.2c-0.1-0.3,0.5-0.9,0.9-1.2c0.6-0.5,1.4-1,2.3-1.6c1.3,0,2.9,0,4.8,0c-0.5-2.5,1-3.3,2.9-4
		c0.1,1,0.1,1.8,0.2,2.8c1-0.4,1.7-0.6,2.5-1c-0.2-0.7-0.4-1.3-0.6-2c0.5-0.6,1-1.3,1.6-1.9c0.3-0.3,0.9-0.7,1.2-0.5
		c0.4,0.2,0.8,0.7,0.9,1.2c0.2,0.4,0.1,0.9,0.1,1.6c2.3-1.2,1.1-3,1.1-4.4c1,0.1,2.1,0.3,3,0.2c1-0.1,1.8-0.3,2.5,0.8
		c0.2,0.3,1.4,0.5,1.7,0.3C601.1,86.4,601.8,87,602.5,87.7z M574.9,108.1c-0.1,0.3-0.2,0.5-0.3,0.8c0.5,0.2,1.1,0.5,1.6,0.7
		c0.1-0.2,0.2-0.4,0.3-0.6C575.9,108.7,575.4,108.4,574.9,108.1z M599.7,92.1c-0.3-0.2-0.4-0.5-0.5-0.5c-0.3,0.1-0.5,0.3-0.7,0.4
		c0.2,0.2,0.3,0.5,0.5,0.5C599.2,92.6,599.4,92.3,599.7,92.1z"/>
	<path d="M65.3,219.2c-1.4,0.9-1.8-0.1-2.6-0.7C63.9,217.8,64.5,218.4,65.3,219.2z"/>
	<path class="st0" d="M302.4,232.7c0.4,0.2,0.8,0.4,1.3,0.5c0,0.3,0,0.7-0.1,0.8c-0.7,0.5-1.3,1.2-2.1,1.3c-1.6,0.3-2.5-0.8-2-2.4
		c0-0.1,0-0.2,0.1-0.2c0.4-0.9,0.6-2.2,1.8-2.2C302.7,230.5,301.9,232.1,302.4,232.7z"/>
	<path class="st0" d="M512.4,216.4c0.4,1.6,0.5,3,2,3.5c0.1,0,0.2,0.7,0,1.1c-0.1,0.2-0.6,0.6-0.7,0.5c-0.9-0.5-2-0.8-2.4-1.6
		c-0.4-0.7-0.1-1.8,0-2.8C511.4,217,511.8,216.8,512.4,216.4z"/>
	<path class="st0" d="M286.5,235c-1.6,0-3,0-4.5,0c-0.3-1.2,0.2-1.4,1-1.4c0.8,0,1.7,0.1,2.5,0C286.9,233.5,286.7,234.2,286.5,235z"
		/>
	<path class="st0" d="M286.7,216.6c0.7,1.6,0.4,2.6-0.5,3.6C285.4,218.7,285.4,218.7,286.7,216.6z"/>
	<path class="st0" d="M236,219.5c0.4,1.2,0,1.8-0.9,1.8c-0.2,0-0.6-0.3-0.6-0.5C234.3,219.6,235.4,219.9,236,219.5z"/>
	<path class="st0" d="M188,238c0.9-0.1,1.5-0.1,2.4-0.2C189.3,238.9,189.3,238.9,188,238z"/>
	<path class="st0" d="M324,237.2c-0.8-1.1-0.6-1.7,0.3-2.1c0.1-0.1,0.7,0.4,0.7,0.4C324.7,236,324.4,236.6,324,237.2z"/>
	<path class="st0" d="M254.8,236.1c0.5,0,0.9,0,1.4,0c0,0.2,0,0.6,0,0.6c-0.4,0.1-0.9,0.1-1.3,0.2
		C254.8,236.6,254.8,236.3,254.8,236.1z"/>
	<path class="st0" d="M382.9,214.1c0.8,1.2,0.3,1.6-0.4,2c-0.1-0.3-0.3-0.5-0.2-0.7C382.4,215.1,382.6,214.7,382.9,214.1z"/>
	<path class="st0" d="M499.4,232.3c0.6,0.5,1,0.8,1.6,1.3C499.7,234,499.3,233.7,499.4,232.3z"/>
	<path class="st0" d="M572.3,231.3c-0.2,0.2-0.4,0.4-0.5,0.5c-0.1-0.2-0.3-0.3-0.3-0.5c0-0.1,0.2-0.4,0.2-0.4
		C571.8,231,572,231.1,572.3,231.3z"/>
	<path class="st0" d="M125.7,223.7c-0.3,0.2-0.5,0.4-0.8,0.5c-0.1,0-0.3-0.2-0.4-0.4c0.2-0.2,0.5-0.5,0.7-0.7
		C125.3,223.3,125.4,223.5,125.7,223.7z"/>
	<path class="st0" d="M425,215.6c0.4,0.6,0.6,0.8,0.7,1c0,0.1-0.4,0.4-0.5,0.4c-0.2-0.1-0.5-0.3-0.6-0.6
		C424.6,216.3,424.8,216.1,425,215.6z"/>
	<path class="st0" d="M600.3,216.3c-0.2,0-0.4,0.1-0.6,0.1c-0.1,0-0.1-0.2-0.1-0.4c0.2-0.1,0.4-0.1,0.6-0.1
		C600.1,215.8,600.2,216.1,600.3,216.3z"/>
	<path class="st0" d="M110.9,237.9c0.3,0.2,0.5,0.4,0.6,0.5c-0.2,0.2-0.5,0.5-0.7,0.7c-0.1-0.2-0.4-0.4-0.4-0.5
		C110.5,238.5,110.7,238.3,110.9,237.9z"/>
	<path class="st0" d="M483.1,92.5c0.4,0.6,0.7,1,1.2,1.7c0.8-0.7,1.4-1.3,2.1-2c1.9,2.7,2.1,1.9,4.7,0.4c0.9,1.6,2.5,1.7,4.1,1.6
		c0.7,0,1.5-0.1,2.1,0.2c1.5,0.6,2.7,0.6,4-0.4c0.8-0.6,2.3,0.1,2.8,1.2c0.4,1-0.4,1.3-1,1.9c-1.1,0.9-2,2-2.9,3.1
		c-1,1.3-1.8,2.8-2.8,4.1c-0.9,1.1-1.8,2.2-1.2,4.1c-2.5-0.5-4.1,1.8-6.4,1.2c-0.4-0.1-1.1,0.5-1.6,0.8c-1,0.8-1.9,1.6-3,2.6
		c-0.9-1.5-2.1-1.4-3.5-1.4c-2.2,0.1-4.4-0.2-6.5-0.6c-1.4-0.2-1.9-1.2-1.4-2.6c0.1-0.3,0.4-0.6,0.3-0.9c-0.3-1.8-0.5-3.7-1-5.5
		c-0.5-1.8-0.6-1.9,0.9-3c1.2-0.8,2-1.8,2.4-3.2c0.2-1,0.8-1.5,1.9-1.4c0.6,0,1.2-0.2,1.8-0.4C480.9,93.5,482,93,483.1,92.5z
		 M478.3,95c-0.4,0.7-0.7,1.2-0.9,1.7C478.5,96.8,479,96.4,478.3,95z"/>
	<path class="st0" d="M469.1,110.3c0.5-0.6,1.1-1.2,1.7-1.9c0.9,1.1,1.6,2,2.4,2.9c-1.3,0.7-1.3,0.7-2.5-0.8
		c-0.4,0.1-0.9,0.1-1.3,0.2C469.3,110.6,469.2,110.4,469.1,110.3z"/>
	<path class="st0" d="M490.4,78.6c-1.5-1-1.5-1.8-0.4-4.1C491.4,75.7,491.4,76.3,490.4,78.6z"/>
	<path class="st0" d="M472.9,83.1c-0.3-0.7-0.7-1.2-0.6-1.5c0.3-1.1,1.4-1.6,3-1.3C474.5,81.1,473.9,81.9,472.9,83.1z"/>
	<path class="st0" d="M466.8,130.9c-0.7-1.9-0.5-2.2,1.6-3.5c0.6,0.9-0.5,0.9-0.7,1.4C467.4,129.4,467.2,129.9,466.8,130.9z"/>
	<path class="st0" d="M485.9,132c-0.7-0.4-0.8-0.9-0.3-1.5c0.1-0.1,0.5-0.1,0.6,0C486.8,131.1,486.5,131.6,485.9,132z"/>
	<path class="st0" d="M467.2,86.5c0.3-0.1,0.5-0.3,0.8-0.4c0,0,0.2,0.3,0.2,0.3c-0.2,0.2-0.5,0.3-0.7,0.5
		C467.3,86.7,467.2,86.6,467.2,86.5z"/>
	<path class="st0" d="M349.1,186.4c0.2-0.8,0.2-1.6,1.2-2.2C350.8,185.6,350.1,186.1,349.1,186.4C349,186.3,349.1,186.4,349.1,186.4
		z"/>
	<path class="st0" d="M359.7,131c-0.4,0.1-0.9,0.3-1.3,0.4c-0.1-0.2-0.1-0.3-0.2-0.5c0.4-0.1,0.9-0.2,1.3-0.3
		C359.6,130.8,359.7,130.9,359.7,131z"/>
	<path class="st0" d="M358.7,175c-0.2,0.1-0.4,0.2-0.6,0.2c-0.3,0-0.5-0.2-0.7-0.3c0,0,0.1-0.5,0.2-0.5c0.3,0,0.7,0.1,1,0.2
		C358.6,174.7,358.7,174.8,358.7,175z"/>
	<path class="st0" d="M277.1,93.2c-0.3-0.3-0.6-0.7-0.9-1c0.2-0.1,0.5-0.4,0.5-0.4c0.3,0.3,0.6,0.7,0.8,1
		C277.4,93,277.2,93.1,277.1,93.2z"/>
	<path class="st0" d="M574.9,108.1c0.5,0.3,1.1,0.6,1.6,0.9c-0.1,0.2-0.2,0.4-0.3,0.6c-0.5-0.2-1.1-0.5-1.6-0.7
		C574.6,108.6,574.8,108.4,574.9,108.1z"/>
	<path class="st0" d="M599.7,92.1c-0.3,0.2-0.5,0.5-0.7,0.5c-0.2,0-0.3-0.3-0.5-0.5c0.2-0.2,0.5-0.4,0.7-0.4
		C599.3,91.6,599.5,91.9,599.7,92.1z"/>
	<path d="M478.3,95c0.7,1.3,0.3,1.7-0.9,1.7C477.6,96.2,477.9,95.7,478.3,95z"/>
</g>
</svg>
