<?xml version="1.0" encoding="utf-8"?>
<!-- Generator: Adobe Illustrator 22.0.0, SVG Export Plug-In . SVG Version: 6.00 Build 0)  -->
<svg version="1.1" id="Layer_1" xmlns="http://www.w3.org/2000/svg" xmlns:xlink="http://www.w3.org/1999/xlink" x="0px" y="0px"
	 viewBox="0 0 1440 936" style="enable-background:new 0 0 1440 936;" xml:space="preserve">
<style type="text/css">
	.st0{fill:#D1CBB5;}
</style>
<rect x="-49" y="-49" class="st0" width="1532" height="1030"/>
<g id="qrHymI.tif">
	<g>
		<g>
			<path d="M632,579.7c0.1,0.1,0.2,0.1,0.2,0.2c0.7,1.4,0.6,2.9,0.4,4.4c1.8,0.7,0.9,2.4,1.4,3.6c0.1,0.3-0.1,0.8-0.1,1.1
				c-0.2,1.1-0.4,2.1-0.6,3.2c-0.2,1.3-0.5,2.6-0.7,3.9c1.3,1,1.1,2.3,1,3.7c-0.1,2-2.1,3.7-4,3.6c-1.1,0-2.1,0.3-3.2,0.4
				c-1.7,0.3-3.4,0.6-5.1,0.9c-0.2,0-0.5-0.3-0.8-0.5c-1-0.5-2.3-0.4-3,0.5c-1.8,2.3-4.4,2.3-6.9,2.2c-0.8,0-1.4,0.1-2.2,0.4
				c-1.8,0.8-3.8,1.3-5.7,2c-1.6,0.6-3.2,1.4-4.8,2.1c-0.5,0.2-1.1,0.6-1.5,0.5c-1.7-0.6-3.3-0.1-4.9,0.3c-1.3,0.3-2.5,0.4-3.4-0.9
				c-0.5-0.7-1-0.5-1.6-0.1c-0.5,0.3-1.4,0.5-1.8,0.3c-1.4-0.8-2.8-0.9-4.3-1.4c-0.8-0.3-1.5-0.7-2.4-0.3c-0.2,0.1-0.7,0.1-0.9-0.1
				c-1.2-1.6-2.9-0.9-4.4-0.9c-1,0-1.9,0.2-2.9,0.2c-0.9,0-1.6-0.3-1.6-1.3c0-1.1-0.6-1.3-1.4-0.8c-1,0.7-1.7,0.2-2.6-0.3
				c-2.3-1.4-4.7-2.2-7.5-1.8c-0.6,0.1-1.4-0.2-2-0.5c-1.2-0.6-2.3-1.3-3.5-1.9c-0.9-0.4-1.8-0.7-2.8,0.2c-0.8,0.8-2.3,0.4-3.2-0.6
				c-0.4-0.4-0.8-0.8-1-1.3c-0.7-1.4-1.3-2.6-3.1-1.2c-0.1,0.1-0.5,0.1-0.7,0c-1.3-0.9-2.7-0.8-4.1-0.2c-0.3,0.1-1.1-0.3-1.4-0.6
				c-0.9-0.8-1.7-1.6-2.5-2.5c-1.3-1.4-2.9-2.2-4.9-2.1c-1.7,0.1-3.1-0.5-4-2.1c-0.5-1-1.1-1.2-2-0.3c-0.7,0.8-1.2,0.4-1.6-0.4
				c-0.9-1.5-2.2-1.9-4-1.7c-0.6,0.1-1.3-0.4-2-1c0.3-0.1,0.6-0.1,0.8-0.2c0.2-0.1,0.4-0.2,0.6-0.4c-0.2-0.2-0.3-0.6-0.5-0.7
				c-0.3-0.2-0.8-0.2-1.2-0.3c-1.1-0.1-2.2-0.3-3.3-0.4c-1.3,0-2.5,0-2.5-1.8c0-0.2-0.2-0.5-0.3-0.6c-1.4-0.9-2.8-1.7-4.1-2.6
				c-1.7-1.2-3.4-2.4-4.4-4.5c-0.5-1.1-1.7-2-2.5-2.9c-0.8-0.9-1.6-1.7-2.3-2.6c-1.2-1.5-3.2-1.9-4.6-3c-0.2-0.1-0.5-0.2-0.7-0.1
				c-1,0.5-1.4-0.1-1.9-0.8c-0.2-0.3-0.9-0.5-1.1-0.3c-1.4,1-2.1,0.1-2.7-0.9c-1.2-1.8-2.6-3-5-2.8c-1.1,0.1-2.6-0.3-3-1.9
				c-0.1-0.4-0.7-1-1.1-1c-1.2-0.1-1.8-0.9-2.4-1.8c-0.2-0.4-0.7-0.7-0.8-1.1c-0.4-1.1-2-0.1-2.3-1.6c-0.2-0.9-1.1-1.6-1.8-2.3
				c-0.4-0.5-0.9-0.8-1.4-1.2c-0.7-0.6-1.7-1-2.2-1.7c-1-1.5-1.8-3.1-2.5-4.8c-1-2.5-2.2-4.5-5.3-4.6c-0.4,0-0.9-0.6-1.1-1
				c-1.2-2.5-3.1-4.1-5.7-5c-2.1-0.7-3.7-3.2-3.7-5.6c0-0.4,0-0.9-0.3-1.1c-2.5-2.4-1.9-5.5-1.8-8.4c0-1.1,0.3-1.9-0.9-2.6
				c-1-0.5-1.5-1.3-1.5-2.7c0-0.9,0.7-2.8-1.6-2.8c-0.3,0-0.9-1.1-1-1.8c-0.3-2.2-0.4-4.4-0.4-6.7c0-0.7,0.7-1.4,1.2-1.9
				c0.6-0.6,0.7-1.1-0.1-1.4c-1.2-0.4-1.1-1-1-2c0.3-2,0.4-4.1,0.6-6.1c0-0.4-0.1-0.9,0.1-1.2c1-1.5,0.7-3,0.4-4.6
				c0-0.2,0-0.4,0-0.5c-1-1,2-1.1,0.5-2.2c-1.1-0.9-0.4-2.1-0.6-3.1c-0.2-1-0.2-2.1-0.2-3.1c0-1,0-2.1,0-3.1c0-0.5,0-1.1,0.2-1.3
				c2.2-1.9,1.9-4.5,1.6-6.9c-0.2-1.8,0.3-3.2,1.3-4.6c1.6-2.2,3.9-3.5,5.9-5.1c0.2-0.1,0.6-0.4,0.6-0.3c1.2,1.3,2.6,0.1,3.8,0.3
				c0.8,0.1,1.6,0.3,1.3,1.5c-0.3,1.3,0.5,1.9,1.8,1.8c1.1-0.1,1.4,0.4,1.4,1.4c0,0.7,0.3,1.1,1,0.9c1.3-0.4,1.5,0.3,1.5,1.3
				c0,0.5-0.2,1,0,1.4c0.1,0.3,0.6,0.8,0.9,0.8c2.2-0.2,4.1,0.3,5.9,1.6c1,0.7,2.2,1.1,3.4,1.3c1.7,0.4,3.5,0.6,5.3,0.9
				c0.8,0.1,1.3,0.3,1.3,1.3c0,1.1,0.3,2,1.7,1.1c0.2-0.2,0.9-0.1,1,0.1c0.8,1.1,1.7,1.3,3.1,0.9c0.7-0.2,1.5,0.2,2.3,0.4
				c1.9,0.4,2.2,1.3,0.9,2.7c-0.5,0.6-1.3,1.1-0.7,2c0.5,0.9,1.1,1.4,2.3,1.2c1.2-0.2,2.2-0.6,3.2-1.4c1.4-1.1,2.9-1.8,4.4-2.8
				c2.2-1.3,4.3-2.8,6.5-4c2.6-1.4,4.6-3.6,7.6-4.3c0.5-0.1,1-0.5,1.4-0.9c1.7-1.6,3.7-2.8,5.8-3.8c0.4-0.2,0.7-0.4,1-0.7
				c2.1-2.4,4.9-3.6,7.7-5c0.9-0.4,1.9-0.7,2.9-1c0.4-0.2,0.8-0.4,1.2-0.6c0.7-0.4,1.4-0.9,2.1-1.1c3.4-1.1,6.3-3.1,9.2-5.2
				c2,0.2,3-2.2,5.1-2.1c0.4,0,0.8-0.2,1.1-0.4c2.1-1.2,4.2-2.5,6.4-3.6c0.9-0.4,1.9-0.5,2.9-0.7c0.6-0.1,1.3-0.1,1.8-0.3
				c1.6-0.7,3.2-1.4,4.7-2.3c1-0.6,1.9-1.4,1.2-2.9c-0.5-1.2,0.6-2.2,2.4-2.5c1.5-0.3,3-0.4,4.5-0.7c1.8-0.3,3.5-0.6,5.2-1.1
				c1.7-0.5,3.2-1.2,4.8-1.9c0.3-0.1,0.7-0.4,0.9-0.7c0.9-1.3,2.3-1.6,3.7-1.9c0.9-0.2,1.8-0.5,2.7-0.7c1.2-0.4,2,0.3,2.8,1
				c0.5,0.4,0.8,1,1.4,1.3c0.6,0.3,1.7,0.1,1.9,0.5c0.4,0.8,0.4,1.9,0.4,2.8c0,0.5-0.3,1.1-0.4,1.6c-0.1,0.7-0.2,1.5,0,2
				c0.4,0.8,0.4,1.5-0.2,2.2c-0.8,0.9-0.5,1.7,0.1,2.5c0.3,0.5,0.5,1.1,0.5,1.7c0,1.5,0,3-0.1,4.5c0,0.9,0,2-0.4,2.8
				c-1,1.8-0.5,3.7-0.9,5.6c-0.5,2.1,0.4,4.1,0.8,6.1c0.7,3,0.3,5.8-0.8,8.6c-0.3,0.9-0.6,1.9-0.6,2.8c0,1,0,2.2,1.6,2.1
				c0.8,0,1,0.7,1,1.4c-0.1,1,0,2-0.4,2.8c-0.9,1.9-0.2,3.3,0.8,4.8c0.3,0.5,0.6,1.1,0.9,1.6c0.3,0.4,0.6,1,1,1.2
				c1.7,0.7,1.7,2.1,1.6,3.6c0,1.2-0.1,2.4-0.2,3.6c-0.1,1.5-1,2.6-2,3.4c-1.1,0.8-1.1,1.6-0.8,2.7c0.2,0.8,0.3,1.7,0.4,2.5
				c0.1,0.4,0.2,0.8,0.4,1c1.6,2,1.7,3.9,0,5.7c-0.5,0.6-0.7,0.8-0.2,1.5c0.6,0.8,0.5,1.7,0.2,2.7c-0.3,0.8-0.2,1.8,0,2.8
				c0.1,1.1,0.5,2.1-0.3,3.1c-0.2,0.2-0.3,0.7-0.2,0.8c0.7,1,0,1.9-0.3,2.7c-0.4,1.5-0.9,2.9,0.5,4.2c0.1,0.1,0.2,0.3,0.2,0.4
				c-0.2,3.9,3.4,5.9,4.5,9.2c0.1,0.3,0.4,0.6,0.4,0.9c0.4,3.7,2.9,6.3,5.2,9c0.6,0.7,0.9,1.3,0.7,2.1c-0.2,0.9,0.1,1.5,0.6,2.2
				c0.6,0.8,0.9,1.8,1.5,2.6c1.7,2.6,3.3,5.2,4.8,7.9c0.4,0.7,1,1.3,1.3,1.9c0.8,1.4,1.6,2.7,2.1,4.2c0.5,1.5,0.8,3,2.5,3.8
				c0.5,0.2,0.9,1.1,1.1,1.7c0.5,1.2,1.2,2.1,2.2,3c1.5,1.3,2.6,3.1,3.9,4.7c0.4,0.5,0.7,1.1,1.1,1.5c1.2,1.1,1.8,1,2.6-0.4
				c0.4-0.6,0.7-1.3,1.1-1.8C631.5,579.8,631.8,579.8,632,579.7z M565.5,484.3c0.6,0.1,1.2,0.2,1.8,0.3c1.8,0.1,2.2,0.5,2,2.3
				c-0.1,0.5,0,1.1,0,1.8c0.5-0.2,0.7-0.4,1-0.5c2.1-1.1,3.4-0.7,4.3,1.5c0.3,0.8,0.9,1.1,1.6,1.1c1.8,0.1,3.3-0.5,4.4-1.9
				c1.2-1.5,3.1-2,4.5-1.6c1.7,0.5,3.3,1.5,5,1.9c0.3,0.1,0.6,0.3,0.9,0.4c0-0.4,0.1-1.1-0.1-1.2c-0.8-0.7-1.2-1.4-1.2-2.5
				c0-0.8-0.2-1.6-0.2-2.3c0-0.7-0.1-1.6,0.3-2.1c0.9-1.3,0.3-2-0.7-2.8c-1.5-1.1-1.7-2.6-1.6-4.4c0.1-2.3,0.1-4.6-0.2-6.9
				c-0.2-1.8-0.7-3.6-1.1-5.4c-0.2-1-0.3-1.9,0.9-2.4c0.3-0.1,0.5-1.2,0.3-1.4c-1.2-1-1.1-2.5-1.4-3.9c-0.2-1-0.7-1.9-1.8-2.3
				c-1.8,1.6-2.7,3.8-4.4,5.5c-1.2,1.2-1.8,3.1-1.8,4.9c0,0.7-0.4,1.3-0.5,2c-0.1,0.4-0.4,0.9-0.3,1.3c0.2,1-0.1,1.6-1.2,1.5
				c-1.2,0-1.5,0.5-1.2,1.7c0.1,0.4-0.1,1.3-0.2,1.3c-1.4,0-1.3,1.1-1.5,2c-0.2,0.8-0.3,1.9-0.8,2.4c-2,2-3.7,4.1-4.7,6.7
				c-0.1,0.1-0.2,0.3-0.4,0.3C565.8,482,565.9,483.3,565.5,484.3c-0.9,1.1-1.2,1.7-1.8,3.8c-0.1,0.3-0.3,0.5-0.5,0.8
				c-1,1.8-2,3.6-3.1,5.2c-1,1.5-2.1,2.9-3.2,4.3c-0.2,0.3-0.4,0.7-0.6,1.1c0.5,0.2,0.9,0.5,1.4,0.6c0.5,0.1,1.3-0.4,1.5-0.2
				c0.9,1.1,1.9,0.9,3.1,0.8c1.2-0.1,1.9,0.6,2,1.8c0,0.4-0.2,0.8-0.2,1.2c0,0.2,0.3,0.5,0.6,0.7c0.1,0.1,0.5-0.1,0.6-0.2
				c0.7-1.6,1.5-0.8,2.4-0.2c0.7,0.5,1.5,1,2.3,1.1c1.8,0.3,3.1-0.7,3.7-2.3c1.2-3.1,2.4-6.2,3.6-9.4c-0.4-0.2-0.5-0.3-0.7-0.3
				c-2.3,0.2-4.6,0.9-6.2-1.6c-0.2-0.3-1.2-0.2-1.7,0c-1.5,0.4-2.2,0.2-2.6-1.3c-0.2-0.9-0.1-2,0.2-3
				C566.5,486.1,566.6,485.1,565.5,484.3z M511.2,502.7c-0.4,0.4-0.8,0.7-1.1,1.1c-0.3,0.3-0.6,0.9-0.9,0.9c-1.3,0-2.9,0.2-3.9-0.4
				c-1.2-0.8-2-0.8-3,0c-0.2,0.1-0.5,0.2-0.7,0.1c-1.6-0.8-3.2-1.6-4.7-2.5c-1.3-0.7-2.3-2-3.7-2.4c-1.4-0.4-2.3-1.2-2.9-2.3
				c-0.5-0.9-1.1-1.4-1.9-2c-0.6-0.4-1.1-0.9-1.6-1.4c-0.8-0.8-1.6-1.8-2.5-2.5c-1-0.8-1.9-1.6-2.1-3c-0.1-0.9-0.7-1.7-1.3-2.5
				c-0.4-0.6-2.5-0.3-2.5,0.3c-0.1,1.1,0.1,2.3,0.3,3.5c0,0.1,0.9,0,1.4,0c0.2,0,0.5,0.2,0.5,0.4c0.6,2.5,2.8,4.3,2.7,7.1
				c-0.1,1.4,0.7,2,2,2.1c0.4,0,0.8,0.1,1.2,0.1c1-0.1,1.1,0.5,1,1.2c0,0.3-0.3,0.6-0.4,0.9c-0.4,1.3-0.3,1.4,1.1,1.4
				c0.6,0,1.6,0,1.8,0.3c0.8,1.7,2.8,2.1,3.8,3.4c0.5,0.7,0.8,1,1.6,0.1c0.6-0.7,1.4-0.3,1.7,0.5c0.4,1,0.6,2.1,1,3.1
				c0.6-0.4,1.2-0.8,1.7-1.2c0.4,0.7,0.8,1.5,1.2,2.2c0,0.1,0,0.2,0,0.2c0,1.6,0.7,2.5,2.3,2.9c0.8,0.2,1.7,0.7,2.3,1.2
				c1.4,1.3,3,1.9,4.7,2.4c1.8,0.5,2,0.7,2.2,2.7c0.1,0.5,0.4,1.1,0.8,1.3c0.4,0.2,1.1,0,1.4-0.3c0.7-0.8,1.4-0.7,2.3-0.4
				c0.8,0.2,1.7-0.2,2.5-0.1c0.3,0,0.7,0.5,0.8,0.8c0.4,1.9,1.6,2.1,3.2,1.9c0.9-0.1,2,0.2,1.8,1.3c-0.3,1.8,1.7,1.7,2.1,2.9
				c0,0.1,0.8,0,1.1-0.1c0.6-0.3,1.1-0.8,1.7-1.2c0,0.8-0.1,1.6-0.1,2.5c0,0.1,0.2,0.2,0.3,0.3c0.1,0,0.2,0,0.2,0
				c0.1-0.2,0.3-0.4,0.4-0.6c0.8-1.6,0.8-1.7,2.5-1.3c0.4,0.1,0.8,0.4,1.1,0.3c0.5-0.2,1.2-0.5,1.4-1c1.5-3.3,3-6.7,4.4-10.1
				c0.5-1.3,1-2.5,2.3-3.1c0.2-0.1,0.5-0.5,0.5-0.7c-0.1-1.7,0.8-3,1.5-4.5c0.6-1.3,1.3-2.5,2-3.7c0.7-1.4,1.2-3,2.3-4
				c1-0.8,1.2-1.6,1.4-2.7c0.2-1.2,0.1-2.6,0.7-3.7c2.4-4.1,5-8,7.5-12c1-1.5,2-3,2.9-4.6c0.2-0.4,0.4-1,0.2-1.4
				c-0.6-1.5,0.1-2.7,0.7-3.8c1.2-2.1,2.6-4,2.5-6.5c0-0.3,0.3-0.8,0.5-1c0.9-0.7,0.9-1.5,0.9-2.5c0-1.2,0.1-2.5,1.8-2.6
				c0.3,0,0.7-0.7,0.7-1.1c0.3-2.1,0.9-4.2,0.8-6.3c-0.1-3.6,0.9-6.6,3.1-9.4c0.6-0.8,0-3.5-0.8-3.5c-0.8,0-1.5-0.1-2.1-0.8
				c-0.2-0.2-1.1-0.1-1.4,0.2c-1.7,1.3-3.8,1.9-5.4,3.3c-0.4,0.4-1.3,0.3-2,0.4c-0.6,0.1-1.2,0.2-1.7,0.5c-1.7,1.1-3.1,2.7-5.4,2.6
				c-1.1,1.3-2.8,0.9-4.2,1.5c-1.6,0.7-3.3,1.2-4.9,1.7c-0.3,0.1-0.7,0.1-0.9,0.2c-1.9,2-4.3,3.2-6.8,4.5c-1.9,1-3.7,2.4-5.8,2.9
				c-1.5,0.4-2.7,0.9-3.8,1.8c-0.9,0.8-1.8,1.3-3,0.9c-0.3-0.1-0.7,0-0.9,0.1c-1.5,1.4-3.8,1.5-5,3.4c-0.3,0.4-0.9,0.7-1.4,0.8
				c-1,0.2-1.2,1-0.9,1.6c1,2.1,2,4.1,4.6,4.6c0.5,0.1,0.9,0.3,1.3,0.5c2.7,1.2,5.2,3,8.4,1.6c0.2-0.1,0.7,0,0.8,0.2
				c0.2,0.2,0.3,0.7,0.2,0.9c-0.9,0.8-1.3,2.4-2.8,2.2c-2.7-0.4-5.6,0.6-8-1.3c-0.3-0.2-0.8,0-1.2-0.1c-0.5-0.1-1.2-0.1-1.6-0.4
				c-1.7-1.5-3.5-3-5.1-4.6c-1-1-1.9-1.2-3-0.3c-1.1,0.9-2.4,2.1-3.7,2.4c-1.6,0.4-2.5,1.6-3.9,2.1c-0.2,0.1-0.4,0.8-0.2,1
				c0.7,0.7,1.5,1.9,2.2,1.9c1.8,0,2.2,1.3,3.1,2.3c1,1.2,1.9,2.6,3.2,3.4c1.7,1,2.8,3,5,3.5c0.9,0.2,1.6,1.1,2.6,0.4
				c0.1-0.1,0.6,0.3,0.6,0.3c-0.3,0.7-0.2,1.2,0.6,0.8c0.4-0.2,0.8-1,0.7-1.2c-0.7-1-0.6-1.7-0.1-2.8c0.5-0.9,0.3-2.1,1-3
				c0.6-0.7,1.1-1.4,2.2-1c0.9,0.4,1.3,1,1.2,2.1c-0.1,1.3,0,2.5,0.1,3.8c0.1,1.3,0.3,1.4,1.7,1.1c0.7-0.1,1.6-0.3,2.1,0
				c2.1,1.4,4.4,2.4,6,4.6c0.9,1.2,1.8,2.4,2.8,3.5c0.2,0.2,0.9,0.2,1.1,0.1c1.4-1.1,2.7-2.3,4.1-3.5c0.9,2.2,0.9,2.2-0.8,3.4
				c-1,0.7-1.7,2.1-1.2,3c0.7,1.2-0.1,2-0.4,2.9c-0.4,1.3-1.7,1-2.7,0.9c-2.2-0.2-4.6,0-6.2-2.3c-0.2-0.3-1-0.4-1.5-0.5
				c-1.1-0.2-2.1-0.4-2.2-1.8c0-0.3-0.3-0.6-0.5-0.8c-2.6-2.2-4.6-4.8-6.3-8c-0.5,0.8-0.9,1.6-1.5,2.2c-0.4,0.4-1.5,0.9-1.7,0.8
				c-1.4-1.1-3-1.6-4.7-1.9c-0.4-0.1-0.8-0.5-1.1-0.9c-0.7-1-1.7-1.3-2.7-1.8c-0.9-0.5-1.4-1.8-2.1-2.7c0-0.1-0.1-0.1-0.2-0.1
				c-1.6-1.4-3.3-2.8-4.7-4.3c-0.6-0.7-1.1-1-2-0.9c-1,0.1-2.2,0.3-3.1-0.1c-1.5-0.8-2.6-0.3-3.7,0.5c-0.7,0.5-1.4,1-2.1,1.6
				c-1.1,0.9-1.9,2.1-3.6,1.8c-0.7-0.1-1.5,0.5-2.2,1c-1.3,0.8-1.7,1.7-1,3c0.7,1.4,1.3,3,3.2,3.5c0.3,0.1,0.6,0.5,0.8,0.8
				c0.6,0.7,1.1,1.5,1.8,2.1c1.2,1.1,2.5,2,3.6,3.1c1.1,1.2,3.1,1.3,3.4,3.2c0,0.1,0.4,0.3,0.6,0.3c1.8-0.3,2.9,1.1,4.3,1.7
				c1.2,0.5,2.3,1,3.8,0.9C507.9,501.2,510.1,500.7,511.2,502.7L511.2,502.7z M535.7,556.9c-1,0.1-1,0.8-0.9,1.6
				c0.2,1.1,0.2,2-1.3,2.3c-0.9,0.2-1.5,1.1-1.3,2c0.4,2.1-0.6,3.7-1.5,5.3c-0.9,1.6-0.7,2.6,0.6,3.8c1.2,1.1,3,1.2,3.9,2.8
				c0.1,0.2,0.6,0.1,0.9,0.2c0.6,0.1,1.2,0.3,1.8,0.4c0.4,0.2,0.7,0.4,1.1,0.7c0-0.1,0.1-0.2,0.1-0.3c-0.4-0.1-0.8-0.2-1.3-0.3
				c0.1-0.5,0.1-1.1,0.3-1.6c0.1-0.4,0.2-1,0.5-1.2c1.3-1,2.7-1.9,4.1-2.7c0.7-0.5,2.1-0.1,2.5,0.6c0.5,0.8-0.2,1.1-0.7,1.5
				c-0.1,0-0.1,0.1-0.2,0.1c-0.8,0.8-0.8,0.9,0.3,1.4c1.2,0.5,2.5,0.8,3.5,1.5c1.4,1.1,2.7,2.5,3.9,3.8c1.1,1.3,2.7,2.3,2.4,4.4
				c0,0.2,0.3,0.6,0.6,0.6c2.5,0.9,3.4,3.1,4.1,5.4c0.2,0.5,0.3,1,0.6,1.7c0.9-2,1.3-2.2,2.1-1.3c1.1,1.4,2.6,1.5,4.1,1.6
				c1.2,0.1,1.5,0.3,1.4,1.5c0,0.6,0.5,1.3,0.9,1.8c0.9,1,1.9,1.9,2.9,2.7c0.3,0.2,1,0.4,1.3,0.2c0.9-0.5,1.6-0.1,2.4,0.3
				c0.9,0.5,1.9,0.7,2.9,0.9c1.3,0.2,2.4,0.7,3.2,1.8c0.9,1.2,0.9,1.6-0.4,2.3c-0.9,0.4-1.8,0.6-2.7,1c-0.4,0.2-0.6,0.9-0.9,1.4
				c0.5,0.1,1,0.2,1.5,0.2c0.6,0,1.3-0.4,1.8-0.2c1,0.3,2,0.9,3,1.3c0.5,0.2,1.3,0.2,1.7,0c1.1-0.8,1.9-0.6,2.7,0.3
				c0.3,0.3,0.7,0.6,1,0.6c2.8,0,5.7,0.2,8.4-1.1c0.6-0.3,1.2-0.5,1.8-0.6c1.8-0.5,3.7-1.1,5.5-1.4c1.9-0.3,3.6-1.7,5.7-1.4
				c0.3,0,0.8-0.2,1.1-0.5c1.5-1.8,3.7-1.8,5.7-1.9c3.1-0.3,6.1-0.9,9.1-1.7c1.4-0.4,1.7-1.1,1.4-2.5c-0.1-0.6-0.1-1.2-0.2-1.9
				c-0.1-0.7,0.1-1.4-0.8-1.8c-0.3-0.1-0.3-1-0.5-1.5c-0.2-0.5-0.3-1-0.6-1.4c-0.3-0.5-0.9-1-1.1-1.5c-0.6-1.4-1.1-2.6-2.7-3.1
				c-0.3-0.1-0.5-0.5-0.7-0.9c-0.5-0.8-1-1.6-1.6-2.5c-0.8,0.9-1.4,1.6-2,2.1c-1.2,1.1-1.7,1-3.1-0.1c-0.5-0.4-1.1-0.6-1.7-0.8
				c-0.5-0.2-1.1-0.2-1.6-0.5c-2.3-1.7-4.2-3.8-7-4.9c-0.2-0.1-0.5-0.5-0.5-0.8c0-1.4-1.2-1.7-2-2.4c-0.5-0.4-1.1-0.6-1.5-1.1
				c-1.2-1.5-2.9-1.7-4.6-1.8c-1.2-0.1-2.2,0-3.2-1.1c-0.7-0.8-2.2-0.8-1.8-2.5c0-0.1-0.2-0.2-0.3-0.3c-2-0.8-3.1-2.7-4.6-4.2
				c-0.4,0.4-0.6,0.9-1,1c-0.5,0.3-1.3,0.6-1.7,0.4c-2.2-1.3-4.3-2.6-6.3-4.2c-0.8-0.6-1.2-0.8-2-0.3c-0.5,0.3-1.1,0.4-1.7,0.4
				c-1.1,0-1.4-0.8-1.7-1.7c-0.5-1.5-0.5-1.5-1.6-0.4c-0.3,0.3-0.9,0.5-1.2,0.4c-1-0.7-2-1.4-2.9-2.3c-1.3-1.3-2.6-2.7-3.9-4
				c-0.2-0.2-0.6-0.1-0.8-0.1c-1.3,0.1-2.3-0.4-2.8-1.7c-0.1-0.3-0.5-0.8-0.6-0.7c-2,0.4-2.1-1.2-2.6-2.3c-2.4,1.4-2.6,1.3-4.6-0.4
				c-1-0.9-2.2-1.7-3.6-1.5c-1.2,0.1-2.1-0.3-2.7-1.2c-1.1-1.5-3.2-2.5-2.9-4.9c-1.5-1.6-3-3.2-4.6-4.8c-0.2-0.2-0.9-0.1-1.3,0.1
				c-2.2,0.9-2.2,0.9-3.5-1.1c-0.3-0.4-0.4-1-0.7-1.4c-0.2-0.3-0.6-0.7-0.9-0.7c-0.8,0.1-1.5,0.4-1.9-0.7c-0.1-0.3-1-0.6-1.2-0.5
				c-1.7,1.1-3.3,0-4.7-0.5c-1.5-0.6-3.8-0.9-3.4-3.6c0-0.1-0.4-0.4-0.7-0.5c-0.6-0.2-1.4-0.2-1.8-0.6c-1.1-1.1-2.2-1-3.5-0.7
				c-1,0.2-2.1,0.4-2.6-1c-0.3-0.8-0.9-0.6-1.6-0.6c-2.9-0.1-5.5-1.1-6.8-3.8c-0.7-1.4-1.5-2-2.9-2c-1.2-0.1-2.2-0.2-2.3-1.8
				c0-0.4-0.8-0.8-1.3-1.1c-1.2-0.7-2.7-1-3-2.7c0-0.3-0.6-0.5-0.9-0.7c-0.5-0.3-1.2-0.5-1.7-0.9c-1.3-1.1-2.6-2.3-3.8-3.5
				c-1.3-1.3-2.7-1.4-4.4-0.3c0.8,0.9,1.5,1.8,2.4,2.6c1.4,1.4,2.7,3,4.3,3.9c1.1,0.6,1.6,1.3,2.1,2.3c0.4,0.6,1,1.5,1.6,1.6
				c1,0.1,1.3,0.6,1.6,1.4c0.7,1.6,1.7,3,3.7,3.2c0.2,0,0.5,0.1,0.6,0.3c0.7,1,1.4,2.1,2.2,3.1c0.5,0.6,0.9,1.4,1.5,1.8
				c1.5,1.2,3.1,2.3,4.6,3.5c0.2,0.2,0.4,0.5,0.6,0.8c1.3,2,2.8,3.6,4.9,4.8c1,0.6,2,1.2,2.1,2.6c0.1,0.7,0.6,1.5,1.6,1.8
				c0.8,0.3,1.8,2.8,1.3,3.2c-0.8,0.6-1.8,1.2-2.7,1.2c-0.9,0.1-0.9-1-1.2-1.8c-0.3-0.8-0.8-1.9-1.4-2c-1.7-0.3-2.4-1.8-3.7-2.5
				c-0.2-0.1-0.5-0.5-0.4-0.8c0.2-1,0.2-1.9-0.8-2.5c-0.8-0.4-1.7-0.7-2.6-1.1c-0.6-0.3-1.2-0.5-1.6-0.9c-0.9-1-1.8-2-2.4-3.2
				c-0.9-1.7-2.1-2.9-4-3.5c-1.6-0.5-2.6-1.7-2.8-3.2c-0.3-1.5-1.1-2.1-2.3-2.8c-0.7-0.4-1.3-0.8-1.8-1.4c-0.6-0.6-1.1-1.3-1.7-1.9
				c-0.7-0.7-1.7-1.2-2.1-1.9c-0.7-1.6-2.1-2.3-3.4-3.1c-0.4-0.3-0.8-0.7-1.1-1.1c-0.5-0.7-0.8-1.6-1.5-2c-2.7-1.8-5.3-3.8-7.3-6.4
				c-0.4-0.5-1-0.7-1.5-1c-1.5-1.1-3.7-1.2-4.2-3.6c0-0.2-0.5-0.4-0.7-0.4c-1.5,0.3-2.1-0.8-3-1.6c-1.6-1.6-1.6-1.9,0.3-3.1
				c0.6-0.4,1.4-0.8,2.2-0.8c1.5,0,1.9-1.3,2.8-2c0.1-0.1,0-0.7-0.2-1c-0.4-0.7-0.9-1.4-1.4-2.1c-0.2-0.3-0.4-0.6-0.6-0.7
				c-1.9-0.4-2.7-2.1-3.9-3.3c-1.2-1.3-2.5-2.7-3-4.7c-0.3-1.1-1.2-2.5-2.3-2.9c-2.5-1.1-2.8-3.2-3-5.3c-0.2-1.6-0.1-3.1-2.3-3
				c-0.3,0-0.7-0.4-1-0.6c-1-0.9-1.9-1.8-3.1-2.9c0,1.1,0,2,0,2.9c0,0.4,0.2,0.9,0.1,1.1c-1,1.3-0.8,2.8-0.9,4.3
				c-0.3,2.4,0.9,4,3.4,4.1c0.8,0,1.1,0.3,1.3,1c0.2,0.6,0.6,1.2,0.7,1.8c0.3,2,2.4,2.3,3.5,3.5c0.6,0.7,1.1,0,1.7-0.2
				c0.2-0.1,0.5,0.1,0.6,0.2c0.5,0.5,1.1,1.1,1.6,1.7c-0.8,0.7-1.5,1.5-2.3,2.1c-0.4,0.3-1,0.2-1.5,0.2c-0.5-0.1-1-0.5-1.5-0.6
				c-2.7-0.5-4.6-1.9-5.1-4.7c-0.2-1.4-1.2-1.8-2.1-2.4c-0.7-0.5-1.5,0-1.4,0.9c0,1.1,0.5,2.2,0.4,3.3c-0.2,1.9-0.8,3.8-1.1,5.7
				c-0.1,0.6-0.1,1.6,0.2,1.9c1.2,1.1,1,2,0.2,3.1c-0.5,0.7-1.1,1.7-0.3,2.6c0.9,1.1,1,2.2,0.7,3.5c-0.1,0.4,0,1,0.2,1.4
				c0.6,1.7,0.7,3.3-0.4,4.9c-0.8,1.2-0.1,2.3,1.2,3.4c0.4,0.3,0.7,1.2,0.7,1.8c0,0.6-0.1,1.3,0.6,1.3c1.3-0.1,1.1,0.9,1.3,1.5
				c0.3,0.7,0.9,1.7,0.6,2.2c-0.9,1.6,0.1,3.1,0.1,4.6c0,0.5,0.4,1.2,0.7,1.6c1.5,2,1.3,4.3,1.6,6.6c0,0.3-0.1,0.6-0.3,0.9
				c-0.5,0.7-0.6,1.3,0.2,1.8c0.7,0.4,1.3,1,2,0c0.7-1,1.7-0.7,2.5,0c1.2,1.1,2.4,2.3,3.6,3.5c1.7,1.7,3.2,3.6,5.1,4.9
				c2.3,1.5,2.8,3.8,3.8,6c0.3,0.6,0.4,1.6,0.1,2.3c-0.4,1.1,0.2,1.4,1,1.8c0.9,0.5,1-0.2,1.4-0.7c0.2-0.4,0.8-0.9,1.2-0.9
				c0.7,0,2,1.8,1.8,2.5c-0.5,1.7,1.3,1.8,1.7,2.9c2.2,0.1,2.1,1.7,2.3,3.2c0,0.3,0.5,0.8,0.5,0.8c1.2-0.8,1.4-0.1,1.8,0.9
				c0.1,0.4,1,0.8,1.3,0.8c1.1-0.3,1.7,0.5,2.6,0.9c1.6,0.8,2.4,2.5,4.3,3.2c1.6,0.6,3,2,5,2c0.3,0,0.6,0.1,0.9,0.3
				c1.1,0.7,2.2,1.4,3.4,2.1c3.2,1.8,5.7,4.1,7.5,7.3c0.7,1.2,1.6,1.4,2.4,0.3c0.7-0.9,0.9-2.1,1.3-3.2c0.1-0.1,0.3-0.2,0.3-0.4
				c0.1-0.5,0.2-1,0.3-1.5c0,0-0.2-0.1-0.4-0.2c-0.2,0.5-0.4,1-0.4,1.5c0,0.2,0.2,0.4,0.3,0.6c-0.5,0.1-1.1,0.3-1.6,0.2
				c-1.6-0.2-2-0.9-1.6-2.5c0.5-2.1,1.9-3.8,3.2-5.4c1.3-1.5,2.8-2.7,3.4-4.7c0.2-0.6,1-1,1.6-1.4c1-0.6,2.5-0.7,2.2-2.6
				c0-0.2,0.4-0.7,0.8-0.9c1.6-1,2.8-2.5,4-3.9c1.7-2.1,4.6-2.1,6.5-3.8c0.1-0.1,0.3,0,0.5,0c1.2,0.8,1,2.7,2.6,3.1
				c0.1,0,0.3,0.4,0.2,0.6c-0.1,0.4-0.2,0.8-0.4,1.1c-0.3,0.4-0.7,0.7-0.9,1.1c-0.2,0.4-0.4,1.2-0.2,1.4c0.5,0.5,1.1,0.4,1.7-0.1
				c1.7-1.8,2.2-1.8,4.3-0.6C536,554.7,536.2,555.1,535.7,556.9L535.7,556.9z M545.2,520.9c1-0.3,1.6-0.6,2.3-0.6
				c1.1,0,2.2,0.4,3.3,0.3c1.5-0.1,2.7,0.4,3.9,1.2c1.2,0.7,2.1,2,3.6,2.1c0.2,2.1,2.3,1.9,3.5,2.9c0.4,0.3,0.9,0.5,1.1,0.9
				c1.1,1.6,2.8,2.5,4.4,3.5c2.2,1.3,4.5,2.5,6.9,3.3c1.9,0.7,2.9,3.1,5.4,2.7c0.1,0,0.5,0.4,0.5,0.7c0.5,1.7,1.8,2.3,3.3,2.8
				c1.6,0.5,2.8,1.4,3.5,3.2c0.8-2.6,1.2-5,0.9-7.6c-0.2-2-0.3-3.9-0.4-5.9c-0.1-1.4,0.3-1.9,1.7-1.7c1,0.1,0.9-0.2,0.7-0.9
				c-0.2-0.6-0.5-1.2-0.9-1.7c-0.3-0.4-0.8-0.7-1.1-0.1c-0.6,1-1.8,1.8-1.3,3.4c0.1,0.4-0.5,1.4-1,1.6c-0.7,0.3-1.9,0.4-2.3-0.6
				c-0.4-1-1.1-1.4-1.9-2c-1.7-1.2-1.7-1.3-3.3-0.4c-2.1,1.2-3.4,0.9-4.9-0.9c-0.3-0.4-0.9-0.9-1.2-0.9c-1.4,0.3-2.4-0.6-3.4-1.2
				c-1.2-0.7-1.2-1.3-0.7-2.6c0.9-2.1,1.9-4.2,2.6-6.3c0.7-2.1,0.8-4.3,2.6-5.9c0.6-0.6,0.3-2.2-0.4-2.9c-0.9-0.8-1.4,0-2,0.4
				c-0.5,0.3-1.1,0.5-1.7,0.4c-1-0.1-2.3,0-2.9-1.3c-1-2-1.7,1.5-2.7,0.1c0-0.1-0.1-0.1-0.2-0.1c-1-0.6-2.3-0.6-3-1.9
				c-0.3-0.5-1.1-1-1.6-1c-1.2,0.1-2.4,0.4-3.4,0.9c-0.6,0.3-1,1.2-1.3,1.9c-0.6,1.4-0.5,3.2-2.5,3.8c-0.1,0-0.3,0.3-0.2,0.4
				c0.3,1.7-0.9,2.4-1.9,3.2c-0.2,0.2-0.1,0.7-0.3,1.1c-0.3,0.8-0.4,2.1-0.9,2.3C546.6,518.2,546.4,519.8,545.2,520.9z M557.6,546.1
				c0.2-0.5,0.3-0.9,0.4-1.3c0.3-0.7,1-0.9,1.3-0.4c0.6,1.1,1.7,1.1,2.6,1.4c0.7,0.2,1.3,0.9,1.8,1.4c0.7,0.8,1.3,1.7,2.3,2.4
				c1.2,0.8,2.1,2.1,2.8,3.4c1,1.9,0.9,2,3,1.1c0.7-0.3,1.2-0.3,1.7,0.2c0.4,0.3,0.9,0.7,1.5,0.8c1.3,0.3,2.3,0.9,2.9,2.2
				c0.2,0.3,0.8,0.8,1.1,0.7c1.4-0.3,2.4,0.5,3.6,0.9c0.7,0.3,1.4,0.5,2.1,0.5c1.4,0,2.5-1.4,1.9-2.4c-1.3-1.9,0.1-3,1.1-4
				c0.8-0.7,0.8-1.2,0.3-2c-0.7-1.2-1.5-2.4-2-3.7c-1.1-2.8-3-4.4-5.9-4.9c-0.9-0.1-1.6-0.5-1.5-1.7c0-1.6-0.4-1.8-2-1.7
				c-0.2,0-0.6,0.2-0.7,0.1c-0.5-0.4-0.9-1.1-1.5-1.3c-0.5-0.2-1.6,0.3-1.9,0c-1.8-2-4.3-2.4-6.6-3c-1.2-0.3-2-0.7-2.5-1.9
				c-0.5-1.1-1.1-2-2.6-1.6c-0.3,0.1-0.8-0.3-1.2-0.5c-0.4-0.3-0.8-0.7-1.2-1.1c-1.4-1.2-2.6-2.7-4.8-2.5c-0.2,0-0.4-0.4-0.6-0.7
				c-0.5-1-1.1-1-1.9-0.5c-0.3,0.2-0.5,0.4-0.8,0.6c-0.8,0.4-1.6,0.6-1.9-0.6c-0.3-1.5-1.4-1.6-2.6-1.9c-1.6-0.5-2.1,0.4-2.7,1.5
				c-0.2,0.4-0.7,0.8-0.8,1.2c-0.3,1.4-1.3,2.1-2.5,2.7c-0.2,0.1-0.5,0.2-0.7,0.3c-0.8,0.6-0.8,1.3-0.4,2.1c0.4,0.9,0.8,0.5,1.5,0.5
				c1.4-0.1,2.7-0.3,3.1-1.9c0.1-0.3,0.5-0.7,0.8-0.8c0.8-0.2,1.1-0.7,1.4-1.4c0.6-1.3,1.8-1.5,2.7-0.4c2.3,2.6,5.1,4.4,8.5,5.3
				c0.7,0.2,1.5,0.4,1.9,0.9c1,1.4,2.6,1.8,3.9,2.6c1.7,1.1,3.3,2.3,5,3.5c0.2,0.1,0.5,0.3,0.5,0.5c0.3,1.5,1.7,1.9,2.7,2.6
				c0.9,0.7,2.4,0.7,2.2,2.4c0,0.1,0.6,0.3,1,0.4c1,0.4,1.2,0.8,0.5,1.7c-0.8,1.1-1.8,1.1-2.8,0.1c-1-1-1.9-1.8-3.5-1.2
				c-0.9,0.3-1.5-0.1-1.8-1.1c-0.3-1-0.6-1.9-0.9-2.9c-2.6,1-2.5,0.9-4.1-1.3c-0.5-0.7-1.5-1.1-2.3-1.3c-0.7-0.2-1-0.5-1.5-0.9
				c-1.3-0.9-2.7-1.6-4.1-2.4c-0.1,0-0.3,0.2-0.4,0.2c-1.7,0.6-1.7,0.6-2.6-1c-1.4-2.6-4.3-3.3-6.5-1.6c-0.7,0.6-1.5,1.2,0,1.9
				c0.3,0.1,0.3,0.8,0.4,1.2c0.2,0.5,0.3,1.1,0.6,1.6c0.4,0.6,1.1,1,1.4,1.6c0.6,1.5,1.8,1.6,3.2,1.6c1-0.1,2-0.1,2.9,0.7
				c0.3,0.3,1.1-0.1,1.7-0.1c0.4,0,1-0.1,1.1,0C556.2,543.8,556.8,544.9,557.6,546.1z M559.1,596.3c-2.3,0.8-2.3,0.8-3.1-1.3
				c-0.3-0.7-0.4-1.4-0.7-2c-0.5-0.9-1-1.7-1.7-2.5c-0.9-1-1.9-1.9-2.9-2.8c-0.3-0.3-0.6-0.8-0.8-0.8c-1.5,0.1-2.4-1.1-3.5-1.7
				c-1.6-0.8-3.4-1.4-4.4-3.2c-0.1-0.2-0.7-0.5-1-0.4c-1.7,0.5-2.6-0.6-3.7-1.6c-0.7-0.7-1.6-1.4-2.5-1.8c-1.1-0.5-2.2-0.8-3-1.8
				c-0.2-0.3-0.9-0.5-1.2-0.4c-1.1,0.4-1.6-0.5-2.3-0.9c-0.5-0.3-0.9-0.7-1.4-1c-0.1,0.6-0.3,1.2-0.4,1.8c-0.1,0.5-0.1,1-0.1,1.4
				c0,0.8-0.1,1.7,1.3,1.2c0.2-0.1,1.1,0.4,1,0.6c-0.1,0.9,0.6,1.1,1.1,1.5c1,0.7,1.8,1.8,2.5,2.8c0.6,0.8,1,1.8,1.4,2.7
				c1.7-0.5,1.7,0.6,1.6,1.8c0.3,0,0.6,0,0.9,0.1c0.9,0.1,1.5,0.4,1.3,1.5c-0.2,1.1-0.2,2.2-0.2,3.3c0,0.4,0.3,0.9,0.6,1.2
				c0.5,0.5,0.7,0,1.1-0.3c0.9-0.5,1.3-1,1.1-2.2c-0.1-1.1,0.4-1.3,1.5-0.7c0.2,0.1,0.4,0.3,0.6,0.4c0.9,0.5,2.3,0.8,2.5,1.4
				c0.4,1.3-1,1.7-2,2.3c-0.6,0.3-0.4,0.8,0.1,1.1c0.3,0.2,0.6,0.2,0.9,0.3c1.6,0.4,3.2,0.9,4.9,1.1c1.6,0.2,2.9,2.1,4.8,0.8
				c0.1-0.1,0.5,0.1,0.7,0.1c1.8,0.7,3.6,1.1,5.2,2c1.2,0.7,1.8,0.1,2.5-0.4c0.7-0.5,0.8-1.2,0.2-1.9c-0.5-0.6-0.9-0.3-1.4,0.1
				c-1,0.7-1.4,0.4-1.5-0.8C559.3,596.9,559.2,596.6,559.1,596.3z M514.8,576.5c-0.1,0.3-0.3,1.1-0.6,1.1c-0.6,0-1.3-0.3-2-0.5
				c-0.1,0-0.2-0.3-0.2-0.4c-0.1-0.8-0.5-1.6-1.3-1.3c-0.5,0.2-0.7,1.1-0.9,1.7c-0.1,0.4,0,1,0.3,1.3c0.8,1.1,1.6,2.1,2.6,3
				c1.7,1.5,4.1,0.5,4.5-1.8c0.1-0.5,0.5-0.9,0.8-1.3c0.9-0.9,1.9-1.7,2.6-2.8c0.8-1.1,1-2.5,1.9-3.6c0.8-1,0.6-2.9,2.4-3.2
				c0.1,0,0-0.3,0.1-0.4c0.5-1.5,0.6-3.1,2.7-3.4c0.2,0,0.4-0.7,0.3-0.9c-0.7-0.9-0.3-1.7-0.1-2.6c0.1-0.5,0.9-2.1-0.9-2.4
				c-0.4-0.1-0.7-0.5-1-0.8c-0.1,0.5-0.4,1-0.4,1.5c0,0.5,0.4,0.9,0.4,1.4c0,0.6-0.3,1.7-0.5,1.7c-1.3,0.1-1.3,1.5-2.1,2.1
				c-2.5,1.8-3.2,4.9-4.9,7.2c-0.7,1-1.2,2-2.5,2.2C514.9,574.7,514.3,575.1,514.8,576.5z M589.9,500.6c0.3-0.8,0.4-1.5,0.7-2.1
				c0.3-0.6,0.8-1.2,1.1-1.8c0.8-2,0-2.9-2.2-3.2c-1.3-0.1-2.6-0.6-3.8-1.2c-2.5-1.3-3.6-1.1-4.9,1.3c-0.3,0.6-0.4,1.4-0.5,2.1
				c-0.4,2.1-0.4,4.4-1.3,6.2c-0.8,1.5-1.2,3.2-2,4.7c-1.3,2.7-1.6,5.6-2.1,8.4c-0.3,1.6-0.6,3.3-1.7,4.7c-0.2,0.2-0.2,0.9-0.1,1
				c0.7,0.3,1.4,0.6,2.2,0.6c0.2,0,0.5-0.8,0.6-1.3c0.7-2.2-0.1-4.5,0.8-6.7c0.3-0.8,0.6-1.6,0.7-2.5c0.3-2.5,1.9-4.6,2.1-7.1
				c0-0.3,0.3-0.6,0.6-0.7c1.3-0.3,1.5-1.4,1.4-2.4c-0.1-1.1,0.4-2,1.1-2.8c0.7-0.7,1.4-1.4,1.9-2.2c0.8-1.2,1.9-1.2,3-0.9
				c1.1,0.3,1.1,1.3,1.2,2.3C588.8,498.1,588.7,499.5,589.9,500.6z M480.1,504.3c-0.3-1.6-0.4-2.9-0.7-4.2c-0.2-1-0.7-1.7-1.5-2.3
				c-0.6-0.4-1.2-0.9-1.4-1.5c-0.6-1.8-2.1-2.7-3.3-3.9c-1.1-1.1-2.5-1.8-4-0.5c-0.2,0.2-0.6,0.2-0.9,0.3c-1.2,0.4-1.6,1-1,2.1
				c0.5,0.9,1.1,1.7,1.9,2.3c0.8,0.7,2.1,0.9,2.8,1.6c1.2,1.2,3,1.5,4,3.1c0.7,1.2,1.8,2.2,2.8,3.2c0.2,0.2,0.6,0.3,0.8,0.3
				C479.9,504.6,480.1,504.3,480.1,504.3z M523.6,579.4c-0.2,0.3-0.5,0.5-0.5,0.6c0.1,1.9-1.4,2.7-2.4,3.8c-0.3,0.3-0.6,0.6-0.7,0.9
				c-0.1,0.3,0.1,0.9,0.3,0.9c0.9,0.3,1.9,0.8,2.7,0.5c2.3-0.9,3.6,0.4,4.9,1.8c0.4,0.4,0.9,1.1,1.5,1.1c1,0.1,1.8,0.2,2.6,1
				c0.5,0.5,1.2,0,1-0.7c-0.1-0.6,0-1.6-1-1.6c-1-0.1-1.1-0.9-1.6-1.5c-1.1-1.3-2.6-2.4-3.3-4.1c0-0.1-0.3-0.2-0.4-0.2
				c-1.5,0.2-1.9-0.9-2.4-1.9C524.1,579.9,523.9,579.7,523.6,579.4z M588.5,514.6c-0.8,1.1-0.3,2,0.4,3c0.3,0.5,0.1,1.5,1.1,1.1
				c0.8-0.3,1.4-0.8,1.3-1.8c-0.1-0.7,0-1.5-0.3-2.1c-0.9-1.8-1.2-3.4,0.5-5c0.2-0.2-0.2-1.3-0.5-1.9c-0.1-0.2-0.8-0.2-1.2-0.1
				c-0.8,0.2-0.8,0.8-0.6,1.5c0.1,0.7,0.3,1.7-0.1,2.3C588.4,512.6,587.9,513.4,588.5,514.6z M593.6,535.3c-0.3,1.6-0.5,2.6-0.6,3.7
				c0,0.3,0.2,0.8,0.4,1c1.2,0.8,2.5,1.5,3.9,2.3C597.7,539.2,594.8,538,593.6,535.3z M584,433.1c0.7,0,1.2,0.1,1.3,0
				c0.8-0.8,2.1-1.8,2-2.6c-0.2-1-1.4,0-2.2,0.1c-0.3,0-0.7,0-0.9,0.2c-0.4,0.4-1.1,0.9-1.1,1.3C583.1,432.5,583.8,432.9,584,433.1z
				 M599.7,555.4c0-0.2,0-0.4-0.1-0.6c-0.7-0.2-1.4-0.2-2-0.5c-0.9-0.4-1.1,0.3-1.4,0.8c-0.2,0.3-0.1,0.7-0.2,1c0.4,0,0.9,0.1,1.3,0
				C598.1,555.9,598.9,555.6,599.7,555.4z M477.2,483.4c-0.8-0.4-1.6-0.8-2.3-1.1c0,0-0.3,0.3-0.3,0.5c0,0.7,1.6,1.5,2.2,1.2
				C476.9,483.9,477,483.8,477.2,483.4z M590.1,503.7c0-0.3,0-0.4,0-0.5c-0.1-0.5-0.3-1.4-0.4-1.4c-0.8,0.1-0.5,0.7-0.5,1.3
				c0,0.3-0.3,0.7-0.4,1.1c-0.1,0.3,0,0.7-0.1,1.1c0.4-0.2,0.9-0.4,1.1-0.7C590,504.3,590,503.8,590.1,503.7z M598.2,560
				c0.1,0.1,0.2,0.2,0.3,0.3c0.7-0.4,1.4-0.8,2.1-1.2c0.1-0.1,0.2-0.6,0-0.8c-0.1-0.1-0.6-0.2-0.8-0.1
				C599.3,558.8,598.8,559.4,598.2,560z M565.7,600.2c-0.7-0.4-1.1-0.8-1.4-0.7c-0.4,0.1-0.8,0.6-1.1,0.9c0.4,0.3,0.7,0.7,1,0.7
				C564.7,601.1,565.1,600.7,565.7,600.2z M586.1,450.7c0.4-0.4,0.8-0.8,0.7-1c-0.1-0.3-0.5-0.7-0.8-0.7c-0.2,0-0.6,0.4-0.7,0.7
				C585.4,450,585.8,450.3,586.1,450.7z M589.3,522.8c-0.2-0.3-0.3-0.7-0.5-1c0,0-0.2,0.1-0.4,0.1c0.1,0.3,0.3,0.7,0.4,1
				C588.9,522.9,589.1,522.9,589.3,522.8z M511.9,565.8c-0.1,0.1-0.3,0.1-0.4,0.2c0,0.1,0,0.3,0.1,0.4c0.2-0.1,0.3-0.2,0.5-0.3
				C512.1,566.1,512,565.9,511.9,565.8z M582.8,521.5c-0.1-0.1-0.2-0.2-0.3-0.3c-0.1,0-0.2,0.2-0.3,0.3c0.1,0.1,0.3,0.3,0.4,0.4
				C582.7,521.8,582.7,521.6,582.8,521.5z M583.6,513.1c-0.1,0.1-0.1,0.2-0.2,0.3c0.1,0.1,0.2,0.1,0.3,0.2c0,0,0.1-0.1,0.1-0.2
				C583.7,513.3,583.6,513.2,583.6,513.1z M577.9,434.2c0.1-0.1,0.3-0.1,0.4-0.2c-0.1-0.1-0.1-0.3-0.2-0.3c-0.1,0-0.3,0.1-0.4,0.1
				C577.8,434,577.9,434.1,577.9,434.2z M443.5,501.9c-0.1,0.1-0.1,0.2-0.2,0.4c0.1,0,0.2,0.1,0.2,0.1c0.1-0.1,0.2-0.2,0.3-0.3
				C443.7,502,443.6,502,443.5,501.9z M571.2,602.4c-0.1,0-0.3-0.1-0.4,0c-0.1,0-0.1,0.2-0.2,0.3c0.1,0,0.3,0.1,0.4,0
				C571,602.6,571.1,602.5,571.2,602.4z"/>
			<path d="M807.5,575.4c0.5,0.3,1,0.4,1.4,0.8c1.5,1.1,2.2,1.2,3.6,0c0.7-0.6,1.4-1.1,0-2c-0.7-0.4-1.2-1.4-1.9-2.1
				c-0.8-0.7-0.4-1.9,0.5-2.5c0.9-0.5,0.9-1.3,0.5-1.8c-0.9-1.5-0.4-3.1,0.3-4.2c1.5-2.1,1.3-4.5,1.8-6.9c0.1-0.5-0.3-1.4,0.6-1.2
				c0.9,0.2,1.9-0.9,2.6,0.3c0.7,1.1,2,1.9,0.9,3.5c-0.3,0.5-0.1,1.4-0.1,2.1c0,0.4,0.1,1-0.1,1.2c-1.6,1.4-0.9,3.1-0.9,4.7
				c0,1.8,0.1,3.7,0.1,5.5c0,0.9,1.4,2.5,2.3,2.6c2.2,0.3,4.5,1.1,6.6-0.4c0.8-0.5,1.5-0.2,2.1,0.5c0.3,0.4,0.7,0.9,1.2,1.1
				c0.7,0.3,1.5,0.3,1.7-0.7c0.2-0.9,0.4-1.8,0.5-2.8c0-0.1,0-0.3-0.1-0.4c-1.7-2.1-1.7-4.4-0.9-6.8c0.3-0.8,0.7-1.4,1.5-1.3
				c0.5,0.1,1.2,0.6,1.3,1.1c0.3,1,0.4,1.9,1.8,1.9c0.5,0,0.8,1.1-0.1,1.5c-1.2,0.6-1,1.3-0.9,2.4c0.2,1.6,0,3.3,0,4.9
				c0,0.4,0,0.8,0.1,1.2c0.3,0.9,1,1.1,1.6,0.5c0.2-0.2,0.4-0.5,0.5-0.8c0.6-1.4,1.8-1.4,3-1.2c0.8,0.1,1.7,1.1,2.3-0.3
				c0-0.1,0.6-0.1,0.6,0c0.8,1.1,2.1,0.4,3.1,0.8c1.2,0.4,2.3,0.6,3.5,0.2c0.2-0.1,0.5,0,0.7,0c0.7-0.1,1.4,1.3,2.1,0.3
				c0.3-0.5,0-1.5,0-2.3c-0.1-1.3-0.3-2.7-0.3-4c0-0.8,0.4-1.5,0.4-2.3c-0.1-2.7,2.1-4.3,2.9-6.6c0.1-0.2,0.5-0.5,0.7-0.4
				c0.3,0.1,0.6,0.4,0.6,0.6c0,1.5-0.1,3-0.2,4.5c-0.1,1.5-0.2,3-0.3,4.5c0,0.6,0.2,1.2,1,1c2-0.5,2.5,1.1,3.3,2.3
				c0.2,0.4,0.3,0.9,0.5,1.3c0.1,0.3,0.3,0.6,0.5,0.9c0.1-0.4,0.2-0.8,0.3-1.2c0.1-0.3,0.1-0.8,0.3-1c1.2-1.2,1.5-2.8,1.6-4.4
				c0.1-0.9,0.2-1.6,1-2.3c0.5-0.4,0.6-1.5,0.7-2.4c0.2-0.9-0.1-2,1.5-1.8c0.3,0,0.9-0.7,1-1.1c0.1-0.8-0.1-1.6,0-2.4
				c0.1-1.1,0.3-2.2,0.8-3.1c0.4-0.7,1.4-1.6,1.9-1.5c1.1,0.2,0.4,1.5,0.6,2.3c0.1,0.7,0.2,1.4,0.4,2.1c1,3,0.6,4.6-1.9,6.3
				c-0.8,0.6-1.1,1.1-1,1.9c0,0.5,0,1,0,1.4c-0.1,3.3-0.1,3.3,3.2,3.8c0.2,0,0.4,0,0.5,0c1.5,2.3,3.5-0.2,5.2,0.6
				c1-1.4,2.3-0.5,3.5-0.4c0.6,0,1.1,0,1.6,0.2c1,0.4,2.3,0.7,2.8,1.5c0.6,0.9,0.4,2.3,0.4,3.4c0,0.2-0.2,0.4-0.4,0.6
				c-0.7,0.6-2.7,0.9-3.4,0.3c-1.6-1.7-3.3-1.1-5.1-0.4c-1.5,0.6-2.9,0.6-4.3-0.2c-0.2-0.1-0.3-0.5-0.4-0.7c0.3-0.1,0.7-0.3,0.9-0.2
				c0.4,0.1,0.6,0.8,1.1,0.1c0.4-0.8-0.1-1.1-0.7-1.2c-0.4-0.1-1.1-0.1-1.4,0.2c-0.8,0.9-1.6,1.9-2.1,3c-0.2,0.4,0.7,1.2,0.9,1.6
				c1-0.4,1.9-1.2,2.4-0.9c1.1,0.5,2.2,1.4,2.8,2.4c0.5,0.9,0.5,2-0.3,3.1c-1.4,1.9-2.7,4-2.9,6.4c0,0.4-0.3,0.7-0.3,1.1
				c0,0.6-0.6,2.1-1,2.7c-0.3,0.3-0.5,0.8-0.5,1.3c0.1,1.4-1.2,2.7-0.2,4.1c-0.8,1.2-1.4,2.6-2.4,3.7c-0.7,0.7-1.3,1.3-1.4,2.3
				c0,0.7-0.3,1.2-1.2,1c-1.4-0.5-1.9,0.4-2.4,1.5c-0.5,1.1-1,2.5-2.7,1.9c-0.2-0.1-0.7,0.5-0.8,0.8c-0.3,1.3-1.2,1.8-2.3,2.1
				c-0.2,0-0.3,0.1-0.5,0.1c-1.8,0.9-3.4,0.9-4.8-0.8c-0.4-0.5-1.6-0.3-2.2-0.8c-0.9-0.9-2.5-1.3-2.6-2.9c0-0.3-0.7-0.6-1.1-0.7
				c-0.1,0-0.5,0.5-0.6,0.8c-0.3,1.1-0.8,1.6-2.1,1.3c-0.8-0.2-1.7,0-2.6,0.1c-2.1,0.3-3.5-0.7-4.5-2.5c-0.3-0.6-0.6-1.3-1.3-1.1
				c-0.6,0.2-1.2,0.7-1.5,1.3c-0.3,0.7-0.5,1.5-0.4,2.3c0,0.9-0.4,1.1-1.2,1.1c-2,0-4.2,0.3-6.1-0.3c-1.7-0.5-3.6-1.5-3.9-3.8
				c-0.3-2.1-0.5-4.1,0.1-6.2c0.5-1.7,0.7-3.5,1.2-5.1c0.5-1.5,1.1-2.9,1.9-4.2c0.2-0.4,1.1-0.3,1.7-0.4c0.1,0.4,0.1,0.8,0.2,1.2
				c0.1,0.7,0.2,1.4,0.3,2.1c0.1,1.6,0.5,3.2,0.2,4.7c-0.4,2.1,1,3.4,1.4,5.2c0,0.1,0.8,0.3,0.9,0.2c0.7-0.6,1.4-1.2,1.9-2
				c1.1-1.4,2-3,3.3-4.4c0.5-0.5,1.6-0.8,2.3-0.7c1.8,0.2,3.5,2.4,3.5,4.3c0,0.4-0.1,0.8,0.1,1.2c0.1,0.3,0.5,0.6,0.9,0.7
				c0.3,0,0.8-0.3,0.8-0.5c0.2-0.9,0.6-1.4,1.5-1.6c0.2,0,0.4-0.3,0.4-0.5c0.2-2,2-2,3.3-2.6c0.2-0.1,0.8,0.1,1,0.3
				c0.6,0.8,1.5,1.8,1.5,2.7c0,1.7,0.7,3,1.4,4.4c0.5,0.9,1.2,1.9,2.1,2.4c0.9,0.6,2,0.1,2.8-0.7c0.6-0.7,1.2-1.3,2.2-1.1
				c0.2,0,0.7-0.2,0.8-0.3c0.7-2.5,3.2-4,4.1-6.4c1.3-3.6,3.3-6.9,3.8-10.8c0.2-1.6,1.2-3.2,1.8-4.8c0.2-0.6,0.5-1.3,0.6-2
				c0.1-0.8-0.3-1.1-1.1-1c-2.1,0.1-2.3,0-2-2.2c0.2-1.5-1.1-2-1.6-3c-0.2-0.3-1.6,0-2.3,0.1c-2.1,0.1-4.5-0.1-6.1,1.8
				c-0.4,0.5-0.8,0.6-1.4,0.4c-0.8-0.2-1.7-0.1-2.5-0.1c-1.1,0-2.2,0.1-3.3,0.1c-0.4,0-0.9-0.2-1.2,0c-1.9,1.2-4,0.3-6,0.4
				c-2.6,0.1-5.2,0.2-7.9,0.3c-0.2,0-0.6,0.1-0.7,0c-1.9-1.4-4.3-0.7-6.3-1.4c-1.1-0.4-2.2-0.9-3.3,0.3c-0.3,0.4-1.4,0.1-2,0.2
				c-2.1,0.3-4.2,0.2-6.4-0.2c-1.7-0.4-3.5-0.1-5.2-0.1c-0.8,0-1.6-0.2-2.4-0.2c-0.8,0-1.5,0-2.3,0c-1.3-0.1-2.9,0.2-4-0.3
				c-3.2-1.6-6.1-0.8-9.1,0.6c-0.4,0.2-1,0.3-1.5,0.2c-1.9-0.4-3.7-1.2-5.5,0.3c-0.2,0.1-0.5,0.3-0.6,0.2c-1.3-0.6-2.5-0.6-3.8-0.1
				c-1.3-1.4-2.8,0.2-4.2-0.3c-0.8-0.3-1.7-0.2-2.6-0.2c-0.7,0-1.5-0.1-2,0.2c-1.2,0.7-2.5,0.7-3.7,0.4c-1-0.2-1.7-0.2-2.2,0.8
				c-0.2,0.3-0.8,0.5-1.2,0.6c-2.9,0.3-5.8,0.6-8.7,0.9c-0.5,0-1.2-0.1-1.4,0.1c-0.9,1.2-2.4,0.7-3.5,1.1c-0.2,0.1-0.6,0.2-0.7,0.1
				c-1.2-1.3-2.5-0.2-3.7-0.2c-0.8,0-1.4,0.3-2.2,0.5c-1.3,0.4-2.8,0.3-4.2,0.1c-0.9-0.1-1.7-0.2-2.2,0.8c-0.1,0.2-0.6,0.5-0.8,0.5
				c-2.6-0.8-4.6,0.9-6.9,1.4c-1.8,0.4-3.5,0-5.2-0.3c-0.8-0.1-0.9-1-0.4-1.5c0.9-0.9,0.7-1.7,0.3-2.8c-0.5-1.2,0.4-3.4,1.5-4.1
				c0.6-0.4,0.6-0.6,0.4-1.1c-0.5-1.4-1-2.8-1.3-4.3c-0.1-0.6,0.2-1.3,0.4-2c0.3-0.8,1-1.5,1-2.3c0.1-2.1,2-3.2,2.6-5
				c0-0.1,0.4-0.3,0.6-0.3c1.5,0.2,2.5,2.3,1.8,3.6c-0.3,0.5-0.5,1.1-0.6,1.7c-0.4,2.9-0.5,6-1.2,8.8c-0.3,1.3-0.4,2.5-0.2,3.8
				c0.1,1,0.7,1,1.3,0.6c1.1-0.7,2.1-0.9,3.2,0.2c0.7,0.7,1-0.1,1.1-0.6c0.3-1.2,1.1-1.8,2.3-2.2c0.8-0.3,1.4-0.4,2,0.2
				c1.6,1.7,3.3,0.8,5,0.2c1.7-0.6,3.4-1.3,5.4-0.5c0.7,0.3,2,0,2.7-0.5c1.2-0.8,2.4-0.7,3.6-0.9c0.9-0.1,1.9,0.1,2.8,0
				c0.8-0.1,1.4-0.2,1.8,0.6c0.4,0.7,0.9,0.6,1.3,0c0.3-0.4,0.5-0.8,0.8-1.2c0.6-0.8,1.3-1.2,2.4-1.1c1.8,0.2,3.6,0.3,5.4,0
				c1-0.2,1.5-1,2.2-1.1c0.7-0.1,1.4,0.7,2.1,1.1c0.2,0.1,0.5-0.1,0.7-0.1c1.3,0.2,2.5-2,3.9-0.3c1.3-0.8,2.6-0.1,3.9-0.3
				c1.1-0.1,2.2-0.5,3.2-0.9c0.1,0,0.2-0.4,0.2-0.6c0-0.3-0.1-0.9,0-0.9c1.8-0.8,0.9-2.3,0.9-3.5c-0.1-1.3,0.3-2.5,0.9-3.6
				c0.2-0.3,0.5-0.8,0.8-0.8c2,0.1,1.7-1.4,1.9-2.6c0.2-1.1,0.7-2.1,0.9-3.2c0.1-0.5,0-1.2-0.2-1.6c-0.5-0.6-0.9,0-1.4,0.2
				c-1.6,0.5-3.2,0.9-4.8,1.3c-0.4,0.1-1,0.2-1.2,0.6c-1.8,2.2-4.4,2.4-6.9,2.7c-1.3,0.2-2.7,0-3.9,0.8c-0.2,0.1-0.5,0.3-0.7,0.2
				c-2.6-0.4-4.1,2.1-6.5,2.4c-0.8,0.1-1.6,0.6-2.4,0.9c-0.1,0.1-0.4,0-0.5,0.1c-2.3,2.2-5.8,0.8-8.3,2.6c-0.2,0.1-0.5,0.1-0.7,0.1
				c-3.1-0.4-5.6,0.9-8.1,2.5c-0.7,0.4-1.6,0.5-2.4,0.8c-1.4,0.5-2.9,0.9-4.2,1.7c-0.8,0.5-1.3,1.5-2.3,0.5
				c-0.7-0.7-0.4-2.5,0.5-3.2c1.7-1.2,3.5-2.1,5.5-2.4c0.4-0.1,0.9-0.1,1.1-0.3c1.3-1.7,3.4-1.7,5.1-2.2c0.6-0.2,1.3-0.4,1.7-0.8
				c1.2-1.3,2.6-1.2,3.9-0.4c1,0.6,1.6,0.5,2-0.6c0.1-0.2,0.4-0.5,0.5-0.5c1.5,0.4,3-0.6,4.4-0.3c0.9,0.2,1.4,0.2,1.6-0.7
				c0.2-1.1,1.1-1.2,1.9-1.8c2.1-1.4,4.3-2,6.7-2.2c0.7,0,1.5-0.5,2.2-0.9c1.4-0.9,2.8-1.6,4.7-1.1c0.7,0.2,2.1-0.6,2.6-1.3
				c1.1-1.7,2.9-1.6,4.5-1.7c1.1-0.1,2.1,0,3-0.9c0.5-0.6,1.5-0.9,2.3-1.1c1.7-0.4,3-1.8,4.9-1.7c0.5,0,1.1-0.6,1.4-1.1
				c0.8-0.9,1.7-1.5,2.9-1.1c0.9,0.3,1.3-0.2,1.3-0.8c0.1-0.4-0.3-1-0.6-1.3c-0.8-0.7-1.6-0.8-2.6-0.2c-1.4,0.7-2.9,1.3-4.5,0.8
				c-0.7-0.2-1.2-0.3-1.3-1.3c-0.1-1.3-1.8-1.7-2.4-0.7c-0.6,1.2-1.6,1.1-2.4,0.9c-1.8-0.5-4.1,0.3-5.5-1.6c-0.2-0.3-1-0.3-1.4-0.2
				c-2.6,0.8-5.2-0.5-7.8,0c-0.8,0.1-1.6-0.1-1.9-1.1c-0.2-0.7-0.8-0.8-1.3-0.5c-1.9,1.1-4.1,1.5-5.3,3.8c-0.6,1.2-1.9,2.2-2.8,3.4
				c-0.4,0.6-1.4,1-2.2,1.2c-1.1,0.2-1.6,0.7-2.2,1.5c-1.1,1.5-2.3,2.8-2.8,4.6c-0.2,0.7-0.7,1-1.5,0.7c-0.8-0.3-1-0.9-0.7-1.7
				c0.7-1.7,1.4-3.5,2.1-5.2c0.2-0.4,0.5-1,0.7-1c0.8-0.1,1.5-0.2,1.9-1.1c0.1-0.2,0.6-0.4,0.8-0.3c1.9,0.5,2.4-1.1,2.5-2.2
				c0.2-2.4,2-2.8,3.6-3.5c0.7-0.3,1.2-0.4,1.1-1.2c-0.2-1.4,0.7-2,1.8-2.4c1-0.3,1.9-0.7,2.4-1.8c0.2-0.4,0.8-0.9,1.3-0.9
				c2.4,0,3.5-2.3,5.5-3c0.3-0.1,0.4-0.8,0.6-1.2c0.4-0.9,0.9-1.4,2-1.4c1.8,0,1.8-0.1,1.6-1.9c-0.2-1.4,0.1-1.9,1.3-1.9
				c1.7,0.1,2.4-1,2.9-2.1c0.6-1.4,1.5-2.4,2.8-3.2c2-1.2,3.5-3,5.6-4c0.3-0.1,0.7-0.3,0.7-0.6c0.3-1.3,0.7-2,2.4-1.7
				c0.8,0.2,2-1.1,2.9-1.8c1-0.7,1.4-1.6,1-2.9c-0.1-0.3,0.2-0.9,0.5-1.3c0.4-0.5,0.9-0.9,1.5-1.2c1.5-1,3.6-1.4,3.9-3.6
				c1.6-0.6,2-3.3,4.5-2.5c0.7,0.2,0.8-0.6,0.8-1.2c-0.1-1.2,0.3-1.7,1.5-2c1.6-0.4,3.1-1.1,4.6-1.7c0.3-0.1,0.6-0.3,0.7-0.6
				c0.7-1.1,1.9-1.6,2.8-2.4c1.1-0.8,2.4-1.2,3-2.8c0.4-1,1.4-2.1,2.8-2.4c0.5-0.1,0.8-0.7,1.2-1.1c0.6-0.8,1.1-1.6,2.3-0.9
				c0.2,0.1,0.7-0.1,0.7-0.3c0.1-1.1,0.7-1.5,1.8-1.5c0.2,0,0.5-0.3,0.7-0.5c0.7-1.2,1.3-2.6,3.1-2.4c0.6-1.1,1.2-2.1,1.8-3.2
				c0.2-0.5,0.3-1.4,0.6-1.4c2.4-0.4,3.4-3.2,6-3.3c0.2,0,0.5-0.8,0.6-1.3c0.2-1,0.3-1.8,1.8-1.6c0.6,0.1,1.4-0.5,2.1-0.9
				c0.9-0.5,1.8-0.2,1.9,0.8c0,1.2-0.1,2.4-0.2,3.6c0,0.4-0.5,0.9-0.7,1c-0.3,0-0.9-0.4-1-0.7c-0.3-0.6-0.4-1.3-0.9-2
				c-0.1,0.6-0.5,1.1-0.4,1.7c0.1,1.1,0.4,2.1-0.1,3.3c-0.1,0.3,0.7,1.3,1.3,1.6c2.5,1.1,5.1,1.8,7.8,2c3.2,0.2,6.4,0.4,9.5,0.6
				c0.5,0,1,0.1,1.4,0.3c0.6,0.2,1.1,0.5,1.6,0.8c-0.5,0.4-1,1.1-1.6,1.2c-2.3,0.3-4.6,0.7-7.1,0.2c-2.1-0.5-4.3-0.1-6.5-0.2
				c-0.8,0-1.5-0.2-2.3-0.4c-2-0.6-3.9-1.5-6-1.9c-1.8-0.3-3.6-0.2-5.5-0.2c-0.3,0-0.9,0.5-0.9,0.9c-0.2,1.3-0.5,2.3-2.1,2.2
				c-0.3,0-0.8,0.5-1,0.9c-0.3,0.4-0.6,0.9-0.9,1.4c-1.1,1.7-3,2.1-4.8,2.4c-0.6,0.1-0.6,0.3-0.8,0.7c-0.5,1.1-0.9,2.5-2.7,2.2
				c-0.2,0-0.7,0.5-0.8,0.8c-0.6,2.3-0.6,2.4-2.6,2.6c-1.9,0.2-2.5,0.8-1.5,2.7c1,1.9-0.1,3.7,0.3,5.5c0.1,0.4-0.6,1-1,1.5
				c-0.9,1.2-0.9,2.3,0,3.4c0.9,1.3,1.5,2.6,0.9,4.4c-0.6,1.8-0.4,3.8-0.5,5.7c-0.1,0.9,0.2,2-0.2,2.8c-1.2,2.8,0,5.7-0.3,8.5
				c0,0.3,0.3,0.9,0.5,1c1.6,0.4,2.9,1.6,4.8,0.7c1.3-0.6,2.9-0.8,4.3,0.3c0.3,0.3,1.1,0.2,1.6,0c2.3-0.9,4.8-0.9,7.2-1.1
				c0.9-0.1,1.7-0.1,2.6-0.2c1-0.1,2-0.2,2.8,0.8c0.5,0.7,1.2,0.8,1.8,0c0.7-0.9,1.4-1.5,2.5-0.4c0.2,0.2,1.1-0.2,1.6-0.4
				c1.2-0.6,1.7-0.3,1.9,1.1c0,0.2-0.1,0.4,0,0.5c0.2,0.4,0.5,0.8,0.8,1.2c0.3-0.4,0.7-0.8,0.9-1.2c0.4-1.3,0.6-1.6,1.6-0.8
				c0.8,0.6,1.3,0.6,2.1,0.2c0.6-0.3,1.4-0.1,2.1-0.1c1.7,0,2.1-0.4,2.2-2.2c0-0.4,0.1-1,0.2-1.1c1.7-0.6,1-1.5,0.8-2.7
				c-0.3-1.7-0.5-3.4,0.8-5.2c2-2.7,1.4-7.2-1.3-9.2c-1.4-1-2.6-2.1-4-3.1c-1-0.7-2.4-0.7-3.6-1.1c-0.5-0.2-1.2-0.2-1.5-0.6
				c-0.9-1-1.8-1.5-3.1-0.9c-0.3,0.1-0.8-0.4-1.3-0.5c-1-0.3-2-0.8-2.9-0.7c-2.9,0.4-5.7-0.3-8.6-0.3c-0.4,0-0.9-0.4-1.3-0.7
				c0.3-0.5,0.5-1.3,0.9-1.5c1.7-0.7,3.5-1.3,5.4-0.6c0.6,0.2,1.3,0.2,1.9,0.2c2.1,0.1,4.1,0.3,6.2,0.2c3.2,0,5.7,1.6,8.2,3.1
				c0.4,0.2,0.9,0.4,1.3,0.6c1,0.6,2,1.2,2.3,2.5c0.5,1.7,1.1,1.8,2.9,1.3c1.7-0.5,1.8-0.8,1.6-2.5c-0.2-1.5-0.2-3,0-4.5
				c0.2-1.2-0.3-1.8-1.2-2.2c-2.2-0.9-4.3-2.4-6.8-2.5c-0.4,0-0.8-0.5-1.2-0.7c-0.3-0.2-0.6-0.5-0.8-0.4c-2.6,0.3-5.1-0.9-7.7-0.6
				c-1,0.1-2.3-0.7-2.9-0.3c-1.8,1.2-3.5-0.2-5.2,0c-0.3,0-0.8-0.5-1-0.9c-0.1-0.2,0.3-0.7,0.6-0.9c1.9-1.7,4.2-1.4,6.4-1.2
				c1,0,2,0.3,3,0c0.6-0.2,1.4,0.3,2.1,0.4c0.9,0.1,1.9,0.1,2.8,0.3c0.9,0.2,1.8,0.4,2.7,0.8c1.6,0.8,2.7,2.2,4.9,1.5
				c1.1-0.3,2.7,0.5,4,1c0.7,0.3,0.9,0.1,1.4-0.3c0.6-0.5,1.2-1,1.9-1.4c0.8-0.4,0.9-1,0.4-1.5c-0.8-0.9-0.8-1.6-0.1-2.6
				c0.2-0.3,0.2-0.8,0.1-1.2c-0.3-2.1,0.6-3.9,1.3-5.7c0-0.1,0-0.4,0.1-0.4c2.1-1.2,1.6-3.2,1.8-5.1c0.2-1.6,0.4-3.3,0.6-4.9
				c0-0.3,0-0.6-0.2-0.9c-1.1-1.7,1.2-3.1,0.3-4.8c0,0,0.5-0.3,0.8-0.5c1.1-0.6,1.5-1.4,1.1-2.5c-0.1-0.1-0.2-0.4-0.2-0.4
				c1.1-1.7-0.3-3.2-0.4-4.8c0-0.7,0.1-1.8,0.5-2.1c1.3-0.9,0.7-2,0.5-3c-0.1-0.7-0.8-0.9-1.1-0.1c-0.4,1-1,1.1-1.9,1
				c-1-0.2-1.7,0.3-2.1,1.2c-0.1,0.1-0.1,0.3-0.2,0.4c-1,0.9-2.1,1.7-3,2.6c-0.9,0.9-1.2,2.3-2.7,2.8c-1.8,0.6-2.8,2.3-3.5,4
				c-0.5,1.2-1.2,1.3-2.2,1.1c-0.5-0.1-0.9-0.3-1.4-0.3c-0.2,0-0.6,0.3-0.7,0.5c-0.3,0.7-1.1,2.5-1.5,2.7c-1,0.6-1.7,1.3-2.3,2.3
				c-0.2,0.4-1,0.7-1.4,0.6c-0.3-0.1-0.5-0.8-0.7-1.3c-0.1-0.4,0-1-0.1-1.4c-0.5-2.6-0.2-3.5,2.2-4.3c1.8-0.6,2.8-1.7,3.6-3.2
				c0.4-0.8,0.6-1.8,1.8-0.8c0.2,0.2,1-0.3,1.5-0.4c0.4-0.1,0.9-0.3,1.2-0.2c0.7,0.3,0.9-0.1,0.9-0.6c-0.2-1.4,0.3-2.3,1.6-2.8
				c0.3-0.1,0.6-0.6,0.7-0.9c0.8-2.5,3.2-3.6,4.8-5.4c0.7-0.8,1.6-0.9,2.1,0.1c0.6,1,1.2,0.4,1.8,0.3c0.7-0.1,1-0.4,1-1.3
				c0-1.8,1.4-2.7,2.8-3.2c0.5-0.2,1.5,0.3,2.1,0.7c0.7,0.5,0.5,1.2-0.1,1.8c-0.4,0.4-0.6,1-0.8,1.5c-1.2,2.3,0.2,4.5,2.9,4.3
				c1.2-0.1,1.9,0.3,2.6,1.3c0.9,1.4,1.3,3.3,3.1,4.1c0.2,0.1,0.3,0.4,0.3,0.6c-0.1,1.4,0.1,2.5,1.7,2.9c0.1,0,0.3,0.4,0.2,0.6
				c-0.2,1.6,0.4,2.4,2.1,2.4c0.3,0,0.8,0.8,0.9,1.2c0.4,1.8,1.1,3.1,3,4c1.9,0.9,2,1.8,1,3.5c-0.2,0.4-0.3,0.8-0.4,1.2
				c0.6,0.1,1.6,0.6,1.9,0.4c1.3-1.1,1.9-0.2,2.8,0.5c1,0.8,1.2,1.6,1,2.7c-0.1,0.6-0.4,1.2-0.5,1.8c-0.3,1.6,0.3,2.2,1.8,2.1
				c0.3,0,0.6-0.1,1-0.1c1.2,0,1.7,0.6,1.2,1.6c-0.6,1.2-0.6,1.9,0.7,2.5c0.4,0.2,0.8,0.7,0.8,1.1c-0.1,2,1.3,3.1,2.4,4.5
				c0.9,1.2,1.3,2.7,2,4c0.3,0.5,0.7,1,1.1,1.4c0.1,0.1,0.8-0.2,0.8-0.3c0.1-0.7,0.4-1.9,0-2.2c-0.8-0.7-0.7-1.6-1-2.3
				c-0.4-1.1-0.9-2.2-1.3-3.3c-0.2-0.6-0.2-1.4-0.3-2c-0.1-1.2-0.3-2.2-1.3-3.2c-1-1-2.5-2.1-2.1-4.1c0.1-0.5-0.4-1.1-0.8-1.6
				c-0.4-0.5-1-0.8-1.4-1.3c-0.7-0.9-0.6-2,0.3-2.4c1.4-0.6,1-1.5,0.6-2.3c-0.4-0.9-1.1-1.3-2.1-0.7c-0.2,0.1-1-0.2-1-0.3
				c-0.1-1-0.9-1.4-1.4-2.1c-1.4-1.8-2.9-3.4-3.5-5.8c-0.3-1.2-0.9-2.4-2.5-2.9c-0.8-0.2-1.4-1.2-2-1.9c-0.4-0.4-0.8-0.7-1-1.2
				c-0.2-0.3-0.3-0.8-0.2-1c0.2-0.3,0.6-0.6,1-0.5c0.3,0,0.8,0.4,0.8,0.6c-0.2,1.9,0.9,1.6,2.2,1.4c-1.1-2.2-2.9-3.7-4.8-4.8
				c-1.7-1-2.4-2.4-2.9-4.1c-0.4-1.8-0.5-1.8-2.1-1c-0.7,0.4-1.2,0.3-1.6-0.4c-0.5-0.7-1.1-1-2-0.9c-0.9,0.1-1.5-0.5-1.6-1.4
				c0-0.4-0.2-0.8-0.2-1.2c-0.4-2.8-0.4-2.9,2.3-2.3c1.1,0.2,1-0.4,1.1-1c0.1-0.3,0.4-0.6,0.6-0.6c0.2,0,0.7,0.2,0.7,0.5
				c0.4,1.8,1.7,2.6,3.3,3.1c0.1,0,0.4,0.1,0.4,0.2c0.1,1.8,1.7,2,2.8,2.8c1.7,1.2,2.2,3.3,3.3,4.9c0.2,0.3,0.1,0.7,0.3,0.9
				c1.5,1,2.1,2.2,1,3.9c-0.2,0.3,0.2,1,0.8,0.7c0.4-0.2,0.8-0.6,1.2-0.8c0.3-0.1,0.9,0,1,0.2c0.4,1.1,1.8,1.7,1.3,3.2
				c-0.3,0.9,0.1,1.3,1.1,1.3c0.4,0,1.1,0.3,1.2,0.6c1.1,2.8,3.6,4.8,4,8c0.1,1.1,1,2.1,1.4,3.2c0.3,0.7,0.5,1.4,0.6,2.1
				c0.2,1.8,0.8,3.3,1.7,4.9c0.8,1.3,1.1,3,1.7,4.4c0.7,1.6,2,2.8,1.8,4.7c0,0.1,0,0.2,0.1,0.2c0.7,0.9,1.6,1.6,2,2.6
				c0.4,0.9,0.2,2.2,0.7,3.2c1.4,2.6,2.8,5.2,3.6,8.1c0.2,0.7,0.7,1.5,1.2,2c1.9,1.8,3.3,4.2,4.2,6.5c0.7,1.8,2.1,2.9,3.2,4.2
				c1,1.1,1.7,2.2,1.9,3.7c0.1,0.8,0.6,1.6,1,2.4c0.1,0.3,0.5,0.6,0.5,0.8c-0.3,2.1,1.2,3.6,1.7,5.4c0.5,1.7,1.6,3.2,2.6,4.8
				c1.2,1.8,1.2,2-0.6,3.1c-1.3,0.8-1.6,1.3-1.1,2.7c1,2.6,2.1,5.2,4.2,7.3c0.5,0.5,0.6,1.3,1,1.9c0.9,1.2,1.8,2.4,2.7,3.6
				c1,1.2,2.3,1.3,3.7,0.7c1.1-0.5,2.1-1.2,3.6-0.9c1,0.2,2.2-0.6,3.3-0.9c0.6-0.1,1.3-0.2,1.9,0.1c0.8,0.4,1.5,0.1,2.3,0
				c2.4-0.3,4.8-0.6,7.2-0.6c1.2,0,2.7,0.6,3.6,1.4c0.8,0.8,1,2.3,1.1,3.5c0.1,1.2-0.4,2.5,0.4,3.7c0.1,0.2-0.1,1-0.4,1.2
				c-2.3,1.3-1.7,3.6-1.7,5.5c0,2,0.5,3.9-1.4,5.4c-0.2,0.1-0.2,0.7-0.1,0.8c1.4,1.5,1.5,3.1,0.6,4.8c0.9,1.1-0.3,1.9-0.4,2.9
				c-0.1,1.2-0.9,1.2-1.7,0.8c-1-0.5-1.8-0.2-2.8,0c-1.3,0.3-2.9-0.1-4.3-0.4c-1.6-0.4-3.1-0.9-4.8-0.7c-0.5,0.1-1.1-0.1-1.6-0.2
				c-0.4-0.1-0.7-0.4-1.1-0.4c-2.9-0.1-5.7-0.9-8.5-1.7c-0.5-0.1-1.3,0.2-1.6,0.7c-0.7,0.8-1.4,1-2.3,0.9c-1.6-0.2-3.3-0.5-4.9-0.7
				c-0.5-0.1-1.1,0-1.6,0c-1.5,0-3-0.1-4.5-0.1c-1,0-1.9,0.2-2.9,0.2c-1,0-2-0.2-3-0.3c-0.2,0-0.3,0.1-0.5,0.1
				c-1.4,0.2-1.4,0.1-1.5-1.3c0-0.4-0.2-1.1-0.3-1.1c-0.5,0-1.3,0.1-1.4,0.4c-0.6,1.2-1.5,1.3-2.6,1.2c-0.9,0-1.8-0.1-2.6-0.1
				c-0.9,0.1-1.6-0.1-1.8-1.1c-0.2-0.8-0.7-1-1.4-0.5c-2.2,1.7-4.6,1.4-6.9,0.5c-0.8-0.3-1.4-0.4-2.3-0.2c-0.8,0.2-1.8,0.3-2.6,0
				c-1-0.3-1.9-0.9-1.7-2.2c0.1-0.3-0.2-0.6-0.3-0.9c-0.2,0.3-0.5,0.5-0.5,0.8c-0.2,2.3-0.8,2.8-3,2.2c-1-0.3-2.2,0-3-1.1
				c-0.1-0.2-0.9,0-1.3,0.1c-1,0.2-2,0.5-3,0.5c-1.7,0-2.4-1.4-1.5-2.9c0.5-0.8,0.9-1.6,1.4-2.4c0.6-1,1.2-0.5,1.7,0.1
				c0.5,0.7,0.8,1.9,1.4,2c0.6,0.2,1.5-0.7,2.3-1c1.9-0.8,3.7-1.3,5.8-0.5c1,0.4,2.1,0.8,3.2,0c0.3-0.2,0.9-0.1,1.4,0
				c1.4,0.3,2.7,0.7,4.1,0.8c1.3,0.1,2.5-0.6,3.8-0.1c0.5,0.2,1.2-0.1,1.9-0.2c1.3-0.2,2.6-0.3,4,0c2.4,0.5,4.8,0,7-1.2
				c0.2-0.1,0.4-0.6,0.4-0.9c0-1.2,0-2.4,0-3.6c0-0.6,0.1-1.3,0.4-1.8c0.7-1.3,1.7-2.4,1.2-4c-0.1-0.2,0.5-0.8,0.8-0.9
				c0.4-0.1,1,0.2,1.2,0.5c0.3,0.4,0.4,1,0.4,1.6c0.3,2.6,0.5,5.2,0.7,7.8c0,0.6-0.1,1.2-0.4,1.8c-0.4,1,0,1.4,0.8,1.9
				c2.4,1.4,5.2,0.7,7.8,1.4c0.4,0.1,0.9-0.3,1.3-0.5c1.2-0.5,2.3-1.3,3.6-0.4c2.6-0.8,5.1,0.6,7.7,0.6c2.5,0,4.9,0.5,7.4,0.8
				c2.3,0.3,4.7,0.8,7,1c2.1,0.3,3.1-0.5,2.6-2.5c-0.7-2.7,0.6-4.7,1.2-7.1c0.1-0.6,0.4-1.3,0.3-1.9c-0.3-2.3,0.2-4.4,0.6-6.6
				c0.3-1.8,0.1-2.6-1-3.3c-1.3-0.8-2.5-0.7-3.6,0.7c-0.9,1.2-1.6,1.3-2.9,0.6c-2.5-1.3-5-0.2-7.1,1.3c-0.8,0.6,0,1.1,0.5,1.5
				c1,0.7,2.1,1.2,3,1.9c1.5,1.3,2.9,2.7,4.3,4.1c0.3,0.3,0,1.1,0,1.7c-0.5-0.1-1.1-0.1-1.4-0.4c-0.5-0.3-0.8-1-1.3-1.3
				c-1.1-0.8-2-1.7-3.5-1.9c-1.3-0.2-2.6-1.2-3.9-1.7c-1.3-0.5-2.7-0.9-4-1.4c-0.7-0.2-1.3-0.3-1.6-1.1c-0.5-1.1-1.3-1.5-2.5-0.7
				c-0.6,0.4-1.3,0.5-2,0.6c-0.3,0.1-1,0-1-0.2c-0.4-1.8-2.6-0.9-3.3-2.2c-0.1-0.1-0.9-0.1-1.1,0.1c-1.1,1.7-2.3,0.8-3.6,0.4
				c-0.6-0.2-1.2-0.5-1.8-0.7c-0.5-0.1-1-0.1-1.6-0.2c-0.4,0-0.9,0-1.3-0.1c-0.6-0.1-1.2-0.3-1.8-0.3c-1.4,0.1-2.5-0.3-3.8-1.1
				c-1.2-0.7-3-0.7-4.5-0.7c-0.7,0-1.3,0-1.5-0.8c-0.3-1.1-1.3-1.1-2.1-1.1c-0.5-0.1-1.3,0.1-1.6-0.2c-1.6-1.4-3.6-1.3-5.5-1.8
				c-0.4-0.1-1-0.3-1-0.5c-0.1-1.5-1.2-1.4-2.1-1.2c-1.7,0.4-2.7,0.1-3.2-1.7c-0.1-0.3-0.3-0.5-0.7-1c-0.2,0.3-0.3,0.5-0.3,0.7
				c-0.1,0.7-0.1,1.5-1.1,1.5c-0.9,0-1.7-0.1-2-0.9c-0.4-0.9-0.8-1.5-1.8-1.6c-0.9-0.1-1.7,0-2.4,0.7c-0.6,0.6-1.3,0.8-2.2,0.3
				c-0.3-0.2-0.8-0.3-1.1-0.2c-1.4,0.4-2.5,0.4-2.9-1.3c0-0.2-0.7-0.4-1-0.3c-1.6,0.5-3.2,0.4-4.8,0.4c-2-0.1-4-0.3-6-0.6
				c-2.5-0.4-4,0.1-5.5,2.2c-0.3,0.4-0.6,0.7-1,1c-1.3,0.7-2.7,1.3-4.1,1.9c-1.6,0.8-3.2,0.1-3.7-1.6c-0.2-0.5-0.2-1.1-0.3-1.6
				c-0.1-0.5-0.2-1.1-0.4-1.8c-0.4,0.2-0.8,0.4-1.1,0.6c-2.6,1.8-5.4,1.6-8,0.1c-0.8-0.4-1-0.1-1.3,0.4c-0.6,1.1-1.1,1.2-2,0.3
				c-0.2-0.3-0.8-0.4-1.2-0.3c-1.4,0.1-2.8,0.2-4.3,0.4c-1.1,0.1-2.3,0.5-2-2c-0.8,0.9-1,1.3-1.3,1.6c-1.5,1.5-2.8,1.8-4.6,0.5
				c-0.8-0.6-1.2-0.6-1.6,0.3c-0.6,1.4-1.9,1.3-2.9,0.9c-2.4-1-4.6-0.8-6.9,0.4c-0.8,0.4-1.6,0.7-2.4-0.2c-0.6-0.6-1.3-0.4-1.5,0.3
				c-0.2,0.9-0.5,1.3-1.4,0.6c-0.9-0.7-1.7,0.1-2.3,0.6c-1.5,1.1-3.1,1-4.8,1c-2.8,0-5.8-0.3-7.8,2.1c-0.8,0.9-1.6,1-2.5,0.8
				c-1.1-0.3-1.4,0.2-1.4,1.2c0,1.1,0,2.1,0,3.2c0,0.2,0,0.5-0.2,0.7c-1.5,1.4-1,3.4-1.2,5.1c-0.1,1.2,0,2.3-0.8,3.4
				c-0.3,0.4-0.2,1.3,0,1.9c0.4,1.3,0.1,2.3-1.1,3.2c0.7,0.3,1.2,0.5,1.7,0.6c0.3,0.1,0.8-0.1,1-0.3c1.4-2.2,2.9-4.2,3.2-7.1
				c0.3-2.7,1.2-5.4,1.9-8.1c0.3-1.2,0.6-2.2,0.4-3.5c-0.1-0.5,0.5-1.2,0.9-1.7c0.1-0.1,0.6,0,0.6,0.1c0.3,1.8,2.7,0.2,3.1,1.9
				c0.1,0.4,0.4,0.8,0.6,1.2c0.7,1.5,0.6,2-0.7,3.1c-0.7,0.5-1.4,0.9-0.9,2c0.2,0.4-0.2,1.2-0.4,1.8c-0.4,1-0.9,1.9,0.1,3
				c0.9,1,0.1,2.3-0.7,3.2c-0.4,0.5-0.7,1.1-0.1,1.4C807.2,573,807.1,574.3,807.5,575.4c-0.1,0-0.3-0.1-0.4,0
				c-0.2,0.1-0.4,0.2-0.5,0.3c0,0,0,0.1,0,0.2c0.2-0.1,0.4-0.1,0.5-0.2C807.3,575.6,807.4,575.5,807.5,575.4z M897.8,545.3
				c0.2,0,0.5,0,0.7,0c0,0,0.1-0.1,0.1-0.1C898.3,545.2,898,545.3,897.8,545.3c0.2-0.4,0.4-0.9-0.4-1c-0.2,0-0.5,0.3-0.7,0.4
				C897.1,544.9,897.4,545.1,897.8,545.3z M920.2,519.2c-0.4,0-0.7-0.1-1.1-0.1c-1.2,0.1-1.8-0.3-2.1-1.6c-0.3-1.6-1-3.2-1.5-4.7
				c-0.2-0.7-0.6-1.3-1-1.9c-1-1.6-2-3.2-2.9-4.9c-0.6-1.2-0.9-2.5-2.1-3.4c-0.4-0.3-0.7-1-0.7-1.4c0.1-1.6-0.8-2.7-1.9-3.7
				c-1.1-1.1-2.2-2.3-3.1-3.6c-0.4-0.6,0-1.9-0.5-2.4c-0.5-0.6-1.7-0.7-2.1-1.7c-0.1-0.4-0.7-0.6-0.7-0.9c-0.2-0.8-0.3-1.6-0.1-2.3
				c0.1-0.4,0.7-0.7,1.1-1.1c0.2-0.2,0.2-0.5,0.4-0.8c-0.3-0.1-0.6-0.2-0.9-0.2c-2.4,0-2.5-0.1-2.9-2.4c-0.1-0.4-0.2-0.9-0.4-1
				c-0.8-0.5-1.6-1.1-2.5-1.3c-1-0.2-0.7-2.2-2.3-1.5c0,0-0.4-0.4-0.4-0.5c0.9-1.8-0.7-2.6-1.5-3.7c-0.7-1.1-1.7-0.9-2.1,0.3
				c-0.8,2.2-1.6,4.4-2.3,6.7c-0.1,0.3-0.1,0.7,0,0.9c0.5,1.2,0.5,2.3-0.7,3.2c-0.2,0.1-0.2,0.6-0.2,0.9c1,3-1.2,5.5-1.2,8.4
				c-1,0.5-0.9,1.3-0.6,2.2c0.1,0.2-0.2,0.6-0.4,0.8c-1.4,1.9-1.3,4.3-1.4,6.4c-0.1,3.5-0.8,6.6-2.8,9.5c-0.6,0.8-1.1,1.6-0.4,2.6
				c0.1,0.2,0,0.6-0.1,0.9c-1.4,2.4-1.3,5-1.1,7.6c0.2,2.1-0.3,3.8-1.7,5.2c-1.6,1.6-1.9,3.7-2.6,5.7c-0.1,0.3,0.3,0.9,0.6,1
				c0.8,0.3,1.6,0.4,2.5,0.4c1.7,0.1,3.3,0.1,5,0.3c0.5,0.1,1.1,0.7,1.2,1.2c0.2,0.9,0.7,0.6,0.9,0.4c0.7-0.6,1.5-0.9,2.4-0.7
				c2,0.4,4,0.8,6,1.2c1.3,0.3,2.8,0.2,3.7,0.9c1,0.7,1.8,0.7,2.8,0.8c0.8,0.1,1.6,0.6,2.3,0.9c0.3,0.1,0.3,0.8,0.8,0.3
				c0.8-0.8,1.5-0.3,2,0.4c0.4,0.7,0.7,1.1,1.7,0.7c1-0.4,1.9-0.2,2.2,1.1c0.1,0.3,0.8,0.6,1.1,0.5c1.8-0.7,3.2,0.6,4.6,1.2
				c2.1,1.1,4,2.6,6.6,2.3c0.7-0.1,1.5,0.4,2.3,0.5c1,0.2,2,0.4,3,0.6c0.5,0.1,1.1,0,1.3,0.2c0.6,0.6,1.2,0.6,1.9,0.3
				c0.4-0.2,1-0.2,1.4,0c1.4,0.9,3.3,0.5,4.4,2.1c0.6,0.8,1.7,0.3,1.8-0.8c0.2-1.5,0.2-3.2-1-4c-1.8-1.2-1.7-3.8-3.6-4.8
				c-0.2-0.1-0.3-0.6-0.2-0.9c0.6-1.5-0.4-1.9-1.4-2.5c-2.2-1.4-3.6-3.4-3.9-6.2c-0.1-1.1-0.3-2.2-1.5-3c-1-0.7-1.6-2.1-1.2-3.4
				c0.2-0.9-0.2-0.9-0.7-1.3c-1.5-1.3-3.6-2.6-2.2-5.2C920.3,519.7,920.2,519.5,920.2,519.2z M855.7,544.1
				C855.7,544.1,855.7,544.2,855.7,544.1c1.1,0.1,2.2,0.1,3.3,0.1c2.2-0.1,2.7-0.6,3.1-2.8c0.2-1.3-0.2-1.8-1.4-2.2
				c-1.7-0.6-3.7,0-5.3-1.2c-0.2-0.1-0.6,0-0.9,0.1c-2.2,0.7-4.3,0.5-6.4-0.7c-0.4-0.2-1.1-0.1-1.7,0c-2.2,0.3-4.5,0.7-6.7,1
				c-0.2,0-0.4-0.3-0.6-0.3c-1.3,0-2.8-0.3-3.9,0.1c-1.5,0.5-3,0.4-4.4,0.3c-0.7-0.1-1.4-0.2-2.1-0.2c-2.3,0.2-4.5,0.3-6.8,0.6
				c-0.5,0.1-1.2,0.7-1.3,1.1c-0.5,1.6-0.4,3.5-1.5,4.9c-0.2,0.2,0.1,0.9,0.4,1.2c0.2,0.2,0.7,0,1.1-0.1c0.7-0.2,1.5-0.5,2.2-0.6
				c1.7-0.3,3.4-0.5,5.1-0.7c1.9-0.2,3.7-0.6,5.4,0.8c0.7,0.6,2,0.3,2.8-0.6c0.4-0.4,0.8-1.1,1.2-1.1c1.8,0.1,3.4-0.8,5-0.8
				c2.4,0,4.9-0.4,7.2,1c0.2,0.1,0.7-0.1,1-0.1c0.4-0.1,0.7-0.4,1-0.4C852.9,543.8,854.3,544,855.7,544.1z M791.9,541.2
				c0.7-0.1,1-0.1,1.4-0.1c2.6-0.2,2.6-0.4,3.5-2.7c0.7-1.9,0.1-4.3,2.3-5.6c0.1,0-0.1-0.4-0.1-0.7c-0.1-2.6,1.2-4.8,2.7-6.8
				c0.4-0.6,0.9-1,0.9-1.8c0-0.9,0.3-1.2,1.3-1.2c0.7,0,1.6-0.5,1.1-1.3c-0.7-1.2-0.2-1.9,0.5-2.7c0.4-0.5,0.9-1.2,1-1.9
				c0.3-1.5,0.8-2.3,2.5-2.2c0.7,0,1.3-1.4,1-2.3c-0.3-1.1-1-0.9-1.8-0.6c-1.7,0.6-2.9,1.6-3.6,3.4c-0.9,2.4-2.5,3.8-5.1,3.9
				c-1.3,0.1-1.9,0.7-2,1.9c-0.1,1-0.4,1.9-1.2,2.5c-1.2,0.8-0.8,1.6,0.1,2.2c1.1,0.9,1.3,2,0.8,3.2c-1,2.2-2.1,4.3-3.1,6.4
				c-0.3,0.6-0.6,1.1-0.9,1.7c-0.8,1.2-1.9,1.8-3.4,1.7c-1.1-0.1-2.2-0.1-3.3,0c-0.9,0.1-1.4-0.1-1.5-1.1c0-0.4-0.3-0.8-0.4-1.2
				c-0.2,0.3-0.5,0.7-0.8,1c-0.3,0.4-0.7,0.8-1.1,1.2c-0.7,0.9-0.4,2,0.7,2.1C786.3,540.7,789.3,541,791.9,541.2z M815.3,524.3
				c-2.1,1.1-1.2,3-1.3,4.7c0,0.4,0.1,1.2-0.1,1.3c-2,0.9-2,3.2-3.1,4.7c-1.2,1.7-0.7,2.9,1.1,4.1c0.3,0.2,0.5,0.4,0.7,0.6
				c1.3,1.1,2.1,0.8,2.5-0.9c0.1-0.5,0.4-1.1,0.8-1.3c1-0.4,0.8-1,0.5-1.7c-0.3-0.7-1.7-1.8,0.6-1.6c0.2,0,0.5-0.5,0.6-0.8
				c0.2-0.6,0.3-1.4,0.6-2c0.4-0.8,0.8-1.7,1.3-2.4c0.6-0.9-0.1-1.2-0.7-1.2c-0.5,0-1.1,0.2-1.4,0.6c-0.5,0.7-0.9,1.5-1.2,2.3
				c-0.2,0.6-0.6,0.8-1,0.4c-0.6-0.6-0.4-2.4,0.2-2.9C817.6,526.3,817.6,526,815.3,524.3z M815.4,508.8c-0.2,2.1,1.5,2.5,2.8,3.2
				c0.5,0.3,1.5,0.1,1.1-0.9c-0.3-0.8-0.2-1.3,0.4-1.9c0.2-0.2,0.4-0.5,0.4-0.8c0-1.2,0.1-2.5,0-3.7c0-0.8-0.2-1.2-1.3-1
				c-2.6,0.4-4.2,2.4-6.4,3.6c-0.1,0.1-0.2,0.7,0,0.8c1.3,0.8,0.8,1.9,0.6,3c-0.1,0.5-0.4,1.2-0.2,1.6c0.3,0.6,1,1.1,1.5,1.6
				c0.1,0.1,0.6-0.1,0.6-0.2c0-0.5,0.1-1.2-0.2-1.5c-0.6-0.8-0.5-1.4,0-2.2C815,509.8,815.2,509.3,815.4,508.8z M878.7,545.3
				c0.2-1.2,0.4-2.2,0.6-3.2c0.1-0.8-0.4-1.2-1-1.3c-0.8-0.1-1.8,0.1-2.3-0.3c-1.3-1.2-2.5-0.4-3.8-0.1c-0.4,0.1-1,0.8-1.1,1.3
				c0,0.6,0.3,1.5,0.8,1.9c0.3,0.2,1.1-0.2,1.7-0.4c0.2-0.1,0.3-0.4,0.5-0.5c1-0.9,1.7-1,2.7,0C877.5,543.3,878,544.2,878.7,545.3z
				 M804.9,547.8c0.8,0.6,1.4,1,2,1.4c0.2,0.1,0.8,0.2,0.9,0.1c1.2-1.6,3.1-1.4,4.8-1.8c0.8-0.2,1.4-1.2,1-2c-0.3-0.9-1-0.9-1.7-0.5
				c-1.1,0.6-2.2,1.3-3.5,0.8c-0.1-0.1-0.4,0.2-0.6,0.3C806.8,546.5,806,547.1,804.9,547.8z M881.6,542.2c-0.1,0.1-0.2,0.2-0.2,0.3
				c0.5,0.4,1.2,1.3,1.6,1.2c1.8-0.4,3,0.4,4.4,1.4c0.7,0.5,1.2-0.2,1.4-0.8c0.3-0.7-0.2-1.1-0.8-1.1c-1.9-0.1-3.5-1.4-5.5-0.8
				C882.3,542.5,881.9,542.3,881.6,542.2z M892.7,543.1c-0.6,0.1-1,0.2-1.3,0.3c-0.8,0.3-0.8,0.8,0,1.3c0.2,0.1,0.4,0.2,0.6,0.4
				c0.7,0.7,1.4,0.3,1.9-0.2c0.2-0.2,0.4-0.9,0.3-1C893.8,543.5,893.2,543.3,892.7,543.1z M844.9,479.9c-0.6-0.5-0.9-1-1.1-1
				c-0.8,0.1-1.7,0.3-1.6,1.3c0.1,0.5,0.7,0.9,1.1,1.3C843.8,481,844.3,480.5,844.9,479.9z M819.6,522.2c-0.1-0.3-0.1-0.8-0.3-1.2
				c0-0.1-0.4-0.2-0.6-0.2c-0.6,0.2-1.2,1.9-0.8,2.4c0.2,0.3,0.6,0.6,0.9,0.6c0.3,0,0.5-0.5,0.7-0.8
				C819.6,522.9,819.5,522.6,819.6,522.2z M930.9,529.9c-0.6-0.6-1-1.1-1.5-1.5c-0.3,0.3-0.8,0.8-0.7,0.9c0.2,0.5-0.2,1.6,1,1.5
				C930,530.6,930.3,530.3,930.9,529.9z M923.5,516.8c0.9-0.1,1.6-0.1,2.1-0.3c0.2-0.1,0.2-0.7,0.3-1c-0.3,0-0.6-0.1-0.8,0
				C924.6,515.7,924.2,516.1,923.5,516.8z M921,510c-0.3,0.5-0.6,0.7-0.6,0.8c0.2,0.4,0.5,0.9,0.8,1.3c0.1-0.1,0.4-0.3,0.4-0.4
				C921.5,511.2,921.3,510.7,921,510z M805.3,529.6c-0.3,0.7-0.5,1-0.4,1.2c0.3,0.4,0.7,0.7,1.1,1c0,0,0.4-0.3,0.4-0.4
				C806.1,530.8,805.8,530.4,805.3,529.6z M805.3,556.2c-0.2,0.5-0.4,0.8-0.3,1c0.1,0.2,0.4,0.3,0.6,0.4c0.1-0.2,0.3-0.4,0.3-0.5
				C805.8,556.9,805.6,556.7,805.3,556.2z M922.3,554.1c0.2-0.4,0.3-0.6,0.3-0.8c-0.1-0.3-0.3-0.5-0.4-0.7c-0.2,0.2-0.5,0.3-0.6,0.5
				C921.6,553.2,921.9,553.5,922.3,554.1z M897.4,476.9c-0.4-0.2-0.7-0.4-0.9-0.4c-0.1,0-0.4,0.4-0.3,0.5c0.1,0.2,0.3,0.4,0.5,0.6
				C896.9,477.5,897.1,477.3,897.4,476.9z M860.2,545.6c-0.1,0-0.1-0.1-0.2-0.1c-0.1,0.1-0.1,0.2-0.2,0.3c0,0,0.1,0.1,0.1,0.1
				C860.1,545.8,860.2,545.7,860.2,545.6z M817.6,518.8c0-0.1,0-0.1,0.1-0.2c-0.1,0-0.2,0-0.3,0c0,0-0.1,0.1-0.1,0.2
				C817.4,518.8,817.5,518.8,817.6,518.8z M908.5,577.3c-0.1-0.1-0.3-0.1-0.4-0.1c0,0-0.2,0.1-0.1,0.1c0.1,0.1,0.2,0.2,0.2,0.2
				C908.3,577.5,908.4,577.4,908.5,577.3z M901.8,486.8c0-0.1,0-0.1,0-0.2c-0.1,0-0.2,0.1-0.2,0.1c0,0.1,0.1,0.1,0.1,0.2
				C901.7,486.8,901.7,486.8,901.8,486.8z"/>
			<path d="M940.1,291.5c-1.1-0.8-2-0.5-2.5,0.7c-0.4,1-1,1.3-2,1.3c-0.8,0-1.4,0.2-1.2,1.5c0.2,1.3-0.9,1.9-2,2.3
				c-0.3,0.1-0.8-0.1-0.9,0.1c-1.3,2.4-4.5,2.2-6,4.4c-0.8,1.2-2.1,1.7-3.5,1c-1-0.5-1.9-0.1-2.5,0.8c-0.7,1-1.3,0.8-2.4,0.6
				c-1.4-0.3-2.8-1.7-4.4-0.7c-0.1,0.1-0.6-0.4-0.9-0.6c-0.5-0.4-0.9-0.8-1.4-1.2c-0.8-0.5-1.3-0.3-1.6,0.6
				c-0.3,0.8-0.3,1.9-1.6,1.7c-1.4-0.2-2.9-0.4-3.5-2c-0.3-0.8-0.4-1-1.4-0.7c-1,0.4-2-0.6-2.6-1.6c-1.3-2.3-1.2-1.9-3.8-0.9
				c-0.5,0.2-0.9,0.7-1.4,0.9c-0.6,0.2-1.6,0.5-1.8,0.2c-1.3-1.6-2.9,0-4.3-0.5c-0.2-0.1-0.6,0.4-0.8,0.7c-1.2,1.4-1.4,1.5-3,0.7
				c-0.4-0.2-0.7-0.4-1-0.5c-0.9-0.2-1.9,2-2.7-0.4c-0.3-0.8-1.9-1.2-2.9-1.8c-0.1-0.1-0.2-0.2-0.3-0.4c-0.3-0.5-0.5-1-0.8-1.5
				c-0.4,0.4-0.8,0.7-1.3,1.1c-0.2,0.2-0.5,0.6-0.7,0.5c-2.5-0.3-4.3,1.3-6.4,2c-0.2,0.1-0.5,0.1-0.7,0c-1.3-0.8-2.1-0.3-2.7,0.9
				c-0.1,0.2-0.8,0.2-1.2,0.2c-0.8-0.1-1.6-0.3-2.4-0.3c-0.3,0-0.9,0.1-1,0.3c-0.9,1.7-2.5,1.3-3.8,1.1c-0.9-0.1-1.6,0.1-2.4,0.2
				c-2,0.2-3.7,1.1-5.6,1.4c-2,0.4-5.2-1.9-5.8-4c-0.8-2.6-1.2-5.2-0.3-8c0.9-2.8,0.1-5.7-1-8.4c-0.5-1.1-2.7-1.6-4-1
				c-0.4,0.2-0.9,0.4-1.2,0.8c-1.7,1.8-3.8,2.8-5.9,4c-1.5,0.8-2.7,1.7-4.4,1.7c-0.2,0-0.7,0.6-0.7,1c-0.1,1.4-0.7,2.2-2.2,2.3
				c-0.4,0-0.8,0.4-1.2,0.7c-0.3,0.2-0.7,0.6-0.9,0.5c-1.5-0.6-1.6,0.3-2,1.4c-1.3,3.3-3.7,4.8-7.2,4.7c-0.2,0-0.5-0.1-0.7-0.2
				c-0.8-0.6-1-3.8-0.1-4.3c0.8-0.5,0.9-1.1,0.9-2c0-1.6-0.1-3.2,1.4-4.3c0.4-0.3,0.5-1.1,0.6-1.7c0.1-0.6-0.1-1.3-0.1-1.9
				c0.1-1.8-0.7-2.5-2.5-2c-0.5,0.1-1.1,0.4-1.5,0.8c-1.1,1.1-2.2,1.9-3.9,1.7c-0.4,0-1,0.4-1.2,0.7c-0.7,1.8-2.4,2.5-3.6,3.7
				c-1,1-2.4,1.6-3.6,2.3c-0.8,0.5-1.4,1.1-2,1.9c-0.8,1.3-1.9,2.5-3.2,3.5c-1.8,1.4-3.9,2.4-5,4.5c-0.1,0.3-0.9,0.3-1.4,0.3
				c-0.3,0-0.6-0.3-0.9-0.4c-2-0.5-2.6-1.2-1.8-3c1.1-2.3,2.1-4.8,4.3-6.5c0.5-0.4,1-0.9,1.3-1.4c0.9-1.5,1.8-2.9,2.6-4.5
				c0.3-0.7,0.2-1.5,0.3-2.3c0-1.4-0.4-3,0.1-4.2c0.6-1.4-0.4-1.8-1-2.6c-0.7-0.8-1.4-0.9-2.5-0.7c-1.8,0.3-3.8,0.2-5.6,0.1
				c-1.3-0.1-2.4-0.1-3.7,0.5c-2.2,1-4.3,1.8-6.2,3.4c-1.4,1.1-4,0-4.5-1.6c-0.1-0.2-0.1-0.6,0-0.7c1.1-0.9,1.4-2.3,2.2-3.3
				c0.3-0.4,1.3-0.5,2-0.6c0.8-0.1,1.6,0,2.4,0c1.2-0.1,2.1-0.4,3.1-1.3c0.8-0.8,2.3-1,3.5-1.1c2.2-0.3,4.4-0.4,6.6-0.4
				c0.4,0,0.9,0.3,1.3,0.4c0.5,0.1,1.2,0.5,1.6,0.3c1.5-0.5,2.4,0.4,3.5,0.9c1.3,0.7,1.9,1.6,2,3c0.1,0.4,0.4,0.8,0.7,1.2
				c0.9,1.4,1.6,2.9,1,4.7c-0.1,0.3-0.2,0.6-0.2,0.9c0.1,0.5,0.3,1.2,0.6,1.4c0.3,0.2,1-0.1,1.4-0.4c0.6-0.3,1.1-0.7,1.7-1.1
				c0.4-0.3,0.8-0.5,1.1-0.9c0.2-0.2,0.3-0.8,0.5-0.8c2.2,0.1,3-2.4,5.1-2.6c1.9-0.2,3.7-0.9,5.6-1.1c1.9-0.2,4.5,2,5.2,3.8
				c0.3,0.8,0.5,1.5,0.8,2.3c0.3,0.9,0.6,1.7,0.9,2.6c1.3-0.4,2.7-0.8,4-1.3c1-0.4,1.8-0.9,2.7-1.4c0.5-0.3,1.2-0.4,1.4-0.9
				c0.9-1.9,3-2.3,4.4-3.5c0.2-0.2,0.6-0.3,0.9-0.3c1.3-0.3,2.7-0.5,3.9-1c2.9-1.3,5.8-0.7,8.6,0.1c1,0.3,1.7,1.1,1.4,2.4
				c-0.1,0.5,0.1,1.2,0.4,1.5c1.6,1.1,1.3,2.9,1.3,4.4c0,3.7-0.2,7.4-0.3,11.1c0,1.4,0.6,1.9,2.1,1.7c1-0.1,2-0.4,3-0.4
				c1.4,0,3,0.9,4.1,0.4c1.4-0.6,2.7-0.7,4.1-0.5c0.4,0,0.8-0.2,1.1-0.5c0.4-0.3,0.7-1,1-0.9c2,0.2,3.5-1.1,5.2-1.5
				c0.2-0.1,0.5-0.1,0.7,0c3,1.2,4.4-1.8,6.7-2.4c0.3-0.1,0.5-0.6,0.6-0.9c0.6-1.9,1.9-3.4,2.2-5.4c0.3-2,1.6-3.6,3-5
				c1.7-1.7,3.3-3.4,5.1-4.9c0.5-0.4,1.3-0.4,1.9-0.6c2.5-0.8,4.9-0.9,7.1,0.8c1.5-0.4,2.8,0,4,0.9c0.5,0.4,1.1,1,1.4,1.6
				c0.7,1.7,1.3,3.4,2,5.4c1.2-0.9,2.3-1.7,3.4-2.6c0.9-0.7,1.8-1.5,2.8-2.1c1-0.6,2-0.2,2.2,1c0.1,1.1,0.3,2.4-0.2,3.3
				c-1.1,1.8-1.6,4.3-4.4,4.5c-0.6,0-1.1,0.9-1.5,1.4c-0.6,0.7-1,1.6-1.6,2.3c-0.6,0.8-0.5,1.3,0.2,2c2,2.2,4.7,2.5,7.3,3
				c0.8,0.2,1.7,0.1,2.6,0.4c1.2,0.4,2.4,0.9,3.5-0.3c0.1-0.2,0.5-0.3,0.6-0.2c2.5,1.2,4-1.7,6.3-1.5c0.5,0.1,1.1-0.8,1.6-1.4
				c1.3-1.4,2.5-2.9,3.7-4.3c0.7-0.8,1.2-1.6,1.9-2.4c0.2-0.3,0.6-0.5,0.9-0.7c0.4-0.4,0.9-0.8,1.1-1.3c0.6-1.6,1.5-2.7,3.1-3.3
				c0.3-0.1,0.5-0.3,0.7-0.5c1.3-1.4,2.4-2.9,4.2-3.9c1-0.5,1.6-1.7,2.4-2.5c1.4-1.3,2.9-2.6,4.2-3.9c0.4-0.4,0.4-1,0.7-1.5
				c0.6-0.9,1.1-2.1,1.9-2.7c0.9-0.6,1.2-1,1.1-2c-0.1-1.9,0-3.7,2-5c0.8-0.5,1.4-1.9,1.4-2.9c0.2-4.6,3.4-7.7,5.8-11.1
				c0.7-1,2.4-1.4,3.6-2c0.3-0.1,0.9,0,1.1,0.2c0.7,0.9,1.4,1.8,1.7,2.8c0.4,1.1,0.1,2.2-1,3c-0.3,0.2-0.6,0.6-0.7,0.9
				c-0.4,2-1.8,3.5-2.4,5.3c-0.9,2.5-1.2,5.2-1.7,7.9c-0.1,0.5,0.1,1.3,0.4,1.5c0.3,0.2,1.2,0,1.5-0.3c1.2-1.4,2.9-0.7,4.3-0.9
				c0.6-0.1,1.1,0,1.2-0.8c0.1-1.2,1-1.1,1.8-1c0.6,0,1.3,0.2,1.9,0.3c0.6,0.1,1.5,0.3,1.6,0c1.2-1.9,2.9-0.4,4.3-0.8
				c0.3-0.1,0.8,0.5,1.2,0.8c-0.3,0.4-0.6,1.1-0.9,1.1c-1,0.1-1.5,0.7-2.1,1.4c-1.1,1.2-2.3,2.3-4.2,2.5c-1.4,0.2-2.8,1-4.2,1.6
				c-1.7,0.8-3.3,1.4-5.2,1.2c-0.3,0-0.8-0.1-0.9,0.1c-0.9,1.8-3.1,1.4-4.4,2.6c-0.7,0.6-1.4,1.3-2,2c-0.2,0.2-0.2,0.7-0.1,1
				c0.2,1.1,0.6,2.1,0.7,3.2c0.1,1.1,0.3,1.9,1.3,2.3c0.8,0.4,1,1,1.1,1.9c0.1,2.2,0.8,2.8,3,2.4c1.7-0.3,3.4-0.6,5.2-0.9
				c0.1,0.2,0.3,0.5,0.2,0.7c-0.7,1.7-1.5,3.4-2.3,5.1c-0.1,0.3-0.6,0.5-1,0.6c-1.2,0.3-2.5,0.5-3.8,0.6c-0.5,0-1.4-0.5-1.5-0.9
				c-0.3-1.2-1.2-1.2-2.1-1.7c-1.7-0.9-4.1-1.2-4.3-3.9c0-0.5-0.5-1-0.9-1.4c-0.9-1-1.1-0.9-1.9,0.3c-0.2,0.4-0.5,0.9-0.9,1.1
				c-1.6,0.6-1.8,1.8-1.3,3.1c0.3,1,0.3,1.6-0.6,2.2c-1.6,1-1.7,2.9-2.5,4.4c-1.3,2.4-2.5,4.9-4.3,7c-0.5,0.6-1.1,0.9-1.5,0.1
				c-0.7-1.1-1.4-1.2-2.4-0.4c-0.3,0.2-0.7,0.3-1.1,0.4c-0.7,0.2-1.2-0.1-0.9-0.8c0.7-1.7,0.7-3.6,2-5
				C939.3,295.6,939.6,293.5,940.1,291.5c0.1-0.3,0.2-0.6,0.3-0.8c0-0.1,0-0.3,0-0.4c-0.1,0.1-0.2,0.2-0.3,0.4
				C940,290.9,940.1,291.2,940.1,291.5z M885.8,295c0.7,0.1,1.1,0.2,1.5,0.1c1.3-0.2,2.5-1.1,4.1-0.7c0.4,0.1,1.1-0.8,1.7-1.3
				c-0.6-0.2-1.3-0.5-1.9-0.6c-0.2,0-0.4,0.2-0.7,0.2c-0.7,0.1-1.2-0.3-1.4-1c-0.4-1.6,1-2.8,2.8-2.5c0.5,0.1,1.1,0.5,1.5,0.4
				c1.1-0.2,2.1-0.5,3.2-0.9c1.8-0.7,2.3-2,1.4-3.8c-0.1-0.3-0.3-0.6-0.3-0.9c-0.2-1.5-1.2-1.7-2.4-1.8c-1-0.1-2-0.2-3-0.2
				c-1.1,0-2.2,0.2-3.2,0.4c-0.3,0.1-0.8,0.5-0.8,0.8c0,1.9-1.3,2.7-2.8,3.3c-0.2,0.1-0.5,0.6-0.4,0.9c0,1.2,0.1,2.3,0.2,3.6
				c0.5-0.2,1-0.4,1.5-0.4c0.3,0,1,0,1,0.2c0.1,0.4,0.1,0.9-0.1,1.3C887.3,292.9,886.6,293.8,885.8,295z M941.5,287.9
				c0.2-0.4,0.4-0.7,0.6-1c0-0.1-0.3-0.3-0.4-0.4c-0.2,0.3-0.5,0.5-0.6,0.8C941,287.3,941.2,287.6,941.5,287.9z M921.9,300.9
				c-0.3-0.2-0.5-0.4-0.6-0.3c-0.2,0.1-0.3,0.3-0.4,0.5c0,0.2,0.2,0.3,0.3,0.5C921.5,301.4,921.6,301.2,921.9,300.9z"/>
			<path d="M893.9,594.8c-0.8,0-1.4-0.2-1.7,0c-1.9,1.3-3.9,1.3-6.1,0.8c-0.8-0.2-1.3-0.6-1.4-1.4c-0.2-0.8,0.1-1.4,0.9-1.7
				c1.6-0.6,3.2-1.3,4.8-1.9c4.5-1.6,9.2-1.6,13.9-0.9c0.9,0.1,1.7,0.7,2.6,0.9c1.5,0.4,3.1,0.6,4.6,1c0.6,0.1,1.2,0.4,1.7,0.7
				c0.4,0.2,0.6,0.5,1,0.7c2.6,1.5,3.3,1.2,4.1-1.7c0.4-1.5,0.6-3.2,2.2-4.2c0.3-0.2,0.1-1.2,0.4-1.8c0.2-0.6,0.6-1.5,1-1.6
				c0.7-0.2,1.7-0.1,2.2,0.3c0.6,0.5,1.1,1.4,0.5,2.3c-0.8,1.1-0.6,2.2-0.6,3.4c0.1,1.4-0.2,2.8-0.4,4.2c0,0.4-0.2,0.8-0.2,1.2
				c0.1,3-1.7,5.5-2.1,8.4c0,0.3-0.5,0.6-0.7,0.9c-0.3,0.4-0.7,0.7-0.8,1.2c-0.3,1.5-0.5,3-1.5,4.4c-0.6,0.8-0.2,2.3-0.3,3.5
				c-0.1,0.6-0.1,1.3-0.3,1.8c-1,2-1.3,4.2-1.5,6.4c0,0.5-0.1,1-0.4,1.3c-1,1.4-2,2.8-3,4.3c-0.5,0.7-0.9,1.5-1.1,2.3
				c-0.2,1-0.1,2-0.2,3c0,1-1.9,1.2-1.1,2.6c0.1,0.2-0.2,0.7-0.4,0.8c-1.7,0.4-1.4,1.8-1.6,3c-0.2,1.5-0.3,3-1.8,4
				c-0.3,0.2-0.2,0.7-0.4,1c-0.4,0.9-0.8,1.7-1.2,2.6c-0.2,0.4-0.4,0.7-0.5,1.1c-1,3.9-2.5,7.4-5.9,9.9c-0.9,0.6-1.3,1.9-1.8,3
				c-0.6,1.4-1,3.1-2.9,3.4c-0.4,0.1-1,0.5-1.1,0.8c-0.4,1.6-1.9,2.5-2.7,3.8c-0.5,0.8-1,1.4-1.8,2c-0.6,0.5-0.9,1.4-1.3,2.1
				c-0.4,0.8-0.6,1.7-1.1,2.3c-1.6,1.6-3.3,3.1-5,4.6c-1,0.9-2.2,1.6-3.7,1.5c-1.1,0-2,0.4-2.2,1.5c-0.3,1.4-1.2,1.6-2.3,1.5
				c-1.2-0.1-2.1,0.1-2.9,1.2c-0.4,0.6-1.5,0.8-2.3,1.1c-2,0.9-4.5,1.2-6,2.7c-1.8,1.7-3.3,2.2-5.6,1.7c-0.4-0.1-1.2,0.6-1.6,1.1
				c-0.8,0.9-1.6,1.4-2.9,0.8c-0.8-0.4-1.7-0.5-2.4,0.3c-0.3,0.3-0.8,0.4-1.3,0.4c-2.9,0.5-5.9,0.3-8.8,0.3c-0.7,0-1.4-0.3-2.1-0.3
				c-1.2,0-2.3-0.1-3.4,0.1c-0.9,0.2-1.5,0.3-2.1-0.5c-0.7-0.8-1.5-1-2.5-0.7c-0.7,0.2-1.7-0.3-2.3-0.7c-0.7-0.6-1.2-0.4-1.9-0.3
				c-1.5,0.3-3.1,0.4-4.7,0.3c-1.2-0.1-2.4-0.4-3.4-0.9c-2.4-1.2-5-0.9-7.4-0.8c-2.5,0-4.9-1.1-7.4-0.8c-1.9-1.4-4.3-1.4-6.3-2.5
				c-2-1.1-3.8-2.6-6.2-2.8c-0.5,0-1-0.5-1.5-0.7c-0.3-0.1-0.6-0.6-0.7-0.5c-2.2,1-3-1-3.9-2c-0.7-0.8-1.3-1.3-2.3-1.4
				c-1.1-0.1-1.8-0.6-1.9-1.8c0-0.2-0.1-0.6-0.2-0.7c-2.1-0.9-2.6-3.3-4.3-4.5c-0.3-0.2-0.7-0.5-0.8-0.9c-0.4-1.4-1.3-2.4-2.3-3.5
				c-1-1-1.4-2.5-2.1-3.7c-0.2-0.4-0.4-0.9-0.7-1.2c-1.4-1.2-2.2-2.6-2.2-4.7c0.1-1.3-1.1-2.6-1.6-3.9c-0.4-1-0.5-2-1.6-2.6
				c-0.6-0.3-0.4-1,0.1-1.4c0.6-0.6,0.4-1,0-1.6c-1.2-1.7-2.4-3.5-1.6-5.8c0.2-0.5,0-1.1-0.2-1.6c-0.9-2.1-0.7-4.2-0.7-6.4
				c0-0.5,0.3-1,0.4-1.6c0.3-0.9,1-2,0.7-2.6c-0.9-2.2,0.5-4,0.5-6c0.1-1.9,0.8-3.8,1-5.8c0.2-2.5,1.5-4.8,1.2-7.5
				c-0.1-1.2,0.3-2.5,0.8-3.6c1.1-2.7,0.7-5.5,0.2-8.2c0-0.2-0.2-0.5-0.1-0.7c1.5-3,0.8-6.4,1.8-9.4c0.5-1.4,1.1-2.8,1.8-4.1
				c0.7-1.3,1.6-2.5,2.5-3.7c0.3-0.4,1-0.7,1.3-0.6c0.7,0.4,0.9,1.1,0.4,1.8c-0.5,0.8-0.9,1.5-1.3,2.3c-0.7,1.2-1.3,2.5-1.9,3.7
				c-0.1,0.2-0.2,0.4-0.3,0.7c-0.1,1.8-0.1,3.6-0.3,5.5c-0.2,3.7-0.4,7.4-0.7,11.1c-0.2,2.8-0.7,5.6-1,8.4c0,0.4,0,0.8-0.1,1.2
				c-1.4,3.6-1.5,7.4-2,11.2c-0.1,0.8-0.4,1.5-0.6,2.3c-0.1,0.5-0.5,1.1-0.4,1.6c0.4,1.9-0.2,3.6-0.5,5.4c-0.1,0.5,0.1,1.1,0.2,1.6
				c0.5,1.8,1.1,3.7,1.6,5.5c0.1,0.3,0.1,0.7,0.2,0.9c2.1,2.9,2,6.3,2.4,9.6c0.3,2.1,1.4,3.6,2.7,5c0.9,0.9,1.9,1.7,2.1,3.1
				c0,0.2,0.1,0.4,0.2,0.4c2.6,1.5,2.7,4.8,5,6.5c0.3,0.2,0.6,0.6,0.7,0.9c0.5,2.5,2.9,3.6,4.1,5.6c0.4,0.6,1.1,1.2,1.8,1.5
				c2.4,1,4.8,1.9,7.3,2.9c0.5,0.2,1,0.5,1.5,0.7c1,0.4,2.1,0.7,3.1,1c0.5,0.2,1,0.5,1.4,0.7c0.3,0.2,0.7,0.4,1,0.5
				c1.6,0.4,3.3,0.5,4.9,1.1c2.2,0.8,4.3,1.1,6.6,1.2c3,0.2,5.9,1.1,8.9,1.6c0.9,0.2,1.9,0.3,2.8,0.3c1.4-0.1,2.8-0.1,4.2,0.4
				c1.3,0.5,2.8,0.7,4.3,0.3c0.8-0.2,1.7-0.5,2.4,0.4c0.1,0.2,0.5,0.2,0.8,0.2c1.6-0.4,3,0,4.6,0.6c1.6,0.6,3.6,0.6,5.2,0.2
				c2.1-0.6,4.3-0.6,6.4-0.9c2.2-0.3,4.3-0.9,6.4-1.5c2-0.6,4-1.4,5.9-2.3c3.1-1.5,6-3.2,9-4.7c1.5-0.8,3.3-1.3,4.6-2.4
				c2-1.5,3.7-3.4,5.5-5.1c0.5-0.5,0.9-1.1,1.4-1.7c1.2-1.5,2.5-2.9,3.6-4.5c1.1-1.6,2-3.4,3.6-4.5c-0.1-1.7,2.1-1.9,2.4-3.6
				c0.2-1.3,1.4-2.4,2.1-3.6c1.9-3.1,3.8-6.2,5.5-9.3c1.1-2.1,1.8-4.3,2.8-6.4c1.4-2.9,2.4-6,4.2-8.7c0-0.1,0.1-0.1,0.1-0.2
				c0.6-4,3.3-7.3,3.6-11.4c0.1-1.2,1.1-2.3,1.5-3.5c0.3-1,0.5-2.1,0.2-3.1c-0.4-1.7,0.1-3,0.9-4.3c1.2-1.8,1.2-4,1.9-6
				c0.4-1.1-0.9-2.5-2.1-3c-0.9-0.3-1.7-0.8-2.6-1.2c-0.6-0.3-1.3-0.9-1.9-0.9c-1.1,0-2.5-0.9-3.4,0.2c-0.6,0.8-0.9,2-1,3.1
				c-0.1,1.6-0.4,2.9-2,3.7c-0.6,0.3-0.9,1.3-1.3,1.9c-0.6,1-1.6,1.2-2.7,1.1c-1.3-0.2-2.7-0.4-4-0.7c-3.7-0.8-5.7-5.3-3.7-8.4
				C891.7,596.2,892.7,595.7,893.9,594.8z M920.8,596.4c-0.4-0.3-0.6-0.6-0.7-0.6c-0.3,0.1-0.6,0.4-0.7,0.7
				c-0.1,0.2,0.2,0.5,0.4,0.7C920,597,920.3,596.7,920.8,596.4z"/>
			<path d="M990.7,384.9c0.6,1.4,1.2,2.8,1.9,4.1c0.6,1.1,1.2,1.1,1.6,0c0.7-1.9,1.4-3.9,1.9-5.9c0.1-0.5-0.3-1.4-0.7-1.6
				c-1-0.5-2.1-0.8-3.2-1c-1.9-0.3-3.9-0.4-5.8-0.7c-0.6-0.1-1.2-0.6-1.8-0.8c-0.3-0.1-0.7-0.3-1.1-0.3c-0.6,0-1.3,0.2-1.9,0.1
				c-2.5-0.5-4.2,0.7-5.6,2.6c-1.1,1.4-2.4,2.5-3.5,3.8c-0.4,0.5-0.6,1.1-0.9,1.7c-0.9,1.6-1.6,3.4-4,3c-0.3,0-0.8,0.3-0.9,0.6
				c-0.2,0.9-0.8,1.1-1.6,1.2c-0.5,0.1-2.6-0.4-3.1-0.5c-1-0.3-2.2-0.5-3.2-0.4c-1.7,0.1-1.6,0.2-2.5-1.5c-0.8-1.5-1.3-2.8-0.7-4.5
				c0.4-1.2,1-2,1.9-2.6c1.7-1,2.9-2.3,3.8-4.1c0.5-1,1.6-1.8,2.5-2.5c1.9-1.4,3.5-3.1,5.5-4.5c2.7-1.9,5.6-3.6,7.5-6.5
				c0.7-1.2,1.7-2,3-2.5c0.7-0.2,1.3-0.9,1.9-1.4c2-1.6,4.1-3.1,6-4.8c1.4-1.2,2.4-2.8,3.7-4.2c0.9-0.9,1.6-2.2,3.2-2.2
				c0.4,0,0.9-0.2,1.1-0.5c0.8-1.2,1.9-0.8,3-0.7c1.3,0.1,2.1,0.3,2.9,1.5c0.8,1.2,2.2,2.1,3.5,2.8c1.2,0.6,1.8,1.5,2.2,2.7
				c0.3,1,0.7,2.1,1.3,3.1c0.4,0.7,1.2,1.2,1.9,1.6c0.7,0.4,1.1,0.7,1.1,1.6c-0.1,2.7-0.1,5.4,0,8.1c0.1,2.7,0,5.4-1.2,7.9
				c-0.5,0.9-0.2,2.2-0.5,3.2c-0.3,1.3-0.7,2.6-1,3.8c-0.2,0.8-0.5,1.7-0.6,2.5c-0.1,1.2-0.3,2.3-1.2,3.3c-0.4,0.4-0.3,1.3-0.5,1.9
				c-0.2,0.8-0.2,2-0.7,2.4c-1.1,0.8-1.2,2-1.6,3c-0.4,0.9-0.5,1.9-1.7,2.4c-0.4,0.1-0.6,1.1-0.8,1.8c-0.2,1.2-0.8,1.7-1.9,2.4
				c-2.6,1.7-4.4-0.1-6.3-1.1c-0.6-0.3-0.9-1.3-1.2-1.9c-0.1-0.3,0-0.7-0.2-0.9c-2.4-1.8-1.5-4.4-1.6-6.7c0-2.1,0.3-4.3-0.5-6.4
				C989.3,386.4,989.4,386.3,990.7,384.9z M988.9,370.3c0.2,0.1,0.4,0.3,0.6,0.3c1.8-0.1,3.6-0.2,5.2,1.2c1.1,1,2.6,0,3.9-0.2
				c0.1,0,0.3-0.5,0.3-0.8c0.3-2.2,0.7-4.4,1-6.6c0.1-0.9-0.3-1.6-1.1-1.9c-1.2-0.5-2,0-2.2,1.5c-0.2,1.5-0.6,3.1-1.9,3.6
				c-1.9,0.7-3.3,2.5-5.5,2.4C989,369.9,989,370.1,988.9,370.3z M1009.5,366.1c-0.2-0.2-0.3-0.3-0.4-0.4c-0.3,0.3-0.5,0.6-0.8,0.9
				c0.1,0,0.3,0.2,0.4,0.1C1009,366.6,1009.2,366.4,1009.5,366.1z"/>
			<path d="M545,378.7c0.4-3.5,0.6-6.2,0.9-9c0-0.4,0.1-0.8,0.4-1.1c0.6-0.6,0.5-1.1,0.3-2c-0.3-1.4,0.1-3,0.3-4.4
				c0.1-1.2-0.1-2.4,0.4-3.5c0.7-1.7,1.1-3.5,2-5.1c0.7-1.3,2.5-1.4,4.3-0.7c1,0.4,2.1,0.7,3.1,0.9c2.4,0.5,2.9,1.5,1.9,3.7
				c-0.2,0.4-0.6,0.8-0.5,1c0.7,2.2-0.5,4.3-0.6,6.5c0,1-0.5,2-0.7,3c-0.1,0.4-0.3,0.9-0.4,1.3c-0.2,1.6-0.5,3.3-0.6,4.9
				c0,0.6,0.2,1.5,0.6,1.9c0.8,0.7,1.9,0.2,2-1.1c0.1-1.3,0.9-1.9,1.8-2.5c0.7-0.4,1.4-0.9,1.7-1.6c1.4-2.4,2.8-5,4.1-7.5
				c0.1-0.3,0.1-0.6,0.2-0.9c0.4-2.4,1.2-2.9,3.5-2.2c1.9,0.6,3.7,1.2,5.6,1.8c1.1,0.4,2,1.4,1.9,2.6c-0.1,2.7,0,5.4-0.4,8
				c-0.2,1.1,0,1.8,0.6,2.6c0.3,0.4,0.7,0.8,1,1.2c0.5-0.5,1.4-0.9,1.4-1.4c0.2-1.4,1.2-2.2,1.9-3.2c0.7-0.9,1.1-2.1,1.6-3.1
				c0.8-1.8,1.5-3.5,2.1-5.4c0.5-1.7,0.7-3.5,1.1-5.3c0.1-0.6,0.3-1.2,0.5-1.8c0.7-2.2,1.2-2.3,3.4-1.8c1.1,0.2,1.8,0.8,2.7,1.3
				c0.5,0.3,1,0.7,1.5,0.6c1-0.1,1.8,0,2.1,1c0.4,1.1,1.2,2.2,0.3,3.4c-0.8,1-0.8,1.9-0.2,2.9c1.3,2.1,0.1,3.9-0.9,5.5
				c-1.9,2.7-3.9,5.4-4.4,8.8c-0.2,1.1-0.6,2-1.5,2.9c-0.9,0.8-1.4,2.1-2.2,3.1c-1.4,1.6-3.4,2.6-4.6,4.5c-0.2,0.4-1.2,0.7-1.4,0.6
				c-1.3-0.9-2.1-0.2-3,0.6c-0.9,0.8-1.9,0.6-3.2-0.2c-0.4-0.3-1.2-0.5-1.4-0.3c-1.4,1.3-2.7,0.4-3.7-0.3c-1.4-1-3.5-1.8-3.1-4.3
				c0-0.3-0.1-0.6-0.3-0.9c-0.4-0.7-0.8-1.9-1.3-2c-1.2-0.3-1.3,1.1-1.8,1.9c-0.8,1.2-1.3,2.7-3.3,2.7c-0.4,0-0.9,0.5-1.1,0.8
				c-0.6,1.4-1.8,1.8-3.2,2.1c-0.6,0.2-1.1,0.5-1.7,0c-0.3-0.2-0.7-0.3-1.1-0.4c-1.6-0.3-3.3-0.5-4.9-1c-0.9-0.3-1.9-1.2-2.2-2
				C545.9,383.1,545.4,380.6,545,378.7z"/>
			<path d="M855.6,402.3c-0.3-0.5-0.5-1-0.9-1.3c-0.4-0.3-0.9-0.4-1.4-0.5c-0.2,0-0.6,0.3-0.6,0.3c-0.9-1.2-1.6-1.1-2.4,0.1
				c-0.1,0.1-1.3-0.3-1.5-0.7c-1-1.7-1.9-3.6-2.8-5.4c-0.3-0.5-0.8-1.3-1.1-1.2c-3.8,0.3-5-2.6-6.4-5.1c-0.5-0.9-1.1-1.9-1.6-2.9
				c-0.5-0.9-1-0.5-1.5,0c-0.2,0.2-0.4,0.5-0.5,0.8c-0.5,1.5-0.7,3.3-3.1,3.1c-0.3,0-0.8,0.9-1,1.4c-1.2,2.9-3.4,3.7-6.2,2.2
				c-1.7-0.9-1.7-0.9-1.4-2.9c0-0.2,0.2-0.5,0.1-0.7c-1.3-2.7,0.2-5.3,0.1-7.9c-0.1-1,0.3-1.8,1.4-2.3c1.2-0.5,1.3-1.8,1.4-2.9
				c0.4-3.1,1.4-6,2.4-8.9c0.8-2.4,2.1-4.8,1.5-7.5c-0.1-0.7,0.1-1.4,0.3-2.1c0.5-1.7,1-3.5,1.7-5.1c0.2-0.6,0.8-1.2,1.4-1.5
				c0.4-0.2,1,0.4,1.6,0.6c0.1,0,0.1,0.1,0.2,0.1c3,0.2,6,1.2,9,0.4c1.5-0.4,2.8-0.1,4.3,0.2c1.6,0.4,3,2,4.9,1.3
				c0.2-0.1,0.6,0.2,0.8,0.4c1.1,1.1,2.4,2.2,3.3,3.4c1,1.3,2.2,2.4,3.7,3.2c1.6,0.8,2.9,1.9,2.8,4c0,0.4,0.2,0.9,0.4,1.4
				c1,2.9,0.5,4.5-1.9,6.4c-0.4,0.3-0.7,0.8-1,1.3c-0.9,1.1-1.7,2.4-3.5,2.1c-0.3,0-0.7,0.1-0.8,0.3c-0.6,1.1-1.4,1.3-2.6,0.8
				c-0.7-0.3-1.2,0.2-1.5,0.9c-0.5,1.4-1.9,1.5-3,1.5c-1.1,0-2.1-0.7-3.2,0.1c-0.1,0.1-0.9-0.5-1.2-0.9c-0.7-1.2-1.5-0.6-2.2-0.2
				c-0.7,0.4-1.1,0.8-0.6,1.9c1,1.9,1.9,3.8,3.8,5c0.3,0.2,0.5,0.5,0.6,0.7c0.8,1.7,1.5,3.4,2.3,5.1c0.1,0.2,0.4,0.5,0.6,0.6
				c2.3,1.6,4.4,3.4,5.7,5.9c0.1,0.1,0.2,0.3,0.3,0.4C857.9,400.3,857.9,400.3,855.6,402.3z M842.4,368.8c0.1,0,0.5-0.1,0.9-0.2
				c1.6-0.4,3.1-0.8,4.7-1.2c1.9-0.5,3.2-1.8,4.6-2.8c0.9-0.7,0.7-1.7-0.3-2.4c-0.8-0.6-1.6-1.2-2.5-1.7c-0.4-0.3-1-0.5-1.5-0.5
				c-1.9,0.1-3.8,0.4-5.6,0.6c-1.8,0.2-2.8,1.5-2.4,3.3c0.2,1,0.4,2,0.4,3C840.6,368.6,840.6,368.8,842.4,368.8z M862.6,370
				c-0.7-0.4-1-0.6-1.1-0.5c-0.2,0.2-0.4,0.4-0.6,0.6c0.2,0.1,0.4,0.4,0.5,0.4C861.7,370.4,862,370.2,862.6,370z M838.9,367.7
				c-0.1-0.1-0.2-0.1-0.3-0.2c-0.1,0.1-0.1,0.2-0.1,0.3c0,0,0.1,0.1,0.2,0.1C838.7,367.9,838.8,367.8,838.9,367.7z"/>
			<path d="M665.7,287c-2.2,0-4.4-0.2-6.6,0.1c-0.9,0.1-1.3-0.3-1.3-0.9c-0.1-0.6,0.1-1.6,0.5-1.8c2.8-1.7,5.7-3.3,9.3-2.7
				c2.3,0.4,4.5-1.1,4.8-3.3c0.3-1.8,1.3-2.8,2.5-3.9c0.6-0.5,0.9-1,1-1.7c0.3-1.5,0.9-3,2-4.1c0.5-0.5,0.8-1.2,1.3-1.7
				c0.6-0.8,2.5-1.2,3.2-0.8c1.2,0.8,1.8,2,1.3,3.2c-1.2,2.9-2.4,5.7-3.7,8.5c-0.6,1.2-1.7,2-1.7,3.5c0,1.2,0.5,1.7,1.5,1.7
				c2.3-0.1,4.2,1,6.3,1.5c0.5,0.1,0.9,0.3,1.4,0.3c3.6-0.1,7.2-0.2,10.8-0.3c0.7,0,1.4,0,2.1-0.1c0.9-0.2,1.9-0.3,2.7-0.7
				c1.8-1.1,3.8-1.3,5.7-1.5c1.6-0.1,3.2,1.6,3.3,3.3c0,0.2,0,0.3,0,0.5c0.2,0.5,0.5,1,0.7,1.5c0.4-0.3,0.9-0.5,1.2-0.9
				c1.1-1.5,2.8-2.4,3.1-4.4c1.7-0.9,2.2-2.6,3.2-4c0.3-0.4,0.8-0.7,1.3-1c0.7-0.5,1.4-1,2.2-1.3c0.5-0.2,1.2-0.1,1.7-0.1
				c-0.1,0.5,0,1.1-0.3,1.5c-2.5,3.2-5,6.4-7.6,9.6c-0.2,0.2-0.5,0.6-0.4,0.8c0.3,1.9-0.9,3.3-1.7,4.8c-0.8,1.3-1,2.6-1.3,4
				c-0.5,2.1-1.4,4.2-2.2,6.3c-0.1,0.2-0.3,0.4-0.5,0.5c-2.1,1.1-4.1,2.5-6.1,3.9c-0.5,0.4-1.4,0.2-2.1,0.3c-0.6,0.1-1.4,0-1.8,0.3
				c-1.8,1.5-3.5,1.2-5.2,0c-0.7-0.5-1.2-0.4-1.9-0.1c-0.8,0.4-1.6,0.3-1.9-0.7c-0.5-1.7-1-3.3-1.4-5c-0.5-2.2,0.3-4,1.4-5.9
				c0.5-0.8,0.6-1.8,1.1-2.6c0.4-0.8,1.1-1.5,1.5-2.3c0.2-0.4,0.3-0.8,0.4-1.2c-0.4-0.1-0.9-0.2-1.3-0.2c-0.4,0-0.9,0.1-1.1,0.4
				c-1,1-2,0.9-3,0.2c-0.7-0.4-1.2-0.4-2-0.1c-0.7,0.3-1.5,0.5-2.3,0.5c-0.5,0-1.3,0-1.6-0.3c-1.5-1.6-3.3-1.5-5.2-1
				c-0.3,0.1-0.7,0.1-0.9,0c-1.2-1.3-2.9-0.5-4.3-1.1c-0.3-0.1-1.1,0.3-1.3,0.6c-0.8,1.5-1.5,3.1-2.2,4.7c-0.2,0.5-0.5,1-0.7,1.4
				c-0.2,0.3-0.6,0.6-0.6,1c-0.2,2.8-1.8,5-2.9,7.4c-1.3,2.9-2.8,5.7-2.9,8.9c0,0.7-0.3,1-1,1c-0.1,0-0.2,0-0.2-0.1
				c-1-0.3-1.5,1.7-2.4,0.6c-0.5-0.6-0.4-1.8-0.7-2.6c-0.5-1.7-0.7-3.4,0.4-5c0.6-0.9,0.4-2.2,0.9-3.2c1-1.9,2.2-3.7,3.2-5.6
				c0.3-0.5,0.3-1.1,0.4-1.7c-0.6,0-1.5-0.3-1.8,0c-0.7,0.6-1.4,0.6-2.1,0.8c-0.4,0.1-0.9,0.5-1,0.8c-0.2,1.4-1.3,1.6-2.3,2
				c-1.7,0.6-3.3,1.5-5,2.2c-0.5,0.2-1.4,0.4-1.7,0.2c-1.1-1.1-1.7-0.2-2.3,0.5c-0.7,0.8-1.3,1.7-2.6,1.1c-0.1-0.1-0.5,0.1-0.6,0.3
				c-1.2,2.2-3.5,2.1-5.5,2.5c-1.5,0.3-3.1,0.6-4.6,0.7c-0.8,0.1-1.7-0.1-2.5-0.4c-0.9-0.3-1.8-0.6-2.5-1.1
				c-0.6-0.4-1.4-1.1-1.4-1.7c-0.1-1.6-0.8-2.8-1.3-4.2c-0.4-1.2,0.5-1.9,1.2-2.6c0.7-0.7,1.5-0.5,2.2,0c0.4,0.2,0.7,0.7,0.9,1.1
				c1.1,2.3,3.6,3.8,6.1,3.4c1.7-0.3,3.7,0,5.1-1.5c0.3-0.3,1-0.3,1.6-0.4c0.5-0.1,1.1-0.1,1.4-0.4c1.3-1.4,3.3-1.3,4.8-2.2
				c1.5-0.9,3.1-1.6,4.7-2.4c3.5-1.6,6.8-3.5,9.9-5.7c0.6-0.4,1.1-1,1.7-1.5C665.9,287.4,665.8,287.2,665.7,287z M699,302.4
				c2.9,0,4.9-1.3,6.9-2.5c1.8-1,2.8-2.4,2.7-4.6c0-1.3,0.5-2.4,1.6-3.3c0.5-0.4,0.9-0.9,1.2-1.4c0.3-0.6,0.2-1.4-0.7-1.3
				c-1.5,0.2-3.1-1.1-4.6,0.3c-0.1,0.1-0.6,0-0.9-0.1c-0.8-0.3-1.4-0.3-1.8,0.5c-0.1,0.3-0.5,0.6-0.7,0.6c-1.8-0.2-2.2,1.3-2.9,2.4
				c-1,1.6-1.8,3.3-2.6,5c-0.3,0.6-0.4,1.4-0.4,2.1C697,301.4,698,302.4,699,302.4z"/>
			<path d="M538.3,295.4c-1.6,0.5-3.2,0.3-3.3,2.4c0,0.2-0.5,0.5-0.7,0.5c-1.4-0.2-2.1,0.8-3,1.6c-0.9,0.7-2,1.4-3.1,1.7
				c-1.7,0.5-3.4,0.9-4.4,2.6c-0.1,0.2-0.5,0.5-0.7,0.5c-1.6-0.5-2.8,0.7-3.9,1.2c-1.8,0.8-3.2,0.4-4.8-0.1
				c-0.3-0.1-0.8-0.5-0.8-0.7c0.1-1.3-0.5-1.3-1.4-1c-0.2,0.1-0.7-0.2-0.9-0.5c-0.7-1.3-1.3-2.5-1.9-3.8c-0.1-0.3-0.2-0.7-0.1-0.9
				c1.2-3,0.3-6.4,2.1-9.2c0.4-0.7,0.2-1.4-0.3-1.9c-0.6-0.6-0.9-0.1-1.4,0.1c-2,0.9-4,2-6.3,2.6c-1,0.2-1.9,0.6-2.7-0.1
				c-0.8-0.6-1.5-0.5-2.1,0.2c-0.8,0.9-1.6,0.8-2.6,0.4c-2.3-1-4.5-0.6-6.6,0.5c-0.7,0.3-0.9,0.1-1.5-0.2c-2-1.2-3.1-0.6-3.4,1.8
				c-0.1,0.8-0.3,1.3-0.9,1.8c-0.5,0.4-0.8,0.9-1.3,1.4c-0.7,0.7-1.3,1.3-2,2c-1.1,1-2.5,1.8-3.4,2.9c-2.1,2.4-4.8,4.1-7.4,5.9
				c-1.7-0.2-2.8,1.5-4.5,1.3c-0.8-0.1-1.6,0.5-2.5,0.8c-1.2,0.4-1.9,0.1-2.1-1.2c-0.2-1.1-0.3-2-1.6-2.3c-0.2,0-0.4-0.8-0.4-1.2
				c0-0.6,0.3-1.2,0.2-1.8c-0.5-2.9,0.2-5.7,1-8.4c0.5-1.8,2.2-3.3,3.4-4.8c0.8-1,1.6-1.9,2.4-2.9c0.4-0.5,0.7-1,1.2-1.5
				c2.5-2.2,5-4.4,7.5-6.5c2.4-2,4.2-1.9,6.2,0.4c1.3,1.5,3.4,2,4.4,3.9c0.4,0.7,1,1.1,0.9,2c-0.1,1,0.5,1.5,1.4,1.5
				c2.5,0,4.9-0.2,7.4-0.3c0.4,0,0.8-0.2,1.2-0.3c1.8-0.5,3.6,1.1,5.3,0c1.7-1,3.6-0.6,5.4-0.5c0.4,0,1,0.1,1.1-0.1
				c1.8-2.4,5.2-2.6,7.1-5c0.3-0.4,0.8-0.7,1.2-1.2c0.8-0.9,1.9-1.2,2.9-0.6c0.3,0.1,0.6,0.5,0.6,0.7c-0.2,1.3,0.7,2.7-0.4,3.9
				c-0.3,0.4-0.3,1-0.5,1.5c-0.4,1.2-0.9,2.3-1.3,3.5c-0.2,0.6-0.4,1.2-0.6,1.8c-0.2,0.7-0.5,1.5-0.7,2.2c-0.2,0.9-0.3,1.9-0.5,2.8
				c-0.1,0.9-0.1,1.9-0.3,2.8c-0.2,1.3,0.8,2.8,2,2.7c1,0,2-0.3,3-0.5c0.6-0.1,1.2-0.4,1.8-0.5c1.1-0.2,6.9-2.6,7.7-3.3
				c1.7-1.3,3.5-2.6,5.2-4c2-1.7,3.9-3.4,5.8-5.1c1.5-1.4,2.2-1.3,3.1,0.7c0.7,1.3,0.8,2.6,0.4,3.9c-0.7,2.5-0.8,5-0.8,7.6
				c0,0.7-0.2,1.4-0.3,2.1c-0.2,1.8,1.6,4.2,3.3,4.2c0.4,0,0.8,0,1.1-0.2c1.5-1,2.8-2.3,4.4-3.1c2.6-1.3,4.2-3.4,6.3-5.1
				c2.1-1.7,3.4-3.9,5.2-5.7c0.6-0.6,0.8-1.4,0.2-2.4c-0.3-0.6-0.4-1.6-0.2-2.2c0.6-1.1,2.7-2,3.7-1.6c0.9,0.3,1.7,0.7,1.8,1.9
				c0.4,3.4-0.8,6.1-3,8.5c-0.8,0.8-1.5,1.5-2,2.6c-0.5,1-1.8,1.6-2.8,2.4c-0.6,0.5-1.4,0.9-1.8,1.5c-1.7,2.5-3.6,4.8-6.4,6.2
				c-0.4,0.2-0.6,0.7-0.9,1c-0.4,0.4-0.8,0.8-1.3,0.9c-1.5,0.3-2.9,0.5-4.4,0.7c-0.8,0.1-1.5,0.4-2.3,0.4c-0.8,0-1.7-0.3-2.5-0.3
				c-1-0.1-1.7-0.3-1.6-1.6c0-0.3-0.4-0.7-0.7-0.9c-1.4-1-1.6-2.5-1.2-3.9c0.5-1.8,0.4-3.6,0.2-5.4
				C538,297.6,538.2,296.6,538.3,295.4z M465.2,302.7c0.2-0.1,0.8-0.3,1.3-0.6c1.6-0.9,3.1-2.2,4.9-2.8c2.3-0.7,3.9-2.2,5.4-3.7
				c0.8-0.8,1.5-1.5,2.6-1.4c1.4,0,1.5-1.3,1.6-2c0.1-0.8-0.8-1.2-1.7-1.1c-0.6,0.1-1.3-0.1-1.9,0c-1.6,0.3-2.7-0.3-3.8-1.4
				c-2.5-2.5-2.5-2.3-5.2,0.2c-3.1,2.9-5.1,6.3-5.5,10.6C462.7,302.2,463,302.7,465.2,302.7z M481.8,285.6c-0.1-2-1.7-1.8-3-2
				c-1.3-0.3-2.3,0.6-2.9,1.6c-0.2,0.3,0.1,1.2,0.4,1.3c0.6,0.2,1.4,0.3,2.1,0.2C479.6,286.4,480.7,285.9,481.8,285.6z"/>
			<path d="M376,384.2c0.6-1.8,1.2-3.6,1.8-5.3c0.2-0.6,0.6-1.1,0.7-1.7c0.4-2,2.1-3.5,2.3-5.6c0-0.2,0.4-0.5,0.6-0.7
				c2.1-2,3.5-4.5,4-7.4c0.4-2.1,1.6-3.5,3-4.7c1.5-1.3,3.1-2.5,4.4-4.1c1.1-1.4,2.9-2.2,4.1-3.5c1.3-1.6,3.2-1.9,4.6-3.2
				c0.3-0.3,0.9-0.4,1.4-0.3c1.2,0.2,2.2-0.1,3.1-0.9c0.8-0.7,1.5-0.6,2.4,0c1.1,0.9,2.2,1.4,3.7,0.6c1.1-0.6,3.9,0.9,4.7,2.1
				c0.6,0.9,1.3,1.7,2,2.6c0.2,0.3,0.6,0.6,0.7,0.9c1,3.9,1.6,7.9,1.4,12c0,0.5,0,1,0.3,1.4c1.4,2,0.4,3.5-1.1,4.9
				c-0.9,0.8-1.4,1.6-1.7,2.7c-0.5,1.5-1.2,2.9-1.8,4.4c-0.2,0.4-0.4,0.9-0.3,1.3c0.4,1.8-0.5,3.2-1.2,4.7c-0.2,0.4-0.5,0.9-0.5,1.3
				c0.1,2-1.4,3.1-2.4,4.5c-0.6,0.8-1.4,0.9-2.4,0.6c-1.4-0.4-2.8-0.7-4.2-1.1c-0.4-0.1-0.8-0.4-1.1-0.8c-1.4-1.7-1.9-3.8-2.1-6
				c-0.1-0.9,0.2-1.6,1.4-1.4c0.7,0.2,1-0.1,1.1-0.8c0.2-1.4,0.8-2.7,1.5-4c0.5-1,0.4-2.5,0.4-3.7c0-0.3-0.8-0.8-1.2-0.8
				c-1.5,0.2-3-0.3-4.4-0.4c-2.7-0.3-5.2-1.9-8.1-0.9c-1.7,0.6-2,0.6-2.4,2.5c-0.1,0.4-0.1,1.1-0.4,1.2c-1.8,0.9-2.1,2.7-2.4,4.3
				c-0.2,1.1-0.4,1.7-1.7,1.8c-1.2,0.1-1.3,0.6-0.4,1.5c0.7,0.7,0.5,1.5-0.3,2c-0.9,0.5-1,1-1,2.1c0.1,1.3-0.3,2.7-1.6,3.5
				c-0.8,0.5-3.1,0-4-0.6C376.8,388.2,376.1,386.5,376,384.2z M409.3,355.6c0.2,0,0.3-0.1,0.5-0.1c-0.3-0.6-0.5-1.4-1-1.7
				c-0.3-0.2-1.1,0.3-1.7,0.5c-0.3,0.1-0.5,0.3-0.8,0.5c-1,0.8-2.2,1.6-3.1,2.6c-0.9,0.9-1.5,2.1-3.1,2c-0.1,0-0.1,0.1-0.2,0.1
				c-0.8,1.1-1.8,2.2-2.5,3.5c-1.2,2.2-0.3,3,1.8,3c2.1,0,4.3,0.2,6.4,0.4c2.2,0.2,3.5-0.7,3.6-3
				C409.4,360.8,409.3,358.2,409.3,355.6z"/>
			<path d="M910.6,386.9c0-1.6-0.1-3.2,0-4.7c0-0.6,0.2-1.4,0.6-1.8c1.4-1.2,1.1-2.9,1.4-4.4c0.7-3.2,0.6-6.6,2.2-9.6
				c0.2-0.4,0.2-0.9,0.3-1.4c0-0.4-0.1-1,0.1-1.1c1.7-1.2,1.2-2.7,0.7-4.2c0-0.1,0-0.2,0-0.2c1-2.3-0.3-4.6,0.2-6.9
				c0.2-1.1,0.2-2.6,1.4-3.1c1.4-0.6,2.6,0.4,3.7,1.2c0.4,0.3,0.6,0.9,0.9,1.4c0.6,1,0.5,2.6,2.2,2.7c0.1,0,0.2,0.2,0.2,0.4
				c0.4,2.5,1.4,4.9,2.4,7.2c0.1,0.2,0.1,0.5,0.1,0.7c0.1,0.9-0.2,2.3,0.3,2.7c1,0.9,2.4,1.4,3.7,1.9c0.9,0.3,1.8,0.5,2.8,0.6
				c1.5,0.2,1.8-0.2,2.4-1.7c0.1-0.4,0.6-0.8,0.7-1.2c0.3-1.1,0.7-2.2,0.1-3.5c-0.5-1.1-0.8-2.4-1.1-3.6c-0.4-1.6,1.7-4.9,3.3-5.3
				c0.2,0,0.3-0.1,0.5-0.1c1,0.4,2,0.8,3,1.2c1.2,0.4,1.6,1.4,1.9,2.5c0.2,0.7,0.8,1.4,1.2,2c1.2,1.8,2.1,3.6,1.7,6
				c-0.3,2.1-0.1,4.3-0.2,6.4c0,1.1-0.1,2.2-0.8,3.2c-0.6,0.9-0.6,2.3-1.4,2.9c-0.9,0.8-1.2,1.5-1.2,2.5c0,0.4,0.1,1,0.3,1.2
				c1.1,0.8,0.9,1.8,0.7,2.8c-0.8,2.7-1.7,5.4-2.5,8.2c-0.3,1.2-0.8,1.9-2.1,1.7c-0.3,0-0.8,0.1-1.1,0.3c-0.6,0.5-0.6,2-1.8,1.6
				c-2.2-0.7-5-0.3-6.5-2.7c-0.5-0.8-0.7-2-0.7-2.9c0-3.2,1.1-6.3,2.1-9.3c0.8-2.4,0.1-3.7-2.5-4.2c-0.4-0.1-0.7-0.2-1.1-0.3
				c-1.8-0.8-2.9-0.6-3.8,1.1c-0.6,1.2-1.1,2.5-1,3.8c0,2.4-0.6,4.5-1.8,6.6c-0.5,0.9-1.3,1.6-1.1,2.8c0,0.2-0.4,0.6-0.7,0.8
				c-0.4,0.5-0.9,0.9-1.3,1.3c-0.8,0.9-1.8,1.3-3,1.1c-1.1-0.2-1.1-1.2-1.3-2c-0.3-1.5-0.6-1.6-2.3-1.2c-1.2,0.3-1.6-0.5-1.9-1.3
				C910.5,388.4,910.6,387.6,910.6,386.9C910.6,386.9,910.6,386.9,910.6,386.9z M923.2,372c-0.3,0-0.5-0.1-0.8-0.1
				c-0.1,0-0.1,0.2-0.2,0.3c0.2,0,0.4,0,0.7,0C923,372.2,923.1,372.1,923.2,372z M941.6,381.5c-0.1-0.1-0.1-0.3-0.2-0.4
				c-0.1,0-0.3,0.1-0.4,0.1c0.1,0.2,0.2,0.3,0.2,0.5C941.4,381.7,941.5,381.6,941.6,381.5z M918.8,381.8c0-0.1-0.1-0.2-0.1-0.4
				c-0.1,0.1-0.3,0.1-0.3,0.2c0,0.1,0.1,0.3,0.1,0.4C918.5,381.9,918.7,381.9,918.8,381.8z"/>
			<path d="M704,376.7c-1.7-0.3-2.9,0.2-4.1,1.7c-1.1,1.3-2.8,2-4.3,3c-0.6,0.4-1.5,0.9-1.7,1.5c-0.4,1.5-1.6,2.3-2.7,3.2
				c-0.3,0.3-0.8,0.6-1.1,0.5c-1.2-0.4-1.7,0.2-2.1,1.2c-0.1,0.4-0.6,0.8-1,1c-1.3,0.6-2.7,0.9-4.1,1.5c-0.7,0.3-1.4,0.8-1.9,1.3
				c-0.7,0.8-1.4,1-2.3,0.6c-0.4-0.2-0.9-0.4-1.3-0.5c-1.8-0.6-1.8-0.7-1.8-2.5c0-0.5,0.2-1,0.1-1.4c-0.6-1.8-0.6-3.1,1.4-4.2
				c1.3-0.7,2-2.6,3.9-2.3c0.3,0,0.8-0.2,1-0.5c1.1-1.1,2.1-2.3,3.2-3.5c1.6-1.8,3.4-3.4,4.8-5.4c0.8-1.2,1.7-2.3,2.6-3.3
				c0.4-0.5,1-0.8,1.5-1.2c1.9-1.6,4.5-2.3,5.9-4.5c0.1-0.2,0.3-0.4,0.5-0.4c1.8-0.2,3-1,3-3c0-0.2,0.4-0.5,0.6-0.7
				c0.7-0.6,1.5-1.2,2.1-1.8c1.3-1.2,1.6-1.1,3.1-0.3c1.5,0.8,3.1,1.2,4.5,2.1c1.6,1.1,3.3,2.3,4.5,3.8c0.9,1.1,0.7,2.7-0.3,4
				c-1.2,1.6-1.3,3.1-0.2,4.7c0.7,1,1,1.8,0.1,2.8c-0.8,0.9-0.3,1.9,0,2.7c0.7,1.7,0.5,3.2-0.4,4.9c-0.8,1.5-0.7,3.6-0.7,5.4
				c0,1.3,0.1,2.5-0.4,3.7c-0.9,2.4-1.8,4.7-2.7,7.1c-0.5,1.4-1.6,2.2-3,2.4c-1.1,0.2-2.2,0.5-3.3,0.3c-1.5-0.2-2.7-1.2-2.9-2.7
				c-0.3-1.6-0.3-3.2-0.3-4.7c0-1.4,0.3-2.8,0.5-4.3c0.1-0.8,0.2-1.6,0.5-2.3c0.5-1.3,1.2-2.4,0.6-3.9c-0.1-0.3,0.1-1,0.3-1.3
				c0.8-1,0.6-2,0.7-3.1c0-1.3-0.4-1.8-1.6-1.6C704.7,376.6,704.3,376.6,704,376.7z"/>
			<path d="M463.7,368.7c-0.5,1.8-1.1,3.6-1.6,5.4c-0.1,0.3,0,0.7-0.2,0.9c-1.5,1.8-2,4.1-3,6.1c-1.1,2.2-1.9,4.5-3.1,6.5
				c-1,1.7-3,1.3-4.6,1.4c-1.2,0.1-2.2-0.9-2.4-2.2c-0.1-0.8-0.1-1.7,0.1-2.6c0.4-1.8,0.8-3.6,1.3-5.4c0.2-0.7,0.3-1.5,0.7-2
				c1.6-2.2,2.4-4.8,3.8-7.1c1.2-2,1.9-3.9,2.3-6.1c0.1-0.4,0.3-1,0.7-1.2c1.5-0.9,1.8-2.4,1.8-3.9c0-1.4,1-2.1,1.8-3
				c0.2-0.2,0.8-0.3,1.1-0.3c1.8,0.6,3.5,1.3,5.3,1.7c1.1,0.3,1.9,0.3,1.6,1.7c0,0.1,0.2,0.5,0.4,0.5c1.7,0.2,1.4,1.6,1.7,2.7
				c0.4,1.4,1,2.8,1.6,4.1c0.4,0.9,1,1.6,0.7,2.7c-0.1,0.4,0.3,1,0.6,1.5c0.6,1.1,1.5,2.1,0.9,3.5c-0.1,0.3,0.3,0.8,0.5,1.2
				c0.2-0.3,0.6-0.5,0.7-0.8c0.7-2,2-3.6,2.4-5.8c0.3-1.6,1.6-3,2.5-4.5c0.3-0.5,0.6-0.9,0.8-1.4c0.6-1.8,1.1-3.6,1.7-5.4
				c0.5-1.6,1.4-2,2.9-1.4c1.2,0.4,2.4,0.9,3.6,1.4c0.1,0,0.2,0,0.2,0.1c0.2,0.3,0.3,0.7,0.5,1c0.7,1.6,2.6,3.2,1.2,4.8
				c-1.7,1.9-1.2,4.2-1.8,6.2c-0.2,0.6-0.4,1.5-0.8,1.6c-2.3,0.8-2.4,3-3.1,4.7c-0.8,2.2-1,4.6-2.9,6.3c-0.4,0.4-0.5,1.3-0.4,1.9
				c0.4,2-0.3,3.6-1.6,5.1c-0.9,1.1-1.6,2.3-2.4,3.5c-0.2,0.3-0.6,0.8-0.8,0.8c-2.2-0.1-4.2,1.6-6.5,0.5c-0.7-0.3-1.1-0.5-1.5-1.2
				c-1.5-2.5-1.8-5.3-2.1-8.2c-0.2-2.1-1-4.1-1.3-6.2c-0.3-2.4-1.7-4.4-1.6-6.9c0-0.8-0.5-1.5-0.8-2.3
				C464.1,368.6,463.9,368.7,463.7,368.7z"/>
			<path d="M1045.7,356.1c-1.4,1.2-3.8,1.5-5.6,0.5c-0.8-0.4-1.3-0.7-2.2-0.2c-0.8,0.5-1.5,0.1-2-0.7c-0.3-0.5-0.7-0.7-1.4-0.3
				c-1.9,1.1-3.9,0.4-4.7-1.5c-0.3-0.8-0.7-1.1-1.6-1.3c-3.5-1-5.6-3.3-3.6-7.3c0.5-0.9,1-1.3,2-1.3c0.9,0,1.9-0.3,2.8-0.4
				c0.2,0,0.4-0.1,0.5,0c1.4,0.8,2.8,1.3,4.4,0.5c0.1-0.1,0.7,0.3,0.9,0.6c0.3,0.5,0.4,1,0.7,1.8c1.7-1,3.3-1,5.1-0.1
				c1.4,0.7,3.3,0.6,4.9,0.7c1.7,0.1,3.2-0.7,4.6-1.7c1.4-0.9,2.1-0.8,2.9,0.6c0.6,1,0.8,2.1,2.4,1.8c0.2,0,0.5,0.3,0.7,0.6
				c0.9,1.1,1.8,1.4,3.1,0.6c0.4-0.3,1.2-0.2,1.8-0.1c1.8,0.2,3.4,0.3,4.8-1.2c1.3-1.4,2.1-1,2.6,0.8c0.1,0.5,0.1,1.1,0.1,1.7
				c-0.1,0.9,0,1.3,1.2,1c1.3-0.3,1.8,0,1.8,1.4c0,1.8,0.6,3.7-1.1,5.1c-0.3,0.2-0.2,0.9-0.2,1.3c-0.1,1.3-1.1,2-2,1.2
				c-1.2-1-2.3-0.7-3.5-0.5c-1.9,0.2-3.9-0.1-5.9-0.1c-1.2,0-2.3-0.1-3.5,0c-0.3,0-0.8,0.7-0.9,1.2c-0.1,0.8,0.1,1.6,0,2.4
				c-0.2,0.8-0.5,1.9-1.7,1.4c-1.1-0.4-1.1,0.1-1,0.9c0.2,1.4,0.6,2.8,0.5,4.2c-0.2,1.8-0.8,3.5-1.3,5.2c-0.6,1.8-1.3,3.6-1.9,5.4
				c-0.1,0.4-0.1,0.9-0.1,1.4c0.1,1.6-0.1,2-1.5,2.6c-2.5,1-2.7,1.6-1.8,4.2c0.2,0.6,0,1.4-0.3,1.9c-0.8,1.5-0.9,1.9,0.4,2.5
				c1.4,0.6,1,1.7,1.1,2.6c0.1,1.1-0.8,1.2-1.6,1.4c-1,0.3-2.2,1.2-3,1c-0.9-0.2-1.4-1.6-2.1-2.4c-0.3-0.4-0.7-0.8-1.1-0.9
				c-2.4-0.7-2-2.6-1.8-4.3c0.5-3.2,1-6.4,1.8-9.6c0.7-3,1.7-5.9,2.6-8.8c0.5-1.8,1-3.7,1.5-5.5c0.8-2.6,1.5-5.2,2.5-7.7
				C1046.2,357.5,1046.2,356.8,1045.7,356.1z M1049.2,372.5c0.2-0.3,0.4-0.4,0.5-0.6c0-0.1-0.3-0.3-0.4-0.4
				c-0.2,0.2-0.4,0.3-0.4,0.5C1048.8,372,1049,372.2,1049.2,372.5z"/>
			<path d="M762.4,382.1c-0.5,0-0.9,0-1.2,0.1c-1.8,1-3.7-0.1-5.6,0.5c-0.9,0.2-2.3-0.1-2.4-1.7c0-0.2-0.9-0.7-1.2-0.5
				c-1,0.5-1.9,0.4-3,0.1c-1.3-0.4-2.7,0.5-2.4,1.8c0.6,1.9-0.7,3.4-0.7,5.1c0,0.3-0.2,0.6-0.2,0.9c0.2,1.7-0.8,2.6-2.2,3.3
				c-0.8,0.4-1.8,1-1.4,2c0.7,1.8-1,2.4-1.6,3.4c-0.4,0.6-1.8,0.7-2.7,1c-0.3,0.1-0.6-0.2-0.9-0.1c-0.9,0.2-2,0.8-2.6-0.2
				c-0.8-1.3-1.7-2.6-1.3-4.4c0.9-4.3,1.3-8.7,2.9-12.8c0-0.1,0.1-0.2,0.1-0.2c0-5.1,1.6-9.9,2.7-14.8c0.7-2.8,1.1-5.6,1.6-8.4
				c0.1-0.8,0.6-1.4,1.4-1.3c1.3,0.3,2.6,0.6,3.8,1.2c0.9,0.5,1.6,1,2.4-0.1c0.2-0.2,0.6-0.3,0.9-0.3c2.3,0,4.7-0.2,6.9,0.1
				c1.4,0.2,2.8,1,4.2,1.7c2.5,1.2,4.4,3,6.5,4.9c1.7,1.5,2.5,3.5,2.9,5.3c0.4,1.7,1.4,3.6,0.5,5.6c-0.3,0.7-0.3,1.6-0.3,2.3
				c0,1.6-0.3,2.1-1.8,2.4c-0.8,0.2-1.6,0.3-2.3,0.6c-0.4,0.2-0.9,0.7-0.9,1.1C764.4,382,763.8,382.6,762.4,382.1z M760.5,369
				c0-2-0.3-2.4-2.1-3c-0.9-0.3-1.8-0.6-2.6-1.1c-1.8-1.1-3.7-0.4-5.1,0.3c-1.8,0.8-2.8,2.7-3.5,4.6c-0.1,0.3,0.1,0.9,0.4,1.1
				c0.3,0.3,0.8,0.5,1.3,0.5c2.3,0.2,4.6,0.9,7.1,0.4c1.4-0.3,2.3-1.1,3.5-1.5C760.4,370.2,760.5,369.8,760.5,369z"/>
			<path d="M643.9,387.3c-0.5-1.1,0.2-2.1,0.7-3.3c0.5-1.1,0.6-2.3,1-3.4c1.1-3.6,2.4-7.2,3.4-10.8c0.8-2.7,1-5.5,1.9-8.1
				c1.2-3.5,1.4-7.5,4.2-10.5c1.1-1.2,1.8-1.6,2.7-0.6c1.3,1.4,2.6,0.8,3.7,0.4c2.1-0.7,4-1.3,6.1,0.1c0.5,0.4,1.4,0.4,2,0.6
				c1,0.4,1.8,1,2.6,1.9c1,1.1,2.3,2,4,2.3c1.3,0.2,2.5,0.9,3.7,1.5c0.8,0.4,3.1,5.9,2.9,6.8c-0.4,1.3-0.9,2.5-1.4,3.8
				c-0.1,0.4-0.4,0.8-0.3,1.1c0.3,1.8-1,2.6-2.1,3.5c-0.5,0.4-1,1-1.6,1.3c-0.6,0.3-1.3,0.6-1.9,0.8c-1.3,0.3-2.6,0.7-4,0.8
				c-1.8,0.1-3.7,0.8-5.4-0.4c-0.5-0.4-1.1-0.6-1.7-0.8c-1.3-0.5-3,0-3.6,1.1c-0.4,0.8-1.2,1.3-1.5,1.9c-0.7,1.3-0.9,2.8-2.3,3.7
				c-0.1,0,0,0.3,0.1,0.4c0.5,3.4-0.8,6.4-2.1,9.3c-0.2,0.4-0.9,1.1-1.2,1c-2-0.7-3.6,1.4-5.5,0.8c-1.3,0.9-2.2-0.1-3.2-0.6
				c-1.1-0.5-1.1-1.7-1.3-2.7C643.9,388.7,643.9,388.2,643.9,387.3z M663.9,358.8c-1.1,1.6-1.9,3-2.8,4.3c-0.2,0.4-0.8,0.9-0.7,1
				c0.3,0.5,0.7,1.1,1.2,1.3c3.8,1,7.7,1,11.3-0.9c0.4-0.2,0.9-0.7,0.9-0.9c-0.4-0.9-0.7-2.1-1.4-2.4c-1.7-0.7-3.3-1.6-4.9-2.6
				c-0.2-0.1-0.8-0.1-1,0.1C665.5,359.8,664.6,359.4,663.9,358.8z"/>
			<path d="M800.4,366.6c-0.9,0.2-1.8,0.4-2.7,0.6c-0.2,0-0.6,0.2-0.7,0.1c-1.6-1.4-2.2,0.6-3.3,0.9c-2.7,0.8-2.5,2.7-2.3,4.7
				c0,0.4,0.5,1.1,0.8,1.1c3,0.4,5.1,2.5,7.3,4.2c0.9,0.7,0.9,1.7,0.4,2.6c-0.4,0.9-1.1,1.2-2.1,1.1c-1.8-0.1-3.6-0.1-5.3,0.3
				c-0.9,0.2-1.5,0.6-2.4,0c-0.2-0.1-0.6,0-0.9,0.1c-0.8,0.5-1.5,1.2-2.5,0.2c-0.2-0.2-0.9,0.1-1.3,0.3c-1.9,0.9-2.9,2.6-4.1,4.2
				c-0.8,1-0.3,2.4,0.3,3.5c1.8,3.1,4.5,2.2,7.2,2.1c1.3-0.1,2.7-0.1,4,0c0.8,0,1.1,0.7,0.9,1.4c-0.5,1.5-1.1,2.9-1.8,4.3
				c-0.5,1-1.2,1.6-2.5,1c-0.8-0.3-1.4,0-2.1,0.7c-0.7,0.7-1.6,1.3-2.5,1.6c-1.8,0.7-3.4-0.3-4-2.2c-0.5-1.5-0.5-1.5-2.3-1.1
				c-0.3,0.1-0.7,0-1.1-0.2c-0.4-0.2-0.9-0.7-1.2-0.7c-1.7,0.2-1.6-0.7-1.6-1.9c0-0.5-0.5-1.5-0.7-1.5c-1.7,0-1.6-1.1-1.8-2.2
				c-0.7-3.7-0.9-7.5-0.5-11.3c0.2-1.4,1.6-3.4,2.9-4.1c0.4-0.2,1-0.4,1.2-0.7c0.8-1,1.7-1.2,3-1.1c1.4,0.1,1.9-0.7,1.1-1.8
				c-1.2-1.7-1-3.3-0.4-5c0.2-0.6,0.3-1.2,0.3-1.9c0.2-3.2,2.3-5.3,4.3-7.5c0.5-0.5,1.5-0.5,2.2-0.8c2.7-1,5.4-1.6,8.2-1.7
				c1.1-0.1,2.2,0.1,3.1,1c0.1,0.1,0.2,0.3,0.3,0.3c1.9,0.3,3.1,1.7,4.3,3.1c0.3,0.3,1.1,0.2,1.6,0.5c0.4,0.2,1.1,0.6,1.2,0.9
				c0.2,1.1,0.7,2.6,0.2,3.4c-0.5,0.8-2,1.1-3.1,1.4c-0.5,0.2-1.1,0.1-1.7,0.1C800.5,366.8,800.4,366.7,800.4,366.6z"/>
			<path d="M496.5,379.4c-0.1-5.5,1.8-9.1,4.8-12.2c1.4-1.4,1.9-2.7,1.1-4.8c-0.5-1.5-0.2-3.3,0-4.9c0.2-1.2,0.9-2.4,2.4-2.7
				c0.3-0.1,0.6-0.2,0.8-0.5c1.5-2,3.9-2.8,6-3.7c1.7-0.7,3.9-1.3,5.9-0.3c0.3,0.1,0.6,0.3,0.9,0.3c3.7-0.8,6.5,1.6,9.8,2.5
				c0.5,0.1,1,0.5,1.4,0.9c0.8,0.8,0.7,1.7-0.2,2.4c-0.6,0.4-1.2,0.9-1.8,1.2c-0.4,0.2-1.1,0.4-1.3,0.2c-1.4-1.5-3-0.4-4.5-0.6
				c-3-0.5-5.4,0.8-7.9,2.2c-2.4,1.4-2.4,3.5-0.1,5c1.8,1.1,3.7,2,5.7,2c1.5,0,2.6,0.8,3.8,1.3c1.1,0.5,1.2,1.6,0.3,2.3
				c-1.3,1.1-2.5,2.5-4.7,2.4c-1.7-0.1-3.4,0.5-5.1-0.2c-0.4-0.2-1.1,0.1-1.6,0.3c-0.4,0.1-0.7,0.6-1,0.6c-2.5-0.3-3,1.9-3.5,3.3
				c-0.8,2.1-0.2,4.2,1.4,5.9c0.1,0.1,0.5,0.2,0.8,0.1c1.1-0.2,2.3-0.7,3.4-0.7c1.3,0,2.1-0.5,2.8-1.5c0.3-0.4,0.7-0.9,1.1-1.1
				c1.7-0.8,3.5-1.4,4.9-2.8c0.2-0.2,0.9-0.3,1.1-0.2c1.1,0.9,2.3,1.8,3.1,2.9c0.8,1,0.2,2.6-0.9,3.8c-0.1,0.1-0.3,0.2-0.3,0.4
				c-0.8,2.2-2.5,3.4-4.4,4.5c-1.2,0.7-3,0.7-3.7,2.2c-1-0.1-2-0.3-3-0.4c-0.6-0.1-1.3-0.3-1.7-0.1c-1.8,0.9-3.4,0.3-4.9-0.7
				c-1.2-0.8-2.4-1.4-4-0.9c-1.6,0.5-2.7-0.8-3.7-1.7C496.9,383.7,496.4,382.2,496.5,379.4z M522.1,381.1c-0.2-0.1-0.4-0.4-0.5-0.4
				c-0.2,0-0.4,0.4-0.4,0.4c0.1,0.2,0.3,0.3,0.5,0.5C521.8,381.5,521.9,381.3,522.1,381.1z"/>
			<path d="M1023.5,281c-1.7-0.6-2.8-0.1-3.3,1.5c-0.2,0.7-0.8,0.7-1.3,0.3c-0.8-0.5-1.6-0.5-2.1,0.3c-0.4,0.8-0.5,1.7,0.3,2.4
				c0.6,0.5,1.2,1.1,1.8,1.5c0.8,0.6,1.7,1.2,2.6,1.7c0.7,0.4,1.4,0.8,2.2,0.9c3.9,0.2,7.8,0.2,11.5-1c2.4-0.8,4.6-2.2,6.8-3.3
				c1.9-0.9,3.7-2.3,5.8-2.7c1.9-0.4,3.5-1.1,4.7-2.6c0.2-0.2,1-0.2,1.2,0c0.2,0.2,0.3,0.9,0.2,1.2c-0.4,0.8-0.8,1.6-1.4,2.2
				c-0.5,0.5-1.3,1.2-1.9,1.2c-1.6-0.2-2.3,0.8-3.1,1.8c-0.4,0.5-0.6,1.1-1,1.6c-0.1,0.2-0.3,0.4-0.4,0.6c-2,1.7-3.7,3.7-5.9,4.9
				c-2.2,1.2-4.9,1.6-7.6,1.2c-0.3,0-0.7-0.2-0.9-0.1c-2.5,1.9-5.4,1.4-8.1,1.5c-0.4,0-1.1,0.1-1.3-0.2c-0.9-0.9-1.9-0.4-2.9-0.4
				c-1,0-2.1,0-3-0.4c-1.9-1-3.6-2.2-5.5-3.3c-0.9-0.5-1.4-1.2-1.6-2.2c-0.1-0.6-0.4-1.2-0.7-1.8c-1-2.2-1-1.9-3.3-1.4
				c-1.9,0.4-3.9,0-5.9-0.1c-0.6,0-1.2-0.5-1.8-0.4c-1.2,0.2-2,0-2.6-1.1c-0.1-0.3-0.6-0.4-1-0.4c-2.3-0.1-4.3-1.2-6.1-2.5
				c-0.6-0.4-1-1.2-1.3-1.9c-0.3-0.7-0.5-1.4-1.5-1.7c-0.9-0.2-1.4-2.1-1-2.9c0.3-0.5,0.7-1.1,1.2-1.5c0.3-0.2,0.9-0.2,1.3-0.1
				c0.2,0,0.3,0.7,0.2,1c-0.3,1,0,1.8,1.1,1.4c1.4-0.5,2.2,0.4,3.2,1.1c0.5,0.3,1,0.7,1.6,0.8c2.7,0.5,5.2,1.5,7.6,2.7
				c0.6,0.3,1.4,0.2,2.1,0.1c1.3-0.1,2.5-0.1,3.7-0.3c0.6-0.1,1.2-0.4,1.6-0.8c0.7-0.8,1.1-1.7,1.7-2.6c1.1-1.6,2.3-3.2,3.5-4.8
				c0.4-0.5,1.2-0.8,1.8-1.1c0.3-0.2,0.9-0.3,1-0.5c0.6-2,2.3-1.8,3.8-2.2c1.2-0.3,2.5-0.7,3.6-1.2c1.9-0.9,3.7-1,5.4,0.4
				c0.2,0.2,0.6,0.5,0.8,0.5c2-0.2,2.6,1.6,3.7,2.6c0.8,0.7,0.7,2.3,0.9,3.6c0.1,0.3-0.2,0.9-0.4,1.1c-1.8,1.2-3.1,2.7-4,4.7
				c-0.1,0.3-0.8,0.6-1.2,0.6C1026.5,280.8,1024.9,280.9,1023.5,281z M1022.5,274c-0.4,0-0.4,0-0.5,0c-2.2,0.5-4,1.6-5.6,3.2
				c-0.1,0.1,0.3,0.6,0.3,0.6c2.1-0.6,4.2-1.2,6.3-2c0.3-0.1,0.7-1,0.6-1.1C1023.3,274.3,1022.7,274.1,1022.5,274z"/>
			<path d="M445,266.4c0.1,2.5-1,4.6-1.6,6.8c-0.3,1.3-0.7,2.7-0.5,3.9c0.2,1.8-0.1,3.2-1,4.7c-0.3,0.5-0.6,1.2-0.5,1.8
				c0,0.3,0.8,0.5,1.2,0.8c1,0.7,1.1,2.1,0.1,3.1c-0.5,0.5-1.1,1-1.8,1.1c-1.5,0.3-2,1.4-2.5,2.6c-1.1,2.8-2.2,5.6-3.4,8.3
				c-1.7,3.7-3.4,7.4-5.3,11c-0.4,0.7-1.3,1.4-2.1,1.7c-1.6,0.5-2.3-0.3-2.4-1.9c-0.1-1.1-0.2-2.2-0.3-3.3c-0.1-0.8,0.2-1.3,1.1-1.5
				c1.7-0.3,2.7-1.4,3.2-3.1c0.8-2.3,2-4.5,2.9-6.7c0.4-0.9,0.7-2,0.8-3c0.1-0.9-1.6-2.6-2.6-2.3c-1.8,0.7-3.5,0.4-5.3,0
				c-1-0.3-2.2-0.1-3.2-0.3c-2.1-0.6-4.1-1.3-6.1-2c-2.8-1-5.5-0.3-7,3.7c-0.3,0.9-0.9,1.7-1.2,2.6c-0.8,2.4-1.4,4.8-2.3,7.2
				c-0.7,1.9-1.8,3.7-2.8,5.4c-0.3,0.5-1.1,0.9-1.8,1.1c-1.2,0.5-2.5-0.6-2.1-1.9c0.2-1,0.7-1.9,1-2.9c0.5-1.4,1-2.8,1.6-4.2
				c1.1-2.3,2.2-4.6,3.5-6.7c0.5-0.9,0.6-1.7,0.8-2.6c0.2-0.8,0-1.1-0.7-1.4c-1.4-0.5-1.9-1.9-1.5-3.5c0.3-1.4,0.8-1.8,2.6-1.8
				c1,0,1.8-0.1,1.8-1.3c0-0.2,0.1-0.5,0.3-0.6c2.1-1.8,2.6-4.4,3.5-6.9c0.2-0.5,0.6-1.1,0-1.4c-0.5-0.3-1.3-0.5-1.7-0.3
				c-4.2,2.7-8.9,3-13.7,3.4c-2.5,0.2-4.9,0.3-7.4,0.4c-0.3,0-0.6-0.2-0.9-0.3c-0.9-0.2-1.8-0.4-2.7-0.4c-1-0.1-2,0.5-2.9-0.6
				c-0.2-0.2-0.9,0.1-1.3-0.1c-0.6-0.2-1.6-0.4-1.8-0.8c-0.3-0.7-0.3-1.7-0.1-2.5c0.3-0.9,1.3-1,2-0.5c2.4,1.3,5.1,1,7.6,1.5
				c2.3,0.5,4.8,0.3,7.3,0.2c3.8-0.2,7.7-0.6,11.2-2.2c0.5-0.2,0.9-0.7,1.3-1c3.4-1.9,6.4-4.2,9-7.2c0.4-0.4,0.8-0.8,1.3-1
				c1-0.4,2,0.2,2,1.3c0,0.9-0.2,1.8-0.5,2.5c-0.8,1.7-1.8,3.3-2.7,5c-0.7,1.3-1.4,2.5-2.5,3.7c-1.9,1.9-2.4,4.6-2.4,7.2
				c0,0.4,1.1,1.2,1.7,1.2c2.6,0.2,5.1,0.9,7.6,1.9c1.6,0.6,3.4,0.6,5.1,0.9c2.9,0.4,5.7,0.1,8.5-0.5c0.4-0.1,0.9-0.4,1.1-0.7
				c0.5-0.7,1-1.5,1.1-2.4c0.3-2,0.5-3.9,1.6-5.7c0.1-0.1,0.2-0.4,0.1-0.5c-1.2-1.7,0.1-2.8,0.9-4c1.1-1.8,1.4-3.8,1.6-5.8
				c0.1-1.4,0.6-2.8,1-4.2c0.1-0.3,0.7-0.7,0.9-0.6c0.3,0.1,0.7,0.6,0.8,0.9C444.7,263.4,444.8,264.9,445,266.4z"/>
			<path d="M595.2,381.9c0.3-3.2,1-5.3,3.5-6.5c1.4-0.7,2.4-0.2,2.4,1.4c0.1,1.1,0.5,1.6,1.4,1.9c1.2,0.4,1.4,1.3,1.3,2.5
				c-0.2,2.2,1,3.3,3.1,2.9c1.7-0.3,3.5-0.8,4.2-2.7c0.9-2.2,1.1-4.2-1-5.9c-1.3-1.1-0.8-2.8-1.1-4.2c-0.1-0.7,0-1.5-0.3-2.1
				c-1-2.7-0.3-5.3,0.6-7.9c0.2-0.5,0.5-1.1,1-1.3c0.8-0.3,1.2-0.6,0.8-1.6c-0.1-0.2,0.3-0.7,0.6-0.8c1-0.3,2-0.5,3-0.7
				c0.2,0,0.4,0,0.5-0.1c1.5-1.6,3.8-1.3,5.7-2.2c1-0.5,2.3-0.5,3.5-0.3c2.2,0.3,4.4,0.8,6.5,1.3c2.5,0.5,4.4,2.2,6.2,3.9
				c0.7,0.7,0.4,1.5-0.3,2.1c-0.9,0.8-1.2,0-1.7-0.5c-0.9-1.1-1.2-1.2-2.2-0.1c-1.2,1.3-2.4,2.1-4.3,2c-1.5-0.1-3,0.6-4.6-0.1
				c-1.5-0.6-4.8,2.9-4.7,4.6c0,0.4,0.3,0.7,0.3,1.1c0.2,1,0.4,2,0.4,3c-0.1,1.6-0.4,3.2,1.5,4.1c0.1,0.1,0.2,0.2,0.3,0.3
				c0.7,1-0.9,2.3,0.8,3.4c0.8,0.5,1.1,2.3,1,3.4c-0.2,1.4-1,2.8-1.8,4c-0.9,1.3-1.5,2.7-2.6,3.9c-0.8,0.9-1.2,1.2-2.3,0.9
				c-0.3-0.1-0.8,0-0.8,0.2c-0.4,1.6-1.8,0.9-2.7,1.2c-1.1,0.4-1.9,0.3-2.9,0c-0.9-0.3-2.2-0.2-3,0.3c-1.9,1.1-3.3,0.4-4.8-0.6
				c-0.3-0.2-0.5-0.5-0.7-0.6c-3.1-0.8-4.7-3-5.5-5.9C596.1,384.5,595.5,382.9,595.2,381.9z"/>
			<path d="M809.9,629.9c-0.4,4.7,0.8,9,1.2,13.4c0.2,2.4,1.7,3.8,3.1,5.4c3,3.5,7.3,4.3,11.3,5.6c0.5,0.2,1.1,0.2,1.7,0.2
				c1.3,0,2.7,0,4-0.1c0.6,0,1.1-0.1,1.7-0.2c4-1,8.2-1.8,11.7-4.2c0.6-0.4,1.3-0.7,2-0.7c2.5,0.1,4-1.4,5.4-3.1
				c1.5-1.9,3.2-3.6,4.2-5.9c0.5-1.2,1.5-2.2,2.4-3.1c0.3-0.3,1.2-0.5,1.7-0.3c0.9,0.5,2.1,0.8,2.4,2.1c0.1,0.4,0.6,0.6,1,0.9
				c1.1,0.7,1.3,1.8,0.5,2.7c-2.2,2.6-4.8,5-6.5,7.9c-1.3,2.3-3.8,2.2-5.3,3.7c-0.1,0.1-0.5,0.2-0.7,0.1c-2.2-1-3.3,0.8-4.6,2
				c-0.6,0.6-1,1-2,1c-1,0-2,0.5-3,0.7c-1.9,0.5-4,0.3-5.9,1.5c-1.1,0.7-3,0.4-4.5,0.2c-1.6-0.2-3.3-0.8-4.9,0.1
				c-0.1,0.1-0.3,0.1-0.5,0c-3.1-0.7-6.2-1.3-9.2-2.3c-2.1-0.7-3.9-2-5.8-3c-0.4-0.2-1-0.5-1.1-0.8c-0.4-1.6-1.4-2.8-2.6-3.8
				c-1.9-1.7-2.7-4-3.3-6.3c-0.2-0.6-0.5-1.1-0.8-1.7c-0.2-0.3-0.4-0.5-0.5-0.8c-0.6-1.1,1.3-2.2-0.1-3.4c-1-0.9-0.6-2.3-0.5-3.6
				c0.1-1.6-0.1-3.3-0.3-5c-0.2-1.7,0.6-3.1,1.3-4.5c0.6-1.3,1.3-1.3,2.4-0.3c0.4,0.4,0.6,0.9,0.9,1.4c0.3,0.4,0.7,1.1,1.1,1.2
				C809.8,627.2,809.9,628.7,809.9,629.9z"/>
			<path d="M991.4,481.6c0.9-0.2,1.7-0.5,2.4-0.6c0.3,0,0.7,0.4,0.8,0.7c0.1,0.2-0.3,0.7-0.6,0.8c-1,0.4-2.2,0.3-2.6,1.7
				c-2.1-0.1-3.2,1-3.7,3c0,0.2-0.7,0.3-1,0.5c-0.5,0.4-1.2,0.8-1.5,1.3c-0.7,1-0.9,2.6-1.8,3.2c-1.3,0.9-2,2-2.5,3.5
				c-0.1,0.3-0.8,0.5-1.2,0.6c-0.8,0.3-1.2,0.6-0.9,1.6c0.1,0.3-0.2,0.8-0.5,1.2c-0.9,1-1.8,1.9-1.2,3.4c0,0.1,0,0.2,0,0.2
				c-1.6,1.8-0.8,4.4-2.3,6.2c-0.2,0.2-0.3,0.5-0.5,0.5c-1.8,0.3-3.5,0.9-5.3,0.9c-1.8,0-2.3-0.7-2.1-2.4c0.1-1.3,0.4-2.5,0.6-3.8
				c0.2-1.9,0.3-3.8,0.4-5.7c0.1-1.2,0.1-2.4-0.1-3.6c-0.3-1.5-0.6-3-1.2-4.3c-0.7-1.6-2.1-1.7-3.4-0.5c-1.6,1.6-3.6,1.7-5.6,1.4
				c-0.6-0.1-1.5-0.6-1.5-0.9c-0.1-0.7,0.2-1.8,0.6-2.1c1.4-0.8,2.4-2.2,4-2.8c1.6-0.6,2.8-2,4.2-3c1.3-0.9,2.1-2,2.8-3.4
				c0.5-0.9,1-1.9,1.7-2.6c1.4-1.4,2.1-2.9,2.1-4.8c0-0.7-0.1-1.6,0.8-1.8c0.6-0.1,1.5,0.1,1.9,0.5c0.7,0.7,1.4,0.5,2.2,0.4
				c2.5-0.2,2.5-0.2,3.5,2c0.1,0.2,0.2,0.5,0.3,0.6c2,1.8,3.2,4.2,4.6,6.4c0.2,0.3,1,0.3,1.4,0.3c1-0.1,2-0.4,3-0.6
				C990.7,479.6,991.3,480.3,991.4,481.6z M983.5,482.9c-0.2-0.2-0.3-0.6-0.5-0.7c-0.7-0.4-1.4-1-2.1-0.9c-1.1,0-1.6-0.3-2-1.3
				c-0.2-0.5-0.7-0.8-1-1.3c-1.1-2-2.3-1.8-3.5,0.1c-1,1.4-1.3,3.4-2.5,4.5c-1.5,1.4-1.2,2.7-0.6,4.2c0.3,0.6,0.8,1.1,1.2,1.6
				c0.4,0.5,0.9,0.8,1.2,1.4c1.1,2.5,1.2,2.5,3.2,0.7c0.5-0.4,0.9-0.9,1.3-1.4c1.2-1.4,2.4-2.9,3.6-4.4
				C982.4,484.6,982.9,483.8,983.5,482.9z"/>
			<path d="M813.1,594.2c-0.5-0.2-1.4-0.6-2.3-1.1c-1-0.5-2.4-0.4-2.7,0.5c-0.5,2.1-2.5,2.6-3.8,3.7c-2.4,2.2-5.4,1.8-8.3,1.9
				c-0.9,0-1.8-1.3-2.7-2.1c-0.3-0.3-0.5-1-0.9-1.1c-1.4-0.5-1.7-1.7-2.2-2.9c-0.6-1.8-1.8-2.2-3.4-1.5c-1,0.4-2,1-3,1
				c-0.9,0-1.9-0.6-2.7-1.1c-0.2-0.2-0.1-1.4,0.2-1.7c1.7-1.3,3.7-2.2,5.8-3c0.1-0.1,0.3-0.1,0.5,0c2.8,1,5.6,0.5,8.5,0.3
				c1.2-0.1,2.4-0.1,3.5-0.4c1.2-0.3,2.2-0.3,3.2,0.4c1,0.9,2.2,0.8,3.4,0.7c0.7-0.1,1.6,0,2.3,0.2c2.2,0.8,4.4,1.6,6.6,2.5
				c0.9,0.3,1.5,1,1.4,2c-0.1,0.9-0.8,1.4-1.6,1.5C814.5,594.1,814.1,594.1,813.1,594.2z"/>
			<path d="M680,618.6c0.2-1,0.3-2,0.5-3c0.2-0.9,0-1.6-1-1.7c-1.2-0.2-2.5-0.5-3.7-0.7c-0.5-0.1-1.3,0-1.6-0.3
				c-0.6-0.5-1.2-1.2-1.5-2c-0.1-0.3,0.6-1,1.1-1.3c1.3-1.1,2.8-1.5,4.6-1.2c0.8,0.2,1.6,0.1,2.4,0c0.2,0,0.6-0.4,0.6-0.5
				c-0.6-1.4,0.7-2.7,0.1-4.3c-0.5-1.3-0.1-3.2,0.9-4.5c0.4-0.5,0.9-0.9,1.4-1.2c1-0.4,1.5,0,1.5,1.1c0.1,2.4,0.1,4.9,0.1,7.3
				c0,0.4,0,0.8,0,1.2c0.1,1.8,0.4,2.1,2.1,2.1c1.1,0,2.2,0.1,3.3,0.3c1.4,0.3,1.9,0.8,1.7,1.8c-0.3,1.6-0.9,2.1-2.2,2.1
				c-0.3,0-0.6,0.4-1,0.6c-0.2,0.1-0.5,0.4-0.5,0.4c-1-1.2-2.3,0.3-3.4-0.2c-0.1-0.1-1,0.9-1.1,1.5c-0.2,0.8,0.1,1.8-0.2,2.6
				c-0.3,1-0.7,2.1-1.3,2.9c-0.3,0.4-1.4,0.6-1.9,0.4c-0.4-0.1-0.7-1-0.8-1.6c-0.1-0.6,0.1-1.3,0.2-1.9
				C680.1,618.6,680,618.6,680,618.6z"/>
			<path d="M834.9,521.9c1.4-0.3,2.2,0,3,1.1c0.5,0.7,1.6,1.1,2.4,1.2c1.8,0.2,3.6,0.1,5.5,0.1c0.8,0,1.6,0.1,2.4,0.2
				c1.9,0.4,3.9,0.5,5.9,0.8c2.2,0.3,4.3,1.6,6.4,2.5c0.7,0.3,0.5,0.9,0,1.4c-0.9,0.8-2,0.8-2.9,0.2c-0.9-0.6-1.9-0.7-2.9-0.7
				c-1.4,0-2.9,0-4.2-0.4c-2.6-0.8-5.2,0-7.7-0.1c-1.9-0.1-3.7-0.3-5.2-1.5c-0.2-0.2-0.7-0.1-1-0.2c-1.1-0.2-2.3-0.3-3.4-0.6
				c-1-0.3-1.6-1.1-1.6-2.1c0-0.9,1.1-1.6,2.2-1.8C834,521.8,834.5,521.9,834.9,521.9z"/>
			<path d="M887.3,569.7c0.4-1.3-0.1-3.3,1.3-4.8c0.2-0.3,0.1-1.1-0.1-1.5c-0.4-1-0.1-1.7,0.9-1.7c1.1-0.1,1.2-0.8,1.3-1.6
				c0.2-1.1,0.3-2.2,0.7-3.2c0.2-0.4,0.9-0.6,1.4-0.9c0.2,0.5,0.6,1,0.6,1.4c-0.2,1.2,0,2.3,0.7,3.4c0.4,0.7,0.2,1.8,0.1,2.7
				c-0.2,2.8,0.7,5.6-0.2,8.3c-0.5,1.5-0.8,1.6-2.2,0.6c-0.3-0.2-0.7-0.3-1-0.3c-0.2,0-0.4,0.2-0.6,0.3
				C887.7,573,887.1,572.6,887.3,569.7z"/>
			<path d="M901.9,572.7c-3-1-3-1.1-2.9-3.8c0.1-1.5-0.3-3-0.4-4.5c-0.1-1.3-0.2-2.5-0.1-3.8c0-0.5,0.6-1.1,1-1.3
				c0.7-0.2,1.2,0.2,1.3,1c0.3,1.5,0.9,3,0.9,4.6C902,567.5,901.9,570.1,901.9,572.7z"/>
			<path d="M859.2,561.6c-0.2,0.5-0.4,1-0.6,1.5c-0.3-0.5-0.7-0.9-0.9-1.4c-0.2-0.3-0.3-0.7-0.4-1.1c-0.3-0.8-0.3-1.5,0.6-1.7
				c1-0.2,1,0.8,1.1,1.4c0.1,0.4,0,0.8-0.1,1.2C859.1,561.6,859.2,561.6,859.2,561.6z"/>
			<path d="M895.3,550.6c-0.1,0.2-0.2,0.4-0.3,0.6c-0.1-0.1-0.4-0.3-0.4-0.4c0-0.2,0.2-0.3,0.4-0.5
				C895.1,550.3,895.2,550.4,895.3,550.6z"/>
			<path d="M862.4,528c0.3,0.3,0.5,0.5,0.6,0.7c0,0.1-0.3,0.4-0.3,0.4c-0.2-0.1-0.5-0.3-0.6-0.5C862,528.6,862.2,528.3,862.4,528z"
				/>
			<path d="M497.5,547.2c-1.4-0.3-2.2-0.4-2.9-0.6c-0.3-0.1-0.8-0.2-0.8-0.4c-0.3-1.6-1.6-2-2.9-2.5c-0.5-0.2-1.1-0.8-1.2-1.4
				c-0.2-1.6-1.4-2.3-2.5-3c-1.3-0.8-2.3-1.8-3.1-3.1c-0.3-0.6-1-1-1.5-1.4c-0.8-0.8-2.1-1.5-2.4-2.5c-0.5-1.9-1.9-3-3.1-4.2
				c-0.6-0.6-0.8-1.6-1.4-1.9c-0.7-0.3-1.7,0.1-2.5,0c-0.5-0.1-1.1-0.4-1.5-0.8c-1.1-1-1.8-2.5-3.6-2.2c-1-1.3-2.1-2.6-3.1-3.9
				c-0.2-0.2-0.1-0.7-0.3-0.9c-1.8-1.4-1.9-3.7-3-5.5c-0.6-1-1.4-1.8-2.2-2.7c-1.6-1.8-1.5-4.3,0.4-5.8c0.3-0.2,0.8-0.3,1.1-0.2
				c0.3,0.1,0.5,0.6,0.6,0.9c0.2,0.9,0.1,1.9,0.4,2.8c0.3,1,0.9,1,1.6,0.1c0.6-0.8,1.1-1.1,2-0.4c1.5,1,3,1.9,4.5,2.8
				c0.5,0.3,1.2,0.3,1.7,0.6c0.5,0.3,1.2,0.6,1.3,1.1c0.3,1.2,1.1,1.7,2.2,1.9c1.6,0.3,2.7,1.2,3.6,2.6c0.8,1.2,1.7,2.3,2.6,3.3
				c0.4,0.4,1.1,0.6,1.7,0.8c0.4,0.1,1-0.1,1.1,0.1c0.6,0.8,0.9,1.9,1.6,2.6c0.7,0.6,2.1,0.2,2.2,1.7c0,0.8,0.8,0.9,1.1,1.3
				c1.6,2.1,4.4,2.4,5.9,4.3c1.4,1.8,3.5,2.9,4.5,5.1c0.3,0.7,1.6,1.1,2.5,1.6c0.5,0.3,1.2,0.2,1.5,0.6c1.3,1.7,2.5,3.4,3.8,5.2
				c0.4,0.5,0.6,1.2,1,1.6c0.9,0.9,0.7,1.7,0,2.5c-0.2,0.2-0.9,0.4-1.1,0.2c-0.6-0.4-1.1-0.9-1.6-1.4c-0.8-0.9-1.3-2.2-2.3-2.9
				c-2.1-1.3-3.1-4-5.7-4.8c-0.4-0.1-0.6-1.2-0.9-1.9c-0.3-0.7-0.5-1.4-1.5-1c-0.8,0.3-1.3,1.5-0.6,2.2c1.2,1.3,1.2,3.5,3.5,3.9
				c0.1,0,0.3,0.7,0.2,1c-0.1,0.4-0.3,1-0.7,1.2C495.9,544.6,496.3,545.7,497.5,547.2z M478.3,521.1c-0.5-0.1-0.7-0.1-0.8-0.1
				c-0.5,0.2-1,0.4-1.5,0.5c0.3,0.4,0.5,1,0.9,1.2c0.9,0.6,2.2,0.9,2.9,1.7c1.8,1.9,4.2,3,6.2,4.6c0.2,0.1,0.6,0.1,0.9,0.1
				c0-0.3,0.1-0.6,0-0.8c-1.6-1.9-3.1-3.8-5.7-4.4c-0.7-0.2-1.5-0.4-1.4-1.3C479.9,521.2,479.1,521,478.3,521.1z M493.5,534.8
				c0-1-0.9-1.6-1.9-1.6c-0.2,0-0.6,0.3-0.7,0.5c-0.2,0.7,1.2,1.8,1.9,1.7C493.1,535.3,493.3,534.9,493.5,534.8z M470,514.3
				c0,0.2-0.1,0.4-0.1,0.6c0,0.1,0.2,0.1,0.4,0.2c0.1-0.2,0.1-0.4,0.1-0.6C470.5,514.4,470.2,514.4,470,514.3z M489.8,531.5
				c-0.1,0-0.1,0-0.2,0c0,0.1,0,0.3,0.1,0.4c0,0,0.1,0,0.2,0C489.9,531.7,489.9,531.6,489.8,531.5z"/>
			<path d="M535.7,557c0.4-0.2,0.9-0.4,1.2-0.7c0.7-0.6,1.3-0.8,2.1,0c0.7,0.7,1.5,0.6,2.4,0.2c2-1.1,3.6-0.8,4.9,1
				c0.5,0.7,1.1,0.7,1.8,0.8c0.7,0.1,1.6,0.5,1.9,1.1c0.5,1,1.3,1.2,2.1,1.7c1.2,0.7,2.8,1.2,3.3,2.9c0.2,0.7,0.8,0.8,1.6,0.6
				c0.8-0.3,1.7-0.2,2.1,0.6c0.7,1.2,1,1.6,1.9,1.6c0.7,0,1.6-0.6,1.7,0.8c0,0.1,0.3,0.2,0.4,0.1c1.5-1.1,2.4,0.8,3.7,0.9
				c0.2,0,0.6,0.2,0.6,0.4c0.3,2.2,1.9,1.6,3.2,1.6c0.5,0,1,0,1.4,0.2c0.9,0.5,1.5,0.3,2.4-0.2c0.8-0.5,1.9-0.4,2.9-0.6
				c1.1-0.2,1.8,0,2.6,1c0.9,1.1,2.6,1.4,3.3,2.9c0.1,0.3,1.1,0.3,1.7,0.4c1.7,0.4,3.1,1.3,3.8,2.9c0.4,0.9,0.8,1.5,2,1.2
				c0.8-0.2,1.4,0.3,2,1c0.7,0.8,1.6,1.4,2.5,2c1,0.7,2.2,0.9,2.5,2.3c0.1,0.3,0.4,0.6,0.6,0.6c1.8-0.1,2.6,1.7,4,2.4
				c0.6,0.3,1,1.4,1.3,2.2c0.1,0.3-0.3,0.9-0.6,1.3c-0.2,0.3-0.8,0.3-0.9,0.6c-0.6,1.1-1.2,0.7-1.6,0c-0.4-0.8-0.9-0.8-1.5-0.3
				c-1,0.8-1.3,0.3-1.7-0.7c-0.1-0.4-0.7-0.8-1-0.8c-2,0.2-3.2-0.7-4.2-2.3c-0.4-0.6-1.3-0.8-1.9-1.2c-0.6-0.4-1.6-0.8-1.8-1.3
				c-0.5-1.9-1.9-2.2-3.4-2.2c-1.2,0-1.9-0.4-2.4-1.5c-0.5-1.1-1.5-1.6-2.9-1.7c-1.5-0.1-3-0.9-3.6-2.6c-0.2-0.7-0.6-1-1.2-0.7
				c-1,0.5-1.5,0.1-2-0.7c-0.2-0.4-0.6-0.8-1-1.1c-1.4-1.2-2.6-0.8-3.3,0.9c-0.5,1-1,1.9-1.8,2.7c-1.5,1.5-2.8,1.3-4.2-0.3
				c-0.6-0.6-1.2-1.3-2-1.6c-1.5-0.6-3.2-0.7-3.9-2.5c-0.2-0.4-0.9-0.6-1.4-0.9c-1.2-0.8-2.7-1.1-3.3-2.8c-0.3-0.8-1.8-1.3-2.8-1.6
				c-1.2-0.4-2.1-1-3-1.8c-1.6-1.5-3.4-2.7-5.2-4c-0.5-0.3-1.2-0.5-1.8-0.6c-1.4,0-2.2-0.6-2.4-2.1C537.3,557.9,537,557,535.7,557
				C535.7,556.9,535.7,557,535.7,557z"/>
			<path d="M586.6,591.6c2.2-0.2,3.5,0.6,4.2,2.1c0.2,0.4,0.6,0.8,0.7,1.2c0.1,0.4,0.1,1-0.1,1.3c-0.4,0.6-1,1.1-1.6,1.4
				c-0.5,0.2-1.1-0.3-1.7-0.4c-2.4-0.3-4.5-2-7.1-1.2c-1.3,0.4-1.9-1-2.6-1.7c-1.3-1.3-2.4-2.7-3.6-4c-0.3-0.3-1-0.2-1.4-0.1
				c-2.2,0.8-2.7,0.5-2.9-1.7c-0.1-0.9-0.6-1.3-1.2-1.9c-2.2-1.9-1.9-3.6,0.9-4.6c0.4-0.2,0.9-0.4,1.3-0.7c1.1-1,1.9-0.1,2.8,0.4
				c0.8,0.4,0.6,1.1,0.3,1.9c-0.4,0.9-0.1,1.3,0.9,1.3c0.5,0,1.1,0.3,1.4,0.7c0.6,0.8,1.5,1.1,2.3,1.5c2.2,1.2,4.2,2.6,6.3,3.9
				C585.8,591.3,586.5,591.5,586.6,591.6z"/>
			<path d="M457.9,523.6c0.3,0.1,0.6,0.2,0.8,0.3c1.8,1.5,3.6,2.9,5.3,4.5c0.7,0.7,1,1.8,1.7,2.5c2.2,2.4,4.6,4.7,6.8,7
				c0.5,0.5,1.1,1,1.3,1.7c0.4,1.3,1,2.3,2.5,2.6c0.3,0.1,0.8,0.6,0.7,0.8c-0.4,2.9,1.8,4.2,3.4,5.8c0.2,0.2,0.5,0.3,0.5,0.5
				c0,0.2-0.2,0.6-0.3,0.7c-1.4,0.3-3.4-0.8-4.1-2.2c-0.1-0.3-0.3-0.8-0.4-0.8c-1.8,0-2.3-1.7-3.6-2.4c-0.7-0.4-1.5-1.1-1.7-1.9
				c-0.8-2.6-2.8-4-4.9-5.3c-1.3-0.8-2-1.8-2.2-3.4c-0.3-1.7-1.5-2.9-2.8-4c-1.3-1.1-2.5-2.5-3.5-3.8c-0.3-0.4-0.3-1.2-0.2-1.8
				C457.1,524.1,457.6,523.9,457.9,523.6z"/>
			<path d="M509.2,560.9c-0.1-0.1-0.2-0.1-0.3-0.2c0.1-0.1,0.2-0.3,0.2-0.3c0.2,0,0.3,0.1,0.5,0.2
				C509.4,560.7,509.3,560.8,509.2,560.9z"/>
			<path d="M509,559.1c-0.1,0.1-0.2,0.2-0.2,0.3c-0.1-0.1-0.2-0.2-0.2-0.3c0,0,0.1-0.2,0.1-0.2C508.8,559,508.9,559.1,509,559.1z"/>
			<path d="M496.9,549c-0.1,0-0.1,0.1-0.2,0.1c0,0-0.1-0.1-0.1-0.2c0.1,0,0.2-0.1,0.3-0.1C496.9,548.9,496.9,549,496.9,549z"/>
			<path d="M482,550.8c0.1,0,0.1,0,0.2,0.1c0,0,0,0.1,0,0.2c-0.1,0-0.2-0.1-0.3-0.1C481.9,550.9,482,550.8,482,550.8z"/>
			<path d="M511.3,497.3c0.3-1,0.6-2.4,1-3.8c0-0.1,0.8-0.2,1,0c0.4,0.6,0.8,1.2,1,1.9c0.4,1.1,1.2,1.8,2.2,2.3
				c0.3,0.2,0.7,0.2,1.1,0.1c2.4-0.7,4.4-0.3,5.8,1.7c0.8,1.2,2.3,1.8,2.4,3.4c0,0.2,0.4,0.5,0.7,0.6c1,0.5,2,1,2.3,2.3
				c1.4,0,1.8,1.3,2.6,2c1.6,1.6,3.1,3.3,4.5,5.1c0.4,0.5,0.6,1.3,0.7,2c0.1,1-0.8,2-1.8,1.7c-2.5-0.5-5-0.8-6.4-3.5
				c-0.8-1.7-2.4-2.8-4.4-2.7c-0.4,0-1.1-0.1-1.3-0.4c-2-3.3-5.5-5.3-7.6-8.5c-0.2-0.3-0.6-0.4-1-0.5
				C511.5,500.6,511.3,500.3,511.3,497.3z"/>
			<path d="M549.1,485.7c0.1,1.5-1.2,1.7-2.1,2.2c-1,0.5-1.2-0.3-1.8-0.9c-1.1-1.2-2.3-2.6-3.7-3.2c-2.4-1-3.3-3-4.3-5
				c-0.5-1-0.9-1.9-1.9-2.6c-0.6-0.4-0.8-1.8-0.9-2.8c-0.1-1.1,0.1-2.2-1.4-2.6c-0.2-0.1-0.5-0.7-0.4-1c0.1-1,2.9-2.6,3.8-2.3
				c3.3,1.2,6.5,2.6,7.8,6.3c0.2,0.6,0.8,1.2,1.3,1.7c0.9,1,1.7,2.1,1.5,3.6c0,0.4,0.1,1,0.4,1.3
				C548.8,481.8,548.7,483.9,549.1,485.7z M540.7,474.5l-0.1,0l0,0.1L540.7,474.5z"/>
			<path d="M511.2,502.8c1-0.1,1.9,0.2,2,1.4c0,0.1-0.3,0.5-0.4,0.5C511.5,504.6,511.2,503.8,511.2,502.8
				C511.2,502.7,511.2,502.8,511.2,502.8z"/>
			<path d="M575.6,549.4c0.8-0.8,1.4-1.5,2-2c0.1-0.1,0.5-0.2,0.6-0.1c0.2,0.1,0.3,0.4,0.3,0.6C578.7,549.2,578,549.6,575.6,549.4z"
				/>
			<path d="M547.7,594.3c-0.5,0.3-0.9,0.6-1,0.6c-0.4-0.3-0.7-0.7-1.1-1.1c0.2-0.2,0.5-0.6,0.7-0.5
				C546.8,593.5,547.1,593.9,547.7,594.3z"/>
			<path d="M899,521.5c-0.7-0.1-1.5-0.1-2.2,0.7c-0.4,0.4-1.3,0.3-2,0.4c-3.6,0.8-7.3,0.8-11,0.4c-1.3-0.1-2.4-1.3-2.4-2.5
				c0-0.8,1.2-1.7,2.4-2c0.5-0.1,1-0.6,1.5-0.9c1.4-1.2,2.5-1.3,3.9-0.5c0.3,0.2,0.7,0.4,0.7,0.6c0.1,1.9,1.6,1.7,2.8,1.7
				c2,0,3.9-0.1,5.9-0.2c0.4,0,0.8,0,1.2,0c0.8,0.1,1.6,0.5,1.5,1.5c-0.1,1.1-1,0.8-1.6,0.8C899.5,521.5,899.3,521.5,899,521.5z"/>
			<path d="M891.7,502.2c1.3,0.3,2.6,0.4,3.8,0.9c2.4,1,4.7,2.1,7.1,3.2c0.1,0.1,0.3,0.1,0.4,0.2c0.6,0.5,1.9,0.8,1.5,1.8
				c-0.5,1.3-1.4,0.2-2.2,0c-1.5-0.3-3.1-0.6-4.7-0.8c-2.2-0.3-4.1-1.9-6.5-1.6c-0.8,0.1-1.8-1.1-2.6-1.9c-0.1-0.1,0.1-0.9,0.4-1
				C889.8,502.6,890.8,502.4,891.7,502.2z"/>
			<path d="M798.3,526.2c-0.2-0.3-0.5-0.5-0.4-0.6c0.1-0.2,0.3-0.5,0.5-0.6c0.1,0,0.4,0.3,0.6,0.4
				C798.8,525.6,798.6,525.9,798.3,526.2z"/>
		</g>
	</g>
</g>
</svg>
